<svg id="Add_participants" data-name="Add participants" xmlns="http://www.w3.org/2000/svg" width="14.562" height="18.898" viewBox="0 0 14.562 18.898">
  <g id="Group_1180" data-name="Group 1180" transform="translate(0 0)">
    <path id="Path_44" data-name="Path 44" d="M304.984,395.884v1.724a5.087,5.087,0,0,0-5,5.171h-1.666A6.782,6.782,0,0,1,304.984,395.884Zm1-.862a5.174,5.174,0,1,1,5-5.171A5.085,5.085,0,0,1,305.984,395.022Zm0-1.724a3.449,3.449,0,1,0-3.332-3.447A3.39,3.39,0,0,0,305.984,393.3Z" transform="translate(-298.319 -384.681)" fill="#fff"/>
  </g>
  <path id="Path_45" data-name="Path 45" d="M312.5,401.246h2.081v1.823H312.5v2.468h-1.922V403.07h-2.087v-1.823h2.087v-2.4H312.5Z" transform="translate(-300.016 -386.64)" fill="#fff"/>
</svg>
