<svg id="check-svgrepo-com" xmlns="http://www.w3.org/2000/svg" width="19.667" height="19.667" viewBox="0 0 19.667 19.667">
  <path id="Path_36" data-name="Path 36" d="M9.833,0a9.833,9.833,0,1,0,9.833,9.833A9.845,9.845,0,0,0,9.833,0Zm0,17.879a8.046,8.046,0,1,1,8.046-8.046A8.055,8.055,0,0,1,9.833,17.879Z" fill="#fff"/>
  <path id="Path_37" data-name="Path 37" d="M86.422,102.533l-5.057,5.057-2.318-2.318a.894.894,0,1,0-1.264,1.264l2.95,2.95a.894.894,0,0,0,.632.262h0a.894.894,0,0,0,.632-.262l5.689-5.689a.894.894,0,0,0-1.264-1.264Z" transform="translate(-72.901 -96.176)" fill="#fff"/>
</svg>
