<svg xmlns="http://www.w3.org/2000/svg" width="23.48" height="19.334" viewBox="0 0 23.48 19.334">
  <path id="double-arrow-right-svgrepo-com" d="M2.3,19.512A1.014,1.014,0,1,0,3.73,20.945l8.108-8.108a1.013,1.013,0,0,0,0-1.433L3.73,3.3A1.013,1.013,0,0,0,2.3,4.73l7.391,7.391Zm12.161,0a1.014,1.014,0,1,0,1.433,1.433L24,12.838A1.014,1.014,0,0,0,24,11.4L15.892,3.3A1.013,1.013,0,0,0,14.458,4.73l7.391,7.391Z" transform="translate(-1.408 -2.5)" fill="#5e980a" stroke="#5e980a" stroke-width="1" fill-rule="evenodd"/>
</svg>
