<svg xmlns="http://www.w3.org/2000/svg" width="15.889" height="18" viewBox="0 0 15.889 18">
  <g id="Edit_icon" data-name="Edit icon" transform="translate(0 1.504)">
    <g id="Group_71" data-name="Group 71" transform="translate(-1.299 -1.504)">
      <path id="Path_40" data-name="Path 40" d="M2.982,11.889,6.567,15.1l7.605-8.476L10.586,3.411ZM9.688,7.346l-4.27,4.76a.3.3,0,0,1-.208.1.3.3,0,0,1-.218-.077l-.212-.191a.3.3,0,0,1-.023-.425l4.27-4.76a.3.3,0,0,1,.426-.024l.212.19A.3.3,0,0,1,9.688,7.346ZM10.93,5.083l.211.189a.3.3,0,0,1,.024.426l-.371.414a.308.308,0,0,1-.209.1.3.3,0,0,1-.218-.077l-.212-.19a.309.309,0,0,1-.1-.209.3.3,0,0,1,.078-.218l.371-.414A.3.3,0,0,1,10.93,5.083Zm.884-3.039L15.4,5.259l-.881.982L10.934,3.025Zm5.027.047L14.808.267a1.042,1.042,0,0,0-1.472.08l-1.2,1.336L15.724,4.9l1.2-1.335A1.044,1.044,0,0,0,16.84,2.09ZM15.65,3.558,13.477,1.609l.628-.7,2.173,1.948ZM1.319,16.648a.519.519,0,0,0,.695.625l4.123-1.689L2.552,12.368ZM4.963,15.38l-1.62.663-.947-.85.485-1.682Z" fill="#5e980a"/>
      <rect id="Rectangle_464" data-name="Rectangle 464" width="15" height="1" transform="translate(1.299 17)" fill="#5e980a"/>
    </g>
  </g>
</svg>
