<svg xmlns="http://www.w3.org/2000/svg" width="67.983" height="55.947" viewBox="0 0 67.983 55.947">
  <g id="Group_1220" data-name="Group 1220" transform="translate(-9918.767 -10984.031)">
    <g id="page-break-svgrepo-com" transform="translate(9918.767 11076.105) rotate(-90)">
      <path id="Path_388" data-name="Path 388" d="M124.11,0a1.249,1.249,0,0,0-1.249,1.249V27.89h-44.3V1.249a1.249,1.249,0,1,0-2.5,0v27.89a1.249,1.249,0,0,0,1.249,1.249h46.8a1.249,1.249,0,0,0,1.249-1.249V1.249A1.249,1.249,0,0,0,124.11,0Z" transform="translate(-33.285)" fill="#fff"/>
      <path id="Path_389" data-name="Path 389" d="M145.968,2.5H149.3a1.249,1.249,0,1,0,0-2.5h-3.332a1.249,1.249,0,1,0,0,2.5Z" transform="translate(-90.502)" fill="#fff"/>
      <path id="Path_390" data-name="Path 390" d="M105.968,2.5H109.3a1.249,1.249,0,1,0,0-2.5h-3.332a1.249,1.249,0,1,0,0,2.5Z" transform="translate(-57.166)" fill="#fff"/>
      <path id="Path_391" data-name="Path 391" d="M185.968,2.5H189.3a1.249,1.249,0,1,0,0-2.5h-3.332a1.249,1.249,0,0,0,0,2.5Z" transform="translate(-123.839)" fill="#fff"/>
      <path id="Path_392" data-name="Path 392" d="M265.968,2.5H269.3a1.249,1.249,0,1,0,0-2.5h-3.332a1.249,1.249,0,1,0,0,2.5Z" transform="translate(-190.512)" fill="#fff"/>
      <path id="Path_393" data-name="Path 393" d="M225.968,2.5H229.3a1.249,1.249,0,1,0,0-2.5h-3.332a1.249,1.249,0,1,0,0,2.5Z" transform="translate(-157.176)" fill="#fff"/>
      <path id="Path_394" data-name="Path 394" d="M305.968,2.5H309.3a1.249,1.249,0,1,0,0-2.5h-3.332a1.249,1.249,0,1,0,0,2.5Z" transform="translate(-223.849)" fill="#fff"/>
      <path id="Path_395" data-name="Path 395" d="M124.11,225.68h-46.8a1.249,1.249,0,0,0-1.249,1.249v27.89a1.249,1.249,0,1,0,2.5,0V228.179h44.3V254.82a1.249,1.249,0,1,0,2.5,0v-27.89A1.249,1.249,0,0,0,124.11,225.68Z" transform="translate(-33.285 -188.086)" fill="#fff"/>
      <path id="Path_396" data-name="Path 396" d="M229.905,393.105h-3.332a1.249,1.249,0,1,0,0,2.5h3.332a1.249,1.249,0,1,0,0-2.5Z" transform="translate(-157.68 -327.62)" fill="#fff"/>
      <path id="Path_397" data-name="Path 397" d="M269.905,393.105h-3.332a1.249,1.249,0,0,0,0,2.5h3.332a1.249,1.249,0,1,0,0-2.5Z" transform="translate(-191.017 -327.62)" fill="#fff"/>
      <path id="Path_398" data-name="Path 398" d="M309.905,393.105h-3.332a1.249,1.249,0,1,0,0,2.5h3.332a1.249,1.249,0,1,0,0-2.5Z" transform="translate(-224.353 -327.62)" fill="#fff"/>
      <path id="Path_399" data-name="Path 399" d="M109.905,393.105h-3.332a1.249,1.249,0,1,0,0,2.5h3.332a1.249,1.249,0,1,0,0-2.5Z" transform="translate(-57.67 -327.62)" fill="#fff"/>
      <path id="Path_400" data-name="Path 400" d="M189.905,393.105h-3.332a1.249,1.249,0,0,0,0,2.5h3.332a1.249,1.249,0,1,0,0-2.5Z" transform="translate(-124.343 -327.62)" fill="#fff"/>
      <path id="Path_401" data-name="Path 401" d="M149.905,393.105h-3.332a1.249,1.249,0,1,0,0,2.5h3.332a1.249,1.249,0,1,0,0-2.5Z" transform="translate(-91.007 -327.62)" fill="#fff"/>
      <path id="Path_402" data-name="Path 402" d="M43.7,178.58a1.25,1.25,0,0,0-.495-1l-5.072-3.842a1.25,1.25,0,0,0-2,1v7.684a1.25,1.25,0,0,0,2,1l5.072-3.842A1.25,1.25,0,0,0,43.7,178.58Zm-5.072,1.328v-2.656l1.753,1.328Z" transform="translate(0 -144.588)" fill="#fff"/>
    </g>
    <path id="Path_425" data-name="Path 425" d="M9925,11024l6-7,5.5-13.5,7-7.5" fill="none" stroke="#fff" stroke-linecap="round" stroke-linejoin="round" stroke-width="3"/>
    <line id="Line_1054" data-name="Line 1054" x2="19" transform="translate(9962.5 10996.5)" fill="none" stroke="#fff" stroke-width="2"/>
    <line id="Line_1055" data-name="Line 1055" x2="19" transform="translate(9962.5 11005.5)" fill="none" stroke="#fff" stroke-width="2"/>
    <line id="Line_1058" data-name="Line 1058" x2="19" transform="translate(9962.5 11015.5)" fill="none" stroke="#fff" stroke-width="2"/>
    <line id="Line_1057" data-name="Line 1057" x2="19" transform="translate(9962.5 11024.5)" fill="none" stroke="#fff" stroke-width="2"/>
  </g>
</svg>
