<svg xmlns="http://www.w3.org/2000/svg" width="68.301" height="54.008" viewBox="0 0 68.301 54.008">
  <g id="Group_1219" data-name="Group 1219" transform="translate(-9810.873 -10987.971)">
    <g id="page-break-svgrepo-com" transform="translate(9810.873 11078.105) rotate(-90)">
      <path id="Path_389" data-name="Path 389" d="M145.968,2.5H149.3a1.249,1.249,0,1,0,0-2.5h-3.332a1.249,1.249,0,1,0,0,2.5Z" transform="translate(-90.502)"/>
      <path id="Path_390" data-name="Path 390" d="M105.968,2.5H109.3a1.249,1.249,0,1,0,0-2.5h-3.332a1.249,1.249,0,1,0,0,2.5Z" transform="translate(-57.166)"/>
      <path id="Path_391" data-name="Path 391" d="M185.968,2.5H189.3a1.249,1.249,0,1,0,0-2.5h-3.332a1.249,1.249,0,0,0,0,2.5Z" transform="translate(-123.839)"/>
      <path id="Path_392" data-name="Path 392" d="M265.968,2.5H269.3a1.249,1.249,0,1,0,0-2.5h-3.332a1.249,1.249,0,1,0,0,2.5Z" transform="translate(-190.512)"/>
      <path id="Path_393" data-name="Path 393" d="M225.968,2.5H229.3a1.249,1.249,0,1,0,0-2.5h-3.332a1.249,1.249,0,1,0,0,2.5Z" transform="translate(-157.176)"/>
      <path id="Path_394" data-name="Path 394" d="M305.968,2.5H309.3a1.249,1.249,0,1,0,0-2.5h-3.332a1.249,1.249,0,1,0,0,2.5Z" transform="translate(-223.849)"/>
      <path id="Path_396" data-name="Path 396" d="M229.905,393.105h-3.332a1.249,1.249,0,1,0,0,2.5h3.332a1.249,1.249,0,1,0,0-2.5Z" transform="translate(-157.68 -327.62)"/>
      <path id="Path_397" data-name="Path 397" d="M269.905,393.105h-3.332a1.249,1.249,0,0,0,0,2.5h3.332a1.249,1.249,0,1,0,0-2.5Z" transform="translate(-191.017 -327.62)"/>
      <path id="Path_398" data-name="Path 398" d="M309.905,393.105h-3.332a1.249,1.249,0,1,0,0,2.5h3.332a1.249,1.249,0,1,0,0-2.5Z" transform="translate(-224.353 -327.62)"/>
      <path id="Path_399" data-name="Path 399" d="M109.905,393.105h-3.332a1.249,1.249,0,1,0,0,2.5h3.332a1.249,1.249,0,1,0,0-2.5Z" transform="translate(-57.67 -327.62)"/>
      <path id="Path_400" data-name="Path 400" d="M189.905,393.105h-3.332a1.249,1.249,0,0,0,0,2.5h3.332a1.249,1.249,0,1,0,0-2.5Z" transform="translate(-124.343 -327.62)"/>
      <path id="Path_401" data-name="Path 401" d="M149.905,393.105h-3.332a1.249,1.249,0,1,0,0,2.5h3.332a1.249,1.249,0,1,0,0-2.5Z" transform="translate(-91.007 -327.62)"/>
      <path id="Path_402" data-name="Path 402" d="M43.7,178.58a1.25,1.25,0,0,0-.495-1l-5.072-3.842a1.25,1.25,0,0,0-2,1v7.684a1.25,1.25,0,0,0,2,1l5.072-3.842A1.25,1.25,0,0,0,43.7,178.58Zm-5.072,1.328v-2.656l1.753,1.328Z" transform="translate(0 -144.588)"/>
      <path id="Path_403" data-name="Path 403" d="M145.968,2.5H149.3a1.249,1.249,0,1,0,0-2.5h-3.332a1.249,1.249,0,1,0,0,2.5Z" transform="translate(89.95 -135.556) rotate(90)"/>
      <path id="Path_416" data-name="Path 416" d="M145.968,2.5H149.3a1.249,1.249,0,1,0,0-2.5h-3.332a1.249,1.249,0,1,0,0,2.5Z" transform="translate(47.469 -135.556) rotate(90)"/>
      <path id="Path_409" data-name="Path 409" d="M145.968,2.5H149.3a1.249,1.249,0,1,0,0-2.5h-3.332a1.249,1.249,0,1,0,0,2.5Z" transform="translate(90.134 -95.575) rotate(90)"/>
      <path id="Path_414" data-name="Path 414" d="M145.968,2.5H149.3a1.249,1.249,0,1,0,0-2.5h-3.332a1.249,1.249,0,1,0,0,2.5Z" transform="translate(47.654 -95.575) rotate(90)"/>
      <path id="Path_404" data-name="Path 404" d="M105.968,2.5H109.3a1.249,1.249,0,1,0,0-2.5h-3.332a1.249,1.249,0,1,0,0,2.5Z" transform="translate(89.95 -102.22) rotate(90)"/>
      <path id="Path_417" data-name="Path 417" d="M105.968,2.5H109.3a1.249,1.249,0,1,0,0-2.5h-3.332a1.249,1.249,0,1,0,0,2.5Z" transform="translate(47.469 -102.22) rotate(90)"/>
      <path id="Path_410" data-name="Path 410" d="M105.968,2.5H109.3a1.249,1.249,0,1,0,0-2.5h-3.332a1.249,1.249,0,1,0,0,2.5Z" transform="translate(90.134 -62.239) rotate(90)"/>
      <path id="Path_415" data-name="Path 415" d="M105.968,2.5H109.3a1.249,1.249,0,1,0,0-2.5h-3.332a1.249,1.249,0,1,0,0,2.5Z" transform="translate(47.654 -62.239) rotate(90)"/>
      <path id="Path_405" data-name="Path 405" d="M185.968,2.5H189.3a1.249,1.249,0,1,0,0-2.5h-3.332a1.249,1.249,0,0,0,0,2.5Z" transform="translate(89.95 -168.893) rotate(90)"/>
      <path id="Path_418" data-name="Path 418" d="M185.968,2.5H189.3a1.249,1.249,0,1,0,0-2.5h-3.332a1.249,1.249,0,0,0,0,2.5Z" transform="translate(47.469 -168.893) rotate(90)"/>
      <path id="Path_411" data-name="Path 411" d="M185.968,2.5H189.3a1.249,1.249,0,1,0,0-2.5h-3.332a1.249,1.249,0,0,0,0,2.5Z" transform="translate(90.134 -128.912) rotate(90)"/>
      <path id="Path_419" data-name="Path 419" d="M185.968,2.5H189.3a1.249,1.249,0,1,0,0-2.5h-3.332a1.249,1.249,0,0,0,0,2.5Z" transform="translate(47.654 -128.912) rotate(90)"/>
      <path id="Path_406" data-name="Path 406" d="M265.968,2.5H269.3a1.249,1.249,0,1,0,0-2.5h-3.332a1.249,1.249,0,1,0,0,2.5Z" transform="translate(89.95 -235.566) rotate(90)"/>
      <path id="Path_420" data-name="Path 420" d="M265.968,2.5H269.3a1.249,1.249,0,1,0,0-2.5h-3.332a1.249,1.249,0,1,0,0,2.5Z" transform="translate(47.469 -235.566) rotate(90)"/>
      <path id="Path_407" data-name="Path 407" d="M225.968,2.5H229.3a1.249,1.249,0,1,0,0-2.5h-3.332a1.249,1.249,0,1,0,0,2.5Z" transform="translate(89.95 -202.229) rotate(90)"/>
      <path id="Path_421" data-name="Path 421" d="M225.968,2.5H229.3a1.249,1.249,0,1,0,0-2.5h-3.332a1.249,1.249,0,1,0,0,2.5Z" transform="translate(47.469 -202.229) rotate(90)"/>
      <path id="Path_413" data-name="Path 413" d="M225.968,2.5H229.3a1.249,1.249,0,1,0,0-2.5h-3.332a1.249,1.249,0,1,0,0,2.5Z" transform="translate(90.134 -162.249) rotate(90)"/>
      <path id="Path_423" data-name="Path 423" d="M225.968,2.5H229.3a1.249,1.249,0,1,0,0-2.5h-3.332a1.249,1.249,0,1,0,0,2.5Z" transform="translate(47.654 -162.249) rotate(90)"/>
      <path id="Path_408" data-name="Path 408" d="M305.968,2.5H309.3a1.249,1.249,0,1,0,0-2.5h-3.332a1.249,1.249,0,1,0,0,2.5Z" transform="translate(89.95 -268.903) rotate(90)"/>
      <path id="Path_422" data-name="Path 422" d="M305.968,2.5H309.3a1.249,1.249,0,1,0,0-2.5h-3.332a1.249,1.249,0,1,0,0,2.5Z" transform="translate(47.469 -268.903) rotate(90)"/>
    </g>
    <path id="Path_424" data-name="Path 424" d="M9821,11023.5l11-11h12l14.5-12.5,15-3.5" transform="translate(-2.227 3)" fill="none" stroke="#707070" stroke-linecap="round" stroke-linejoin="round" stroke-width="3"/>
  </g>
</svg>
