<svg id="Group_614" data-name="Group 614" xmlns="http://www.w3.org/2000/svg" width="34" height="34" viewBox="0 0 34 34">
  <rect id="Rectangle_9_copy_7" data-name="Rectangle 9 copy 7" width="34" height="34" rx="5" fill="#e7edf6" style="mix-blend-mode: multiply;isolation: isolate"/>
  <g id="exportarrow-export-logout-exit-close-svgrepo-com" transform="translate(8.025 8)">
    <path id="exportarrow-export-logout-exit-close-svgrepo-com-2" data-name="exportarrow-export-logout-exit-close-svgrepo-com" d="M49.769,43.063h1.213v6.468A1.971,1.971,0,0,1,49.014,51.5H36.078a1.971,1.971,0,0,1-1.968-1.968V36.594a1.971,1.971,0,0,1,1.968-1.967h6.468v1.213H36.078a.756.756,0,0,0-.755.754V49.532a.756.756,0,0,0,.755.755H49.014a.756.756,0,0,0,.755-.755ZM46.978,33.5v1.213h3.009L42.822,41.88l.858.858,7.167-7.167v3.009h1.213V33.5Z" transform="translate(-34.11 -33.5)" fill="#010101" stroke="#010101" stroke-width="1"/>
  </g>
</svg>
