<svg xmlns="http://www.w3.org/2000/svg" width="18.707" height="10.811" viewBox="0 0 18.707 10.811">
  <g id="view-svgrepo-com_1_" data-name="view-svgrepo-com (1)" transform="translate(0.354 0.25)">
    <path id="Path_10" data-name="Path 10" d="M15.525,15.355a9.281,9.281,0,0,0-13.111,0L0,17.77l2.474,2.474a9.281,9.281,0,0,0,13.111,0L18,17.829Zm-.37,4.459a8.673,8.673,0,0,1-12.251,0L.86,17.77l1.985-1.985a8.673,8.673,0,0,1,12.251,0l2.044,2.044Z" transform="translate(0 -12.644)" fill="#5e980a" stroke="#5e980a" stroke-width="0.5"/>
    <path id="Path_11" data-name="Path 11" d="M23.7,21.57A2.131,2.131,0,0,0,21.572,23.7a.3.3,0,1,0,.608,0,1.522,1.522,0,0,1,1.52-1.52.3.3,0,0,0,0-.608Z" transform="translate(-15.013 -18.856)" fill="#5e980a" stroke="#5e980a" stroke-width="0.5"/>
    <path id="Path_12" data-name="Path 12" d="M20.525,16.57a3.953,3.953,0,1,0,3.953,3.953A3.957,3.957,0,0,0,20.525,16.57Zm0,7.3a3.345,3.345,0,1,1,3.345-3.345A3.348,3.348,0,0,1,20.525,23.867Z" transform="translate(-11.533 -15.376)" fill="#5e980a" stroke="#5e980a" stroke-width="0.5"/>
  </g>
</svg>
