<svg xmlns="http://www.w3.org/2000/svg" width="21.707" height="12.529" viewBox="0 0 21.707 12.529">
  <g id="Group_761" data-name="Group 761" transform="translate(-1451.402 -450.538)">
    <path id="Path_10" data-name="Path 10" d="M18.113,15.807a10.828,10.828,0,0,0-15.3,0L0,18.624,2.887,21.51a10.828,10.828,0,0,0,15.3,0L21,18.694Zm-.432,5.2a10.119,10.119,0,0,1-14.293,0L1,18.624l2.315-2.315a10.119,10.119,0,0,1,14.293,0L20,18.694Z" transform="translate(1451.756 438.144)" fill="#5e980a" stroke="#5e980a" stroke-width="0.5"/>
    <path id="Path_11" data-name="Path 11" d="M24.055,21.57a2.486,2.486,0,0,0-2.483,2.483.355.355,0,1,0,.709,0,1.776,1.776,0,0,1,1.774-1.774.355.355,0,0,0,0-.709Z" transform="translate(1437.836 432.384)" fill="#5e980a" stroke="#5e980a" stroke-width="0.5"/>
    <path id="Path_12" data-name="Path 12" d="M21.183,16.57a4.611,4.611,0,1,0,4.611,4.611A4.617,4.617,0,0,0,21.183,16.57Zm0,8.513a3.9,3.9,0,1,1,3.9-3.9A3.907,3.907,0,0,1,21.183,25.083Z" transform="translate(1441.062 435.611)" fill="#5e980a" stroke="#5e980a" stroke-width="0.5"/>
  </g>
</svg>
