<svg xmlns="http://www.w3.org/2000/svg" width="29.773" height="18.66" viewBox="0 0 29.773 18.66">
  <path id="Path_147" data-name="Path 147" d="M29.431,17.7c-.265-.338-6.574-8.276-14.544-8.276S.608,17.367.344,17.7a1.788,1.788,0,0,0,0,2.107c.264.34,6.574,8.277,14.544,8.277s14.279-7.938,14.544-8.275A1.8,1.8,0,0,0,29.431,17.7ZM14.887,25.089c-5.334,0-10-4.291-11.921-6.332,1.913-2.04,6.572-6.328,11.921-6.328,5.333,0,10,4.292,11.92,6.332C24.894,20.8,20.237,25.089,14.887,25.089Zm0-12.08c2.52,0,4.563,2.574,4.563,5.75s-2.043,5.75-4.563,5.75-4.563-2.574-4.563-5.75S12.366,13.009,14.887,13.009Z" transform="translate(0 -9.429)" fill="#0058a3"/>
</svg>
