<svg id="Group_57" data-name="Group 57" xmlns="http://www.w3.org/2000/svg" width="20" height="20" viewBox="0 0 20 20">
  <path id="Path_36" data-name="Path 36" d="M18.756,45.81H1.244A1.4,1.4,0,0,0,0,47.325v1.783a1.4,1.4,0,0,0,1.244,1.515h.582l6.428,7.829v6.854a.516.516,0,0,0,.256.467.351.351,0,0,0,.159.038.381.381,0,0,0,.293-.148L11.64,62.4a.566.566,0,0,0,.121-.357V58.451l6.428-7.829h.567A1.4,1.4,0,0,0,20,49.108V47.325A1.4,1.4,0,0,0,18.756,45.81Zm-7.7,12.075a.565.565,0,0,0-.121.361v3.587L9.083,64.086V58.244a.565.565,0,0,0-.121-.359L3,50.622H17.017Zm8.117-8.778a.467.467,0,0,1-.415.5H1.244a.467.467,0,0,1-.415-.5V47.325a.467.467,0,0,1,.415-.5H18.756a.467.467,0,0,1,.415.5v1.783Z" transform="translate(0 -45.81)"/>
</svg>
