<svg xmlns="http://www.w3.org/2000/svg" width="38" height="34" viewBox="0 0 38 34">
  <g id="Group_1133" data-name="Group 1133" transform="translate(-843 -204)">
    <rect id="Rounded_Rectangle_9" data-name="Rounded Rectangle 9" width="38" height="34" rx="5" transform="translate(843 204)" fill="#dfe7f3"/>
    <path id="users-more-svgrepo-com" d="M18,19V18a4,4,0,0,0-4-4H10a4,4,0,0,0-4,4v1m17,0V18a4,4,0,0,0-4-4h-.5M1,19V18a4,4,0,0,1,4-4h.5M17,11a3,3,0,0,0,0-6M7,11A3,3,0,0,1,7,5m8,3a3,3,0,1,1-3-3A3,3,0,0,1,15,8Z" transform="translate(850.5 209.5)" fill="none" stroke="#000" stroke-linecap="round" stroke-linejoin="round" stroke-width="1.5"/>
  </g>
</svg>
