<svg xmlns="http://www.w3.org/2000/svg" width="24.546" height="20.576" viewBox="0 0 24.546 20.576">
  <g id="group-svgrepo-com" transform="translate(0 -38.48)" style="isolation: isolate">
    <g id="Group_741" data-name="Group 741" transform="translate(0 38.48)">
      <g id="Group_740" data-name="Group 740" transform="translate(0 0)">
        <path id="Path_208" data-name="Path 208" d="M151.549,63.357a6.8,6.8,0,0,0,1.262,3.725,3.564,3.564,0,0,0,6.387,0,6.8,6.8,0,0,0,1.262-3.725,4.455,4.455,0,0,0-8.911,0ZM156,59.676a3.686,3.686,0,0,1,3.682,3.682,6.086,6.086,0,0,1-1.121,3.281,2.809,2.809,0,0,1-5.12,0,6.086,6.086,0,0,1-1.121-3.281A3.686,3.686,0,0,1,156,59.676Z" transform="translate(-143.732 -57.849)"/>
        <path id="Path_209" data-name="Path 209" d="M98.889,238.476a.387.387,0,0,0-.439.075,3.815,3.815,0,0,1-5.77,0,.387.387,0,0,0-.44-.075,7.742,7.742,0,0,0-4.418,6.994v.006a.387.387,0,0,0,.127.287,11.34,11.34,0,0,0,15.231,0,.387.387,0,0,0,.127-.287v-.006a7.742,7.742,0,0,0-4.418-6.994Zm-3.325,9.45A10.54,10.54,0,0,1,88.6,245.3a6.968,6.968,0,0,1,3.738-6.012,4.533,4.533,0,0,0,6.458,0,6.967,6.967,0,0,1,3.738,6.012A10.54,10.54,0,0,1,95.564,247.927Z" transform="translate(-83.292 -228.124)"/>
        <path id="Path_210" data-name="Path 210" d="M314.931,198.245a6.761,6.761,0,0,0-2.779-2.445.387.387,0,0,0-.439.075A3.492,3.492,0,0,1,309.255,197a3.078,3.078,0,0,1-1.386-.338.387.387,0,1,0-.346.692,3.845,3.845,0,0,0,1.732.42,4.16,4.16,0,0,0,2.8-1.157,5.973,5.973,0,0,1,3.171,5.112,9.133,9.133,0,0,1-3.3,1.838.387.387,0,1,0,.227.74,9.909,9.909,0,0,0,3.718-2.119A.387.387,0,0,0,316,201.9V201.9A6.725,6.725,0,0,0,314.931,198.245Z" transform="translate(-291.456 -187.649)"/>
        <path id="Path_211" data-name="Path 211" d="M58.863,47.352a2.711,2.711,0,0,0,1.213-.3.387.387,0,1,0-.344-.693,1.946,1.946,0,0,1-.869.216,2.842,2.842,0,0,1-2.165-1.4,5.194,5.194,0,0,1-.957-2.8,3.122,3.122,0,0,1,5.289-2.247.387.387,0,1,0,.537-.557,3.9,3.9,0,0,0-6.6,2.8,5.919,5.919,0,0,0,1.1,3.244A3.538,3.538,0,0,0,58.863,47.352Z" transform="translate(-52.132 -38.48)"/>
        <path id="Path_212" data-name="Path 212" d="M3.148,203.209a9.044,9.044,0,0,1-2.372-1.5,5.957,5.957,0,0,1,3.162-5.1,4.148,4.148,0,0,0,2.793,1.154,3.839,3.839,0,0,0,1.745-.427.387.387,0,0,0-.349-.691,3.073,3.073,0,0,1-1.4.344,3.48,3.48,0,0,1-2.45-1.122.387.387,0,0,0-.44-.075A6.731,6.731,0,0,0,0,201.88v.005a.387.387,0,0,0,.127.287,9.821,9.821,0,0,0,2.715,1.749.387.387,0,1,0,.306-.711Z" transform="translate(0 -187.649)"/>
        <path id="Path_213" data-name="Path 213" d="M69.311,346.7a.386.386,0,1,0,.714,0A.389.389,0,0,0,69.311,346.7Z" transform="translate(-65.708 -330.581)"/>
        <path id="Path_214" data-name="Path 214" d="M83.65,350.878c.01.023-.009-.024,0,0Z" transform="translate(-79.332 -334.757)"/>
        <path id="Path_215" data-name="Path 215" d="M291.293,40.129a3.122,3.122,0,0,1,5.289,2.247,5.193,5.193,0,0,1-.958,2.8,2.842,2.842,0,0,1-2.165,1.4,1.945,1.945,0,0,1-.869-.216.387.387,0,0,0-.344.693,2.712,2.712,0,0,0,1.213.3,3.538,3.538,0,0,0,2.8-1.732,5.919,5.919,0,0,0,1.1-3.244,3.9,3.9,0,0,0-6.6-2.8.387.387,0,0,0,.537.557Z" transform="translate(-275.645 -38.481)"/>
      </g>
    </g>
  </g>
</svg>
