<svg xmlns="http://www.w3.org/2000/svg" width="18" height="18.007" viewBox="0 0 18 18.007">
  <path id="Path_38" data-name="Path 38" d="M16.494,1.6a5.456,5.456,0,0,0-8.9,5.929L.1,15.02.089,18l5.367.006V15.938H7.524V13.87H9.592V11.475l.973-.973a5.493,5.493,0,0,0,2.072.407A5.455,5.455,0,0,0,16.494,1.6Zm-.788,6.927A4.312,4.312,0,0,1,12.637,9.8a4.363,4.363,0,0,1-1.944-.458l-.359-.18L8.478,11.014v1.742H6.41v2.068H4.342v2.067l-3.137,0,0-1.405L8.933,7.757,8.753,7.4a4.342,4.342,0,1,1,6.953,1.126Z" transform="translate(-0.089)" fill="#5e980a"/>
</svg>
