<svg id="Link" xmlns="http://www.w3.org/2000/svg" width="18" height="18" viewBox="0 0 18 18">
  <g id="link-svgrepo-com">
    <g id="Group_13" data-name="Group 13">
      <g id="Group_12" data-name="Group 12">
        <path id="Path_8" data-name="Path 8" d="M7.663,185.643,5.487,187.82a2.309,2.309,0,1,1-3.265-3.264L6.575,180.2a2.308,2.308,0,0,1,3.264,0,.77.77,0,1,0,1.088-1.088,3.847,3.847,0,0,0-5.441,0l-4.353,4.353a3.848,3.848,0,1,0,5.442,5.441l2.176-2.176a.77.77,0,1,0-1.088-1.088Z" transform="translate(-0.007 -172.035)" fill="#5e980a"/>
        <path id="Path_9" data-name="Path 9" d="M201.39,1.126a3.848,3.848,0,0,0-5.442,0l-2.611,2.611a.77.77,0,0,0,1.088,1.088l2.611-2.611A2.309,2.309,0,1,1,200.3,5.479l-4.788,4.788a2.308,2.308,0,0,1-3.264,0,.77.77,0,0,0-1.088,1.088,3.847,3.847,0,0,0,5.441,0l4.788-4.788A3.847,3.847,0,0,0,201.39,1.126Z" transform="translate(-184.517 0)" fill="#5e980a"/>
      </g>
    </g>
  </g>
</svg>
