<svg xmlns="http://www.w3.org/2000/svg" width="17.2" height="19.539" viewBox="0 0 17.2 19.539">
  <g id="finances-svgrepo-com" transform="translate(-41.569 -57.224)">
    <g id="Group_770" data-name="Group 770" transform="translate(54.031 76.762)">
      <path id="Path_220" data-name="Path 220" d="M422.6,487.8" transform="translate(-422.6 -487.8)" fill="none" stroke="#000" stroke-linecap="round" stroke-linejoin="round" stroke-miterlimit="10" stroke-width="66.666"/>
    </g>
    <g id="Group_772" data-name="Group 772" transform="translate(41.569 57.224)">
      <g id="Group_771" data-name="Group 771">
        <path id="Path_222" data-name="Path 222" d="M225,164.5c-4.17,0-8.6,1.232-8.6,3.515v11.443c0,2.284,4.43,3.515,8.6,3.515,4.273,0,8.6-1.208,8.6-3.515V168.015C233.6,165.708,229.273,164.5,225,164.5Zm7.337,14.958c0,.927-2.859,2.272-7.343,2.272s-7.343-1.345-7.343-2.272v-1.919c1.614,1.058,4.539,1.62,7.343,1.62,2.865,0,5.747-.544,7.343-1.59Zm0-3.814c0,.927-2.859,2.272-7.343,2.272s-7.343-1.345-7.343-2.272v-1.919c1.614,1.058,4.539,1.62,7.343,1.62,2.865,0,5.747-.544,7.343-1.59Zm0-3.814c0,.927-2.859,2.272-7.343,2.272s-7.343-1.345-7.343-2.272v-1.919c1.614,1.058,4.539,1.62,7.343,1.62,2.865,0,5.747-.544,7.343-1.59ZM225,170.287c-4.484,0-7.343-1.345-7.343-2.272s2.859-2.272,7.343-2.272,7.343,1.345,7.343,2.272S229.478,170.287,225,170.287Z" transform="translate(-216.4 -164.5)" fill="#231f20"/>
        <path id="Path_223" data-name="Path 223" d="M331.383,194.2a4.35,4.35,0,0,0-1.572-.439v-1.02a.727.727,0,0,1,.574.417l1.214-.089a1.085,1.085,0,0,0-.574-.626,3.035,3.035,0,0,0-1.214-.283V191.9h-.693v.261a2.958,2.958,0,0,0-1.326.335.833.833,0,0,0-.5.723.871.871,0,0,0,.439.723,3.428,3.428,0,0,0,1.378.439v1.095a1.5,1.5,0,0,1-.469-.216.817.817,0,0,1-.29-.358l-1.251.074a1.293,1.293,0,0,0,.663.8,3.311,3.311,0,0,0,1.348.335v.477h.693v-.492a3.316,3.316,0,0,0,1.46-.395.942.942,0,0,0,.529-.8A.785.785,0,0,0,331.383,194.2Zm-2.272-.566a1.269,1.269,0,0,1-.469-.194.333.333,0,0,1-.156-.261.346.346,0,0,1,.171-.276,1.114,1.114,0,0,1,.454-.179Zm1.289,1.691a1.277,1.277,0,0,1-.588.179v-1.02a1.625,1.625,0,0,1,.618.194.355.355,0,0,1,.186.3A.388.388,0,0,1,330.4,195.326Z" transform="translate(-320.852 -189.859)" fill="#231f20"/>
      </g>
    </g>
  </g>
</svg>
