<svg id="paste-svgrepo-com" xmlns="http://www.w3.org/2000/svg" width="20.967" height="24" viewBox="0 0 20.967 24">
  <g id="Group_56" data-name="Group 56" transform="translate(0)">
    <g id="Group_55" data-name="Group 55">
      <path id="Path_30" data-name="Path 30" d="M52.549,9.092,49.18,5.723a.478.478,0,0,0-.338-.14h-1.1V2.343a.478.478,0,0,0-.478-.478h-5.5V1.749A1.751,1.751,0,0,0,40.013,0h-.565A1.751,1.751,0,0,0,37.7,1.749v.115H32.2a.478.478,0,0,0-.478.478V20.8a.478.478,0,0,0,.478.478h7v2.247a.478.478,0,0,0,.478.478H52.211a.478.478,0,0,0,.478-.478V9.43A.478.478,0,0,0,52.549,9.092ZM49.32,7.215l1.737,1.737H49.32Zm-12.2-4.395h2.247a.478.478,0,1,0,0-.956h-.717V1.749a.794.794,0,0,1,.793-.793h.565a.794.794,0,0,1,.793.793v.593a.478.478,0,0,0,.478.478h1.052v.956H37.124Zm2.552,2.762a.478.478,0,0,0-.478.478V20.319h-6.52V2.821h3.49V4.255a.478.478,0,0,0,.478.478h6.167a.478.478,0,0,0,.478-.478V2.821h3.49V5.583ZM51.733,23.044H40.155V6.539h8.209V9.43a.478.478,0,0,0,.478.478h2.891V23.044Z" transform="translate(-31.722)" fill="#131523"/>
      <path id="Path_31" data-name="Path 31" d="M234.427,234.424h6a.478.478,0,0,0,0-.956h-6a.478.478,0,0,0,0,.956Z" transform="translate(-224.281 -222.306)" fill="#131523"/>
      <path id="Path_32" data-name="Path 32" d="M242.578,283.478h-8.151a.478.478,0,0,0,0,.956h8.151a.478.478,0,0,0,0-.956Z" transform="translate(-224.281 -269.925)" fill="#131523"/>
      <path id="Path_33" data-name="Path 33" d="M242.578,333.487h-8.151a.478.478,0,0,0,0,.956h8.151a.478.478,0,0,0,0-.956Z" transform="translate(-224.281 -317.543)" fill="#131523"/>
      <path id="Path_34" data-name="Path 34" d="M242.578,383.5h-8.151a.478.478,0,0,0,0,.956h8.151a.478.478,0,0,0,0-.956Z" transform="translate(-224.281 -365.163)" fill="#131523"/>
      <path id="Path_35" data-name="Path 35" d="M388.245,234.424h.8a.478.478,0,0,0,0-.956h-.8a.478.478,0,1,0,0,.956Z" transform="translate(-370.745 -222.306)" fill="#131523"/>
    </g>
  </g>
</svg>
