<svg xmlns="http://www.w3.org/2000/svg" width="34" height="34" viewBox="0 0 34 34">
  <g id="print_icon" transform="translate(-1364 -244)">
    <rect id="Rounded_Rectangle_9_copy_9" data-name="Rounded Rectangle 9 copy 9" width="34" height="34" rx="5" transform="translate(1364 244)" fill="#e7edf6"/>
    <path id="print-svgrepo-com" d="M3.5,12.5h-2a1,1,0,0,1-1-1v-4a1,1,0,0,1,1-1h12a1,1,0,0,1,1,1v4a1,1,0,0,1-1,1h-2m-8-6v-5a1,1,0,0,1,1-1h6a1,1,0,0,1,1,1v5m-8,4s6-1,8,0,0,4,0,4h-8Z" transform="translate(1375 255)" fill="none" stroke="#000" stroke-width="1"/>
  </g>
</svg>
