<svg xmlns="http://www.w3.org/2000/svg" width="34" height="34" viewBox="0 0 34 34">
  <g id="reload_icon" transform="translate(-1408 -244)">
    <g id="Group_909" data-name="Group 909" transform="translate(286.113 -154)">
      <g id="Group_878" data-name="Group 878">
        <g id="Group_614" data-name="Group 614" transform="translate(1121.887 398)">
          <rect id="Rectangle_9_copy_7" data-name="Rectangle 9 copy 7" width="34" height="34" rx="5" fill="#e7edf6" style="mix-blend-mode: multiply;isolation: isolate"/>
        </g>
      </g>
    </g>
    <g id="refresh-svgrepo-com" transform="translate(1415.58 253.617)">
      <path id="Path_233" data-name="Path 233" d="M4.481,3.675A6.084,6.084,0,0,1,9.407,1.16a5.947,5.947,0,0,1,6.006,5.872H16.6A7.122,7.122,0,0,0,9.407,0,7.287,7.287,0,0,0,5.516,1.117,7.151,7.151,0,0,0,3.629,2.845L2.081,1.339V5.723h4.5Z" fill="#354052"/>
      <path id="Path_234" data-name="Path 234" d="M29.05,203.184h-4.5l2.1,2.048a6.084,6.084,0,0,1-4.926,2.515,5.947,5.947,0,0,1-6.006-5.872H14.531a7.122,7.122,0,0,0,7.192,7.032,7.287,7.287,0,0,0,3.891-1.117,7.152,7.152,0,0,0,1.888-1.729l1.548,1.506v-4.383Z" transform="translate(-11.969 -193.743)" fill="#354052"/>
    </g>
  </g>
</svg>
