<svg id="select-svgrepo-com_1_" data-name="select-svgrepo-com (1)" xmlns="http://www.w3.org/2000/svg" width="16" height="16" viewBox="0 0 16 16">
  <path id="select-svgrepo-com_1_2" data-name="select-svgrepo-com (1)" d="M127.36,112H112.64a.639.639,0,0,0-.64.64v14.72a.639.639,0,0,0,.64.64h7.2a.16.16,0,0,0,.16-.16v-1.12a.16.16,0,0,0-.16-.16h-6.4V113.44h13.12v6.4a.16.16,0,0,0,.16.16h1.12a.16.16,0,0,0,.16-.16v-7.2A.639.639,0,0,0,127.36,112Zm-4.534,9.748,1.044-1.044a.16.16,0,0,0-.094-.272l-3.588-.42a.16.16,0,0,0-.178.178l.42,3.588a.16.16,0,0,0,.272.094l1.048-1.048,5.124,5.124a.161.161,0,0,0,.226,0l.848-.848a.161.161,0,0,0,0-.226Z" transform="translate(-112 -112)"/>
</svg>
