<svg id="Settings-2-svgrepo-com" xmlns="http://www.w3.org/2000/svg" xmlns:xlink="http://www.w3.org/1999/xlink" width="20" height="20" viewBox="0 0 20 20">
  <defs>
    <clipPath id="clip-path">
      <rect id="Rectangle_29" data-name="Rectangle 29" width="20" height="20" transform="translate(0.777)" fill="#fff"/>
    </clipPath>
  </defs>
  <g id="setting-2-svgrepo-com" transform="translate(-0.777)" clip-path="url(#clip-path)">
    <path id="Path_30" data-name="Path 30" d="M20.236,8.034c-.219,0-.435,0-.608,0h-.115L18.418,5.987c.065-.076.133-.153.2-.233.2-.232.413-.472.607-.731a.717.717,0,0,0-.053-.985l-.018-.018c-.693-.7-1.41-1.432-2.146-2.114a.813.813,0,0,0-.579-.272A.915.915,0,0,0,15.824,2c-.159.176-.312.351-.475.537l-.161.185a3.455,3.455,0,0,0-1.95-.943c0-.05,0-.1,0-.147,0-.157,0-.305,0-.457C13.192.3,12.945.065,12.086.065h-.007C11.542.065,11,.084,10.469.1c-.251.009-.5.018-.752.024a.628.628,0,0,0-.666.6c-.029.245-.047.491-.064.707-.005.069-.01.135-.015.2l-1.938,1.1-.121-.15c-.134-.166-.272-.337-.422-.5a.933.933,0,0,0-.633-.367A.892.892,0,0,0,5.222,2c-.63.588-1.232,1.175-1.788,1.746a.928.928,0,0,0-.077,1.4c.142.193.3.376.428.522l.1.12L3.024,8.117l-.273.023c-.252.021-.513.042-.772.077a.641.641,0,0,0-.657.741c0,.906.01,1.66.029,2.374a.767.767,0,0,0,.221.583.779.779,0,0,0,.627.14c.156-.017.312-.038.468-.058l.041-.005a.086.086,0,0,0,.007.026l.978,2.133-.378.289-.413.316a.706.706,0,0,0-.223,1.05c.417.634.908,1.366,1.452,2.035.481.592.872.634,1.547.169.281-.194.561-.389.843-.587l.33-.231a3.463,3.463,0,0,0,2.283.84c-.007.069-.015.135-.022.2-.021.189-.039.352-.051.518a1.122,1.122,0,0,0,.19.877,1.078,1.078,0,0,0,.827.242h.027c.562,0,1.133-.014,1.685-.023l.684-.012a.771.771,0,0,0,.863-.953c-.018-.218-.038-.436-.056-.632l-.016-.177,1.7-.716L15,17.4c.063.086.127.174.191.261.032.044.063.089.093.133.055.08.113.163.175.242a.8.8,0,0,0,1.086.267,1.807,1.807,0,0,0,.412-.241l.435-.361c.592-.491,1.2-1,1.786-1.522a.956.956,0,0,0,.395-.647,1.018,1.018,0,0,0-.368-.708c-.192-.2-.385-.4-.562-.585l-.178-.185,1.121-2.142.148-.014c.177-.016.4-.037.614-.062.463-.055.628-.206.735-.675a5.64,5.64,0,0,0-.123-2.59A.664.664,0,0,0,20.236,8.034Zm-1.922,3.315a4.538,4.538,0,0,1-1.082,2.159.626.626,0,0,0,.021.838c.2.286.41.563.631.856l.24.319-1.913,1.523-.157-.188c-.151-.181-.293-.352-.443-.52-.4-.447-.608-.429-1.121-.134a6.9,6.9,0,0,1-1.278.547c-1.017.34-1.094.794-1.1,1.5,0,.09-.007.182-.013.281,0,.025,0,.05,0,.076H10.207l-.01-.227c-.009-.212-.019-.415-.029-.618-.029-.57-.149-.776-.766-.8a3.973,3.973,0,0,1-2.377-.829.722.722,0,0,0-.909.051c-.265.174-.525.354-.8.545L5,16.947,3.8,15.327l.221-.187c.209-.178.406-.345.614-.505.343-.264.371-.418.145-.789a5.044,5.044,0,0,1-.866-2.43c-.011-.33-.2-.5-.575-.516-.218-.007-.437-.006-.671,0H2.412L2.329,9.309l.347-.038c.3-.034.583-.066.864-.079a.584.584,0,0,0,.6-.55,5.806,5.806,0,0,1,.9-2.48.552.552,0,0,0,.006-.674q-.255-.37-.512-.738l-.157-.226L5.929,2.948l.183.178c.178.174.362.354.546.529.361.343.464.3.842.043A10.137,10.137,0,0,1,9.021,2.81c.459-.2.87-.437.85-1.083a1.726,1.726,0,0,1,.055-.4c.011-.051.022-.1.032-.159H12.11c0,.044,0,.089,0,.134,0,.161.006.328-.005.491-.046.635.166.9.756.962a2.926,2.926,0,0,1,1.767.9c.318.3.494.355.846.076.235-.187.453-.383.683-.592l.239-.215,1.543,1.627-.116.121c-.159.165-.338.352-.516.548-.476.525-.479.722-.019,1.241a4.278,4.278,0,0,1,1,1.892.714.714,0,0,0,.736.625c.2.009.392.019.614.031l.256.014.091,1.7h-.239c-.213,0-.406,0-.6,0C18.644,10.73,18.426,10.893,18.313,11.349Z" transform="translate(-0.477 -0.057)"/>
    <path id="Path_31" data-name="Path 31" d="M46.866,38.116a5.133,5.133,0,0,0-5.5,6.114,4.609,4.609,0,0,0,3.056,3.735,4.475,4.475,0,0,0,1.512.246,7.237,7.237,0,0,0,1.276-.124c2.721-.488,4.219-2.4,4.217-5.387v0a4.7,4.7,0,0,0-.893-2.594A5.013,5.013,0,0,0,46.866,38.116Zm3.272,5.839a3.449,3.449,0,0,1-3.117,2.876,4.447,4.447,0,0,1-2.061-.031,3.284,3.284,0,0,1-2.344-2.751,6.273,6.273,0,0,1-.092-.78c-.009-.122-.018-.243-.031-.363a3.617,3.617,0,0,1,1.1-2.611,3.981,3.981,0,0,1,2.93-1.052,3.762,3.762,0,0,1,2.909,1.322A3.828,3.828,0,0,1,50.139,43.955Z" transform="translate(-35.431 -33.332)"/>
  </g>
</svg>
