<svg xmlns="http://www.w3.org/2000/svg" width="38" height="36" viewBox="0 0 38 36">
  <g id="Group_1218" data-name="Group 1218" transform="translate(-819 -203)">
    <rect id="Rectangle_1088" data-name="Rectangle 1088" width="38" height="36" rx="6" transform="translate(819 203)" fill="#dfe7f3"/>
    <g id="Group_1217" data-name="Group 1217">
      <g id="sort-svgrepo-com" transform="translate(829.467 213)">
        <g id="Group_1097" data-name="Group 1097" transform="translate(0.533 0)">
          <g id="Group_1216" data-name="Group 1216">
            <path id="Path_347" data-name="Path 347" d="M9.375,56.757a.715.715,0,0,0-.987.071L5.777,59.771V48.007a.705.705,0,0,0-1.411,0V59.771L1.756,56.828a.717.717,0,0,0-.987-.071.717.717,0,0,0-.071.987l3.846,4.3a.654.654,0,0,0,1.024,0l3.879-4.3A.712.712,0,0,0,9.375,56.757Z" transform="translate(-0.532 -45.698)" fill="#010101" stroke="#010101" stroke-width="0.5"/>
          </g>
          <path id="Path_348" data-name="Path 348" d="M230.047,4.568l-3.812-4.3a.661.661,0,0,0-1.058,0l-3.879,4.3a.715.715,0,0,0,.071.987.68.68,0,0,0,.987-.071l2.611-2.944V14.27a.709.709,0,0,0,.705.705.679.679,0,0,0,.705-.671V2.544l2.611,2.944a.7.7,0,1,0,1.058-.919Z" transform="translate(-213.652 0)" fill="#010101" stroke="#010101" stroke-width="0.5"/>
        </g>
      </g>
    </g>
  </g>
</svg>
