<svg xmlns="http://www.w3.org/2000/svg" width="16.446" height="14" viewBox="0 0 16.446 14">
  <g id="binoculars-svgrepo-com_1_" data-name="binoculars-svgrepo-com (1)" transform="translate(0 -36.3)">
    <g id="Group_744" data-name="Group 744" transform="translate(0 36.3)">
      <path id="Path_217" data-name="Path 217" d="M292.415,38.953a6.058,6.058,0,0,1,2.427-.515,5.625,5.625,0,0,1,1.382.168.257.257,0,0,0,.315-.284l-.063-.5h0a2,2,0,0,0-2.164-1.518c-1.182,0-2.311.709-2.311,1.587l.052.841A.261.261,0,0,0,292.415,38.953Z" transform="translate(-283.345 -36.3)" fill="#fff"/>
      <path id="Path_218" data-name="Path 218" d="M16.419,99.449,16.4,99.36c0-.006,0-.012,0-.018l-.623-2.9a2.2,2.2,0,0,0-1.388-1.613l-.3-2.106c0-.894-1.105-1.625-2.429-1.625s-2.584.725-2.584,1.622a.878.878,0,0,0,.01.133l.017.228a2.837,2.837,0,0,0-.879-.136,2.791,2.791,0,0,0-.886.139l.017-.231a.849.849,0,0,0,.01-.133c0-.894-1.264-1.622-2.584-1.622s-2.429.731-2.429,1.625l-.3,2.106A2.2,2.2,0,0,0,.667,96.443l-.623,2.9c0,.006,0,.012,0,.018l-.017.089h0A1.931,1.931,0,0,0,0,99.73c0,1.375,1.574,2.491,3.511,2.491S7.022,101.1,7.022,99.73h0V98.589a3.09,3.09,0,0,0,1.2.231,3.132,3.132,0,0,0,1.2-.228V99.73h0c0,1.375,1.574,2.491,3.511,2.491s3.511-1.116,3.511-2.491A2.555,2.555,0,0,0,16.419,99.449ZM3.511,101.324c-1.371,0-2.53-.731-2.53-1.594s1.159-1.594,2.53-1.594,2.53.731,2.53,1.594S4.882,101.324,3.511,101.324Zm4.714-3.293c-.576,0-1.045-.3-1.045-.666s.468-.666,1.045-.666,1.045.3,1.045.666S8.8,98.031,8.225,98.031Zm4.707,3.293c-1.371,0-2.53-.731-2.53-1.594s1.159-1.594,2.53-1.594,2.53.731,2.53,1.594S14.3,101.324,12.932,101.324Z" transform="translate(0 -88.221)" fill="#fff"/>
      <path id="Path_219" data-name="Path 219" d="M109.687,38.7a5.655,5.655,0,0,1,1.382-.168,6.04,6.04,0,0,1,2.427.515.255.255,0,0,0,.357-.221l.052-.841c0-.877-1.129-1.587-2.312-1.587a2,2,0,0,0-2.164,1.518h0l-.063.5A.258.258,0,0,0,109.687,38.7Z" transform="translate(-106.124 -36.395)" fill="#fff"/>
    </g>
  </g>
</svg>
