<svg xmlns="http://www.w3.org/2000/svg" width="22.088" height="14" viewBox="0 0 22.088 14">
  <g id="keyboard-svgrepo-com_2_" data-name="keyboard-svgrepo-com (2)" transform="translate(0 -89.6)">
    <g id="Group_790" data-name="Group 790" transform="translate(0 89.6)">
      <path id="Path_225" data-name="Path 225" d="M20.833,89.6H1.255A1.255,1.255,0,0,0,0,90.855v11.491A1.255,1.255,0,0,0,1.255,103.6H20.833a1.255,1.255,0,0,0,1.255-1.255V90.855A1.258,1.258,0,0,0,20.833,89.6Zm-7.027,2.636a.312.312,0,0,1,.311-.311h1.277a.312.312,0,0,1,.311.311V93.49a.312.312,0,0,1-.311.311H14.117a.312.312,0,0,1-.311-.311Zm-1.553,3.407h1.277a.312.312,0,0,1,.311.311v1.255a.312.312,0,0,1-.311.312H12.253a.312.312,0,0,1-.311-.312V95.955A.312.312,0,0,1,12.253,95.643ZM10.1,92.236a.312.312,0,0,1,.311-.311h1.277a.312.312,0,0,1,.311.311V93.49a.312.312,0,0,1-.311.311H10.407a.312.312,0,0,1-.311-.311V92.236ZM8.539,95.643H9.816a.312.312,0,0,1,.311.311v1.255a.312.312,0,0,1-.311.312H8.539a.312.312,0,0,1-.311-.312V95.955A.312.312,0,0,1,8.539,95.643ZM6.382,92.236a.312.312,0,0,1,.311-.311H7.97a.312.312,0,0,1,.311.311V93.49a.312.312,0,0,1-.311.311H6.693a.312.312,0,0,1-.311-.311Zm-3.732,0a.312.312,0,0,1,.311-.311H4.238a.312.312,0,0,1,.311.311V93.49a.312.312,0,0,1-.311.311H2.961a.312.312,0,0,1-.311-.311Zm1.9,8.729a.312.312,0,0,1-.311.312H2.961a.312.312,0,0,1-.311-.312V99.71a.312.312,0,0,1,.311-.311H4.238a.312.312,0,0,1,.311.311v1.255Zm1.534-3.443H4.807a.312.312,0,0,1-.311-.312V95.955a.312.312,0,0,1,.311-.311H6.084a.312.312,0,0,1,.311.311v1.255A.312.312,0,0,1,6.084,97.521Zm9.622,3.443a.312.312,0,0,1-.311.312H6.7a.312.312,0,0,1-.311-.312V99.71A.312.312,0,0,1,6.7,99.4h8.7a.312.312,0,0,1,.311.311Zm1.534-3.443H15.963a.312.312,0,0,1-.311-.312V95.955a.312.312,0,0,1,.311-.311H17.24a.312.312,0,0,1,.311.311v1.255A.312.312,0,0,1,17.24,97.521Zm2.2,3.443a.312.312,0,0,1-.311.312H17.85a.312.312,0,0,1-.311-.312V99.71a.312.312,0,0,1,.311-.311h1.277a.312.312,0,0,1,.311.311Zm0-7.474a.312.312,0,0,1-.311.311H17.85a.312.312,0,0,1-.311-.311V92.236a.312.312,0,0,1,.311-.311h1.277a.312.312,0,0,1,.311.311Z" transform="translate(0 -89.6)" fill="#fff"/>
    </g>
  </g>
</svg>
