<svg xmlns="http://www.w3.org/2000/svg" width="15.064" height="14" viewBox="0 0 15.064 14">
  <g id="lock-svgrepo-com" transform="translate(0 -17.2)">
    <g id="Group_743" data-name="Group 743" transform="translate(0 17.2)">
      <path id="Path_216" data-name="Path 216" d="M13.539,19.45A2.252,2.252,0,0,0,11.29,17.2H3.775a2.252,2.252,0,0,0-2.249,2.25v3.757H0V31.2H15.064V23.207H13.539V19.45ZM8.127,29.608H6.937V27.547a1.363,1.363,0,1,1,1.191,0v2.061Zm-4.82-6.4V19.45a.467.467,0,0,1,.467-.467h7.515a.467.467,0,0,1,.467.467v3.757Z" transform="translate(0 -17.2)" fill="#fff"/>
    </g>
  </g>
</svg>
