<svg xmlns="http://www.w3.org/2000/svg" width="15" height="15.639" viewBox="0 0 15 15.639">
  <g id="package-svgrepo-com_1_" data-name="package-svgrepo-com (1)" transform="translate(-9.546)">
    <g id="Group_950" data-name="Group 950" transform="translate(9.546 0)">
      <path id="Path_243" data-name="Path 243" d="M24.462,4.047,21.392.154A.4.4,0,0,0,21.078,0H13.017A.4.4,0,0,0,12.7.154L9.633,4.047a.392.392,0,0,0-.087.248V15.237a.4.4,0,0,0,.4.4h14.2a.4.4,0,0,0,.4-.4V4.295A.371.371,0,0,0,24.462,4.047ZM23.371,3.96H17.449V.8h3.434ZM13.211.8h3.434V3.96H10.724ZM10.349,14.836V4.763H23.742V14.836Z" transform="translate(-9.546 0)"/>
      <path id="Path_244" data-name="Path 244" d="M160.717,235.5l-2.691,2.691-1.118-1.118a.4.4,0,0,0-.569.569l1.4,1.4a.4.4,0,0,0,.285.117.409.409,0,0,0,.285-.117l2.972-2.973a.4.4,0,0,0,0-.569A.4.4,0,0,0,160.717,235.5Z" transform="translate(-151.311 -227.508)"/>
    </g>
  </g>
</svg>
