<svg xmlns="http://www.w3.org/2000/svg" width="16.289" height="16.289" viewBox="0 0 16.289 16.289">
  <path id="save-svgrepo-com" d="M16.153,2.851,13.448.136A.46.46,0,0,0,13.122,0H1.267A1.282,1.282,0,0,0,0,1.294v13.7a1.282,1.282,0,0,0,1.267,1.294H15.022a1.282,1.282,0,0,0,1.267-1.294V3.167a.425.425,0,0,0-.136-.317ZM1.81,4.525V2.715a.9.9,0,0,1,.9-.9h7.24a.9.9,0,0,1,.9.9v1.81a.9.9,0,0,1-.9.9H2.715A.9.9,0,0,1,1.81,4.525Zm6.335,9.954a3.62,3.62,0,1,1,3.62-3.62A3.62,3.62,0,0,1,8.145,14.479Z" transform="translate(0)" fill="#fff"/>
</svg>
