<svg xmlns="http://www.w3.org/2000/svg" width="19.308" height="19.605" viewBox="0 0 19.308 19.605">
  <path id="alternative-priorities-icon" d="M47.616,25a3.692,3.692,0,1,0,3.692,3.692A3.685,3.685,0,0,0,47.616,25Zm1.719,1.443.637.424L47,31.327l-2.368-2.364.543-.543,1.706,1.71Zm-5.763,4.12-5.02,3.475H32v1.528h6.552l5.02,3.475a4.446,4.446,0,0,1,.87-1.252L40.131,34.8l4.311-2.987A4.446,4.446,0,0,1,43.572,30.563Zm4.044,6.658a3.692,3.692,0,1,0,3.692,3.692A3.684,3.684,0,0,0,47.616,37.221ZM45.851,38.6l1.765,1.765L49.381,38.6l.543.543-1.765,1.765,1.765,1.765-.543.543-1.765-1.765-1.765,1.765-.543-.543,1.765-1.765-1.765-1.765Z" transform="translate(-32 -25)" fill="#fff"/>
</svg>
