<svg xmlns="http://www.w3.org/2000/svg" width="23.66" height="24.5" viewBox="0 0 23.66 24.5">
  <g id="Group_971" data-name="Group 971" transform="translate(-23.6 -229.554)">
    <path id="Path_49" data-name="Path 49" d="M20.227,14.1h3.846A1.228,1.228,0,0,0,25.3,12.873V12.35a.35.35,0,0,0-.7,0v.523a.527.527,0,0,1-.527.527H20.227a.527.527,0,0,1-.527-.527V12.35a.35.35,0,1,0-.7,0v.523A1.228,1.228,0,0,0,20.227,14.1Z" transform="translate(12.437 222.671)" fill="#131523" stroke="#131523" stroke-width="0.5"/>
    <path id="Path_50" data-name="Path 50" d="M22.85,42.4H20.227a.527.527,0,0,1-.527-.527V41.35a.35.35,0,1,0-.7,0v.523A1.228,1.228,0,0,0,20.227,43.1H22.85a.35.35,0,1,0,0-.7Z" transform="translate(12.269 205.432)" fill="#131523" stroke="#131523" stroke-width="0.5"/>
    <g id="Group_970" data-name="Group 970">
      <path id="Path_48" data-name="Path 48" d="M39.726,42.4a2.84,2.84,0,0,0-2.784-2.567,2.793,2.793,0,0,0-2.268,1.191A1.8,1.8,0,0,0,34.365,41a1.875,1.875,0,0,0-1.773,1.335A2.25,2.25,0,0,0,31.5,44.257a2.2,2.2,0,0,0,2.173,2.225h3.771l.066,0,.06,0h1.508a2.075,2.075,0,0,0,2.047-2.1A2.1,2.1,0,0,0,39.726,42.4Zm-.647,3.383H37.556l-.061,0-3.823,0A1.5,1.5,0,0,1,32.2,44.258a1.542,1.542,0,0,1,.846-1.377l.152-.075.036-.166a1.175,1.175,0,0,1,1.13-.942,1.114,1.114,0,0,1,.357.059l.272.091.143-.249a2.1,2.1,0,0,1,1.805-1.066,2.144,2.144,0,0,1,2.1,2.143l0,.285.28.054a1.4,1.4,0,0,1-.246,2.768Z" transform="translate(5.884 206.913)" fill="#131523" stroke="#131523" stroke-width="0.5"/>
      <path id="Path_51" data-name="Path 51" d="M11.074,23.2H2.141a.334.334,0,0,1-.335-.333V12.4H21.953v2.83a.4.4,0,0,0,.806,0V1.133A1.139,1.139,0,0,0,21.618,0H2.141A1.139,1.139,0,0,0,1,1.133V22.867A1.139,1.139,0,0,0,2.141,24h8.933a.4.4,0,1,0,0-.8ZM2.141.8H21.618a.334.334,0,0,1,.335.333V11.6H1.806V1.133A.334.334,0,0,1,2.141.8Z" transform="translate(22.85 229.804)" fill="#131523" stroke="#131523" stroke-width="0.5"/>
    </g>
  </g>
</svg>
