<svg xmlns="http://www.w3.org/2000/svg" width="13.042" height="10.989" viewBox="0 0 13.042 10.989">
  <path id="camera-svgrepo-com" d="M91.834,137.691H89.781l-.489-1.371a.484.484,0,0,0-.456-.32H84.205a.482.482,0,0,0-.454.32l-.491,1.371H81.208A1.207,1.207,0,0,0,80,138.9v6.883a1.207,1.207,0,0,0,1.208,1.208H91.834a1.207,1.207,0,0,0,1.208-1.208V138.9A1.207,1.207,0,0,0,91.834,137.691Zm.121,8.091a.121.121,0,0,1-.121.121H81.208a.121.121,0,0,1-.121-.121V138.9a.121.121,0,0,1,.121-.121h2.818l.258-.722.346-.969h3.781l.346.969.258.722h2.82a.121.121,0,0,1,.121.121Zm-5.434-6.038a2.415,2.415,0,1,0,2.415,2.415A2.415,2.415,0,0,0,86.521,139.744Zm0,3.864a1.449,1.449,0,1,1,1.449-1.449A1.449,1.449,0,0,1,86.521,143.608Z" transform="translate(-80 -136)"/>
</svg>
