<svg xmlns="http://www.w3.org/2000/svg" width="49" height="49" viewBox="0 0 49 49">
  <g id="Group_974" data-name="Group 974" transform="translate(-1418.5)">
    <circle id="Ellipse_19" data-name="Ellipse 19" cx="24.5" cy="24.5" r="24.5" transform="translate(1418.5)" fill="#fea304"/>
    <g id="chat-svgrepo-com" transform="translate(1428.3 12.473)">
      <path id="Path_83" data-name="Path 83" d="M0,4.972V21.318a3.012,3.012,0,0,0,2.972,2.972H6.935v4.953a.5.5,0,0,0,.317.462.5.5,0,0,0,.545-.129L12.6,24.291H26.749a3.012,3.012,0,0,0,2.972-2.972V4.972A3.012,3.012,0,0,0,26.749,2H2.972A3.012,3.012,0,0,0,0,4.972ZM19.814,12.9A1.981,1.981,0,1,1,21.8,14.879,1.983,1.983,0,0,1,19.814,12.9Zm-6.935,0a1.981,1.981,0,1,1,1.981,1.981A1.983,1.983,0,0,1,12.879,12.9Zm-6.935,0a1.981,1.981,0,1,1,1.981,1.981A1.983,1.983,0,0,1,5.944,12.9Z" transform="translate(0 -2)" fill="#fff"/>
    </g>
  </g>
</svg>
