<svg xmlns="http://www.w3.org/2000/svg" width="44" height="41" viewBox="0 0 44 41">
  <g id="Group_972" data-name="Group 972" transform="translate(-239 -266)">
    <rect id="Rectangle_9_copy_7" data-name="Rectangle 9 copy 7" width="44" height="41" rx="3" transform="translate(239 266)" fill="#f5f6fa"/>
    <path id="Path_48" data-name="Path 48" d="M39.726,42.4a2.84,2.84,0,0,0-2.784-2.567,2.793,2.793,0,0,0-2.268,1.191A1.8,1.8,0,0,0,34.365,41a1.875,1.875,0,0,0-1.773,1.335A2.25,2.25,0,0,0,31.5,44.257a2.2,2.2,0,0,0,2.173,2.225h3.771l.066,0,.06,0h1.508a2.075,2.075,0,0,0,2.047-2.1A2.1,2.1,0,0,0,39.726,42.4Zm-.647,3.383H37.556l-.061,0-3.823,0A1.5,1.5,0,0,1,32.2,44.258a1.542,1.542,0,0,1,.846-1.377l.152-.075.036-.166a1.175,1.175,0,0,1,1.13-.942,1.114,1.114,0,0,1,.357.059l.272.091.143-.249a2.1,2.1,0,0,1,1.805-1.066,2.144,2.144,0,0,1,2.1,2.143l0,.285.28.054a1.4,1.4,0,0,1-.246,2.768Z" transform="translate(229.174 250.108)" fill="#131523" stroke="#131523" stroke-width="1"/>
    <path id="Path_49" data-name="Path 49" d="M20.227,14.1h3.846A1.228,1.228,0,0,0,25.3,12.873V12.35a.35.35,0,0,0-.7,0v.523a.527.527,0,0,1-.527.527H20.227a.527.527,0,0,1-.527-.527V12.35a.35.35,0,1,0-.7,0v.523A1.228,1.228,0,0,0,20.227,14.1Z" transform="translate(237.85 268.978)" fill="#131523" stroke="#131523" stroke-width="1"/>
    <path id="Path_50" data-name="Path 50" d="M22.85,42.4H20.227a.527.527,0,0,1-.527-.527V41.35a.35.35,0,1,0-.7,0v.523A1.228,1.228,0,0,0,20.227,43.1H22.85a.35.35,0,1,0,0-.7Z" transform="translate(237.908 249.591)" fill="#131523" stroke="#131523" stroke-width="1"/>
    <path id="Path_51" data-name="Path 51" d="M9.287,19.333H1.939a.277.277,0,0,1-.276-.277V10.333H18.236v2.358a.331.331,0,1,0,.663,0V.944A.943.943,0,0,0,17.961,0H1.939A.943.943,0,0,0,1,.944V19.056A.943.943,0,0,0,1.939,20H9.287a.333.333,0,0,0,0-.667ZM1.939.667H17.961a.277.277,0,0,1,.276.277V9.667H1.663V.944A.277.277,0,0,1,1.939.667Z" transform="translate(250 277)" fill="#131523" stroke="#131523" stroke-width="1"/>
  </g>
</svg>
