<svg xmlns="http://www.w3.org/2000/svg" width="28" height="26" viewBox="0 0 28 26">
  <g id="Group_659" data-name="Group 659" transform="translate(-588 -491)">
    <path id="Path_21" data-name="Path 21" d="M17.74,30,16,29l4-7h6a2,2,0,0,0,2-2V8a2,2,0,0,0-2-2H6A2,2,0,0,0,4,8V20a2,2,0,0,0,2,2h9v2H6a4,4,0,0,1-4-4V8A4,4,0,0,1,6,4H26a4,4,0,0,1,4,4V20a4,4,0,0,1-4,4H21.16Z" transform="translate(586 487)" fill="#5e980a"/>
    <path id="Path_22" data-name="Path 22" d="M17,9H15v4H11v2h4v4h2V15h4V13H17Z" transform="translate(586 487)" fill="#5e980a"/>
  </g>
</svg>
