<svg xmlns="http://www.w3.org/2000/svg" width="15.916" height="16" viewBox="0 0 15.916 16">
  <g id="Group_9" data-name="Group 9" transform="translate(-645 -808)">
    <g id="Copy" transform="translate(645 808)">
      <g id="Group_51" data-name="Group 51" transform="translate(-34 -5)">
        <g id="copy-svgrepo-com" transform="translate(34 5)">
          <g id="Group_49" data-name="Group 49" transform="translate(0)">
            <g id="Group_48" data-name="Group 48">
              <path id="Path_28" data-name="Path 28" d="M148.785,0h-8.844A1.144,1.144,0,0,0,138.8,1.143V3.826h1.043V1.143a.1.1,0,0,1,.1-.1h8.844a.1.1,0,0,1,.1.1V9.987a.1.1,0,0,1-.1.1h-2.6V11.13h2.6a1.144,1.144,0,0,0,1.143-1.143V1.143A1.144,1.144,0,0,0,148.785,0Z" transform="translate(-134.012)" fill="#fff"/>
              <path id="Path_29" data-name="Path 29" d="M11.19,140H2.346A1.144,1.144,0,0,0,1.2,141.141v8.844a1.144,1.144,0,0,0,1.143,1.143H11.19a1.144,1.144,0,0,0,1.143-1.143v-8.844A1.144,1.144,0,0,0,11.19,140Zm0,10.087H2.346a.1.1,0,0,1-.1-.1v-8.844a.1.1,0,0,1,.1-.1H11.19a.1.1,0,0,1,.1.1v8.844h0A.1.1,0,0,1,11.19,150.085Z" transform="translate(-1.203 -135.129)" fill="#fff"/>
            </g>
          </g>
        </g>
      </g>
    </g>
  </g>
</svg>
