<svg xmlns="http://www.w3.org/2000/svg" width="44" height="41" viewBox="0 0 44 41">
  <g id="Group_971" data-name="Group 971" transform="translate(-187 -266)">
    <rect id="Rectangle_9_copy_7" data-name="Rectangle 9 copy 7" width="44" height="41" rx="3" transform="translate(187 266)" fill="#f5f6fa"/>
    <g id="Group_51" data-name="Group 51" transform="translate(199 277)">
      <g id="copy-svgrepo-com">
        <g id="Group_49" data-name="Group 49" transform="translate(0)">
          <g id="Group_48" data-name="Group 48">
            <path id="Path_28" data-name="Path 28" d="M151.282,0H140.227A1.43,1.43,0,0,0,138.8,1.429V4.783h1.3V1.429a.125.125,0,0,1,.125-.125h11.055a.125.125,0,0,1,.125.125V12.484a.125.125,0,0,1-.125.125h-3.249v1.3h3.249a1.431,1.431,0,0,0,1.429-1.429V1.429A1.431,1.431,0,0,0,151.282,0Z" transform="translate(-132.816)"/>
            <path id="Path_29" data-name="Path 29" d="M13.687,140H2.632A1.431,1.431,0,0,0,1.2,141.427v11.055a1.431,1.431,0,0,0,1.429,1.429H13.687a1.431,1.431,0,0,0,1.429-1.429V141.427A1.431,1.431,0,0,0,13.687,140Zm0,12.609H2.632a.125.125,0,0,1-.125-.125V141.427a.125.125,0,0,1,.125-.125H13.687a.125.125,0,0,1,.125.125v11.055h0A.125.125,0,0,1,13.687,152.607Z" transform="translate(-1.203 -133.911)"/>
          </g>
        </g>
      </g>
    </g>
  </g>
</svg>
