<svg xmlns="http://www.w3.org/2000/svg" width="44" height="41" viewBox="0 0 44 41">
  <g id="copy-clip-btn" transform="translate(-1235 -298)">
    <rect id="Rectangle_9_copy_7" data-name="Rectangle 9 copy 7" width="44" height="41" rx="3" transform="translate(1235 298)" fill="#f5f6fa"/>
    <g id="Past" transform="translate(1248 308)">
      <g id="paste-svgrepo-com">
        <g id="Group_56" data-name="Group 56">
          <g id="Group_55" data-name="Group 55">
            <path id="Path_30" data-name="Path 30" d="M50.565,8.226,47.517,5.178a.433.433,0,0,0-.306-.127h-1V2.12a.433.433,0,0,0-.433-.433H40.806v-.1A1.585,1.585,0,0,0,39.223,0h-.511a1.585,1.585,0,0,0-1.583,1.583v.1H32.155a.433.433,0,0,0-.433.433v16.7a.433.433,0,0,0,.433.433h6.332v2.033a.433.433,0,0,0,.433.433h11.34a.433.433,0,0,0,.433-.433V8.532A.433.433,0,0,0,50.565,8.226Zm-2.921-1.7L49.215,8.1H47.644ZM36.61,2.552h2.033a.433.433,0,0,0,0-.865h-.649v-.1a.718.718,0,0,1,.718-.718h.511a.718.718,0,0,1,.718.718V2.12a.433.433,0,0,0,.433.433h.952v.865H36.61Zm2.309,2.5a.433.433,0,0,0-.433.433v12.9h-5.9V2.552h3.158v1.3a.433.433,0,0,0,.433.433h5.58a.433.433,0,0,0,.433-.433v-1.3h3.158v2.5Zm10.908,15.8H39.352V5.916h7.427V8.532a.433.433,0,0,0,.433.433h2.616V20.849Z" transform="translate(-31.722 0)" fill="#010101"/>
            <path id="Path_31" data-name="Path 31" d="M234.382,234.333h5.424a.433.433,0,1,0,0-.865h-5.424a.433.433,0,0,0,0,.865Z" transform="translate(-225.202 -223.369)" fill="#010101"/>
            <path id="Path_32" data-name="Path 32" d="M241.756,283.478h-7.375a.433.433,0,0,0,0,.865h7.374a.433.433,0,0,0,0-.865Z" transform="translate(-225.202 -271.216)" fill="#010101"/>
            <path id="Path_33" data-name="Path 33" d="M241.756,333.487h-7.375a.433.433,0,1,0,0,.865h7.374a.433.433,0,0,0,0-.865Z" transform="translate(-225.202 -319.062)" fill="#010101"/>
            <path id="Path_34" data-name="Path 34" d="M241.756,383.5h-7.375a.433.433,0,1,0,0,.865h7.374a.433.433,0,0,0,0-.865Z" transform="translate(-225.202 -366.909)" fill="#010101"/>
            <path id="Path_35" data-name="Path 35" d="M388.2,234.333h.721a.433.433,0,0,0,0-.865H388.2a.433.433,0,1,0,0,.865Z" transform="translate(-372.366 -223.369)" fill="#010101"/>
          </g>
        </g>
      </g>
    </g>
  </g>
</svg>
