<svg id="Past" xmlns="http://www.w3.org/2000/svg" width="13.97" height="15.991" viewBox="0 0 13.97 15.991">
  <g id="paste-svgrepo-com">
    <g id="Group_56" data-name="Group 56">
      <g id="Group_55" data-name="Group 55">
        <path id="Path_30" data-name="Path 30" d="M45.6,6.058,43.354,3.813a.319.319,0,0,0-.225-.093h-.735V1.561a.319.319,0,0,0-.319-.319H38.411V1.166A1.167,1.167,0,0,0,37.246,0h-.376A1.167,1.167,0,0,0,35.7,1.166v.077H32.041a.319.319,0,0,0-.319.319v12.3a.319.319,0,0,0,.319.319H36.7v1.5a.319.319,0,0,0,.319.319h8.351a.319.319,0,0,0,.319-.319V6.283A.319.319,0,0,0,45.6,6.058Zm-2.151-1.25L44.6,5.965H43.447ZM35.322,1.879h1.5a.319.319,0,0,0,0-.637h-.478V1.166a.529.529,0,0,1,.528-.528h.376a.529.529,0,0,1,.528.528v.4a.319.319,0,0,0,.319.319h.7v.637H35.322Zm1.7,1.841a.319.319,0,0,0-.319.319v9.5H32.359V1.879h2.325v.956A.319.319,0,0,0,35,3.154h4.109a.319.319,0,0,0,.319-.319V1.879h2.325V3.72Zm8.033,11.634H37.341v-11h5.47V6.283a.319.319,0,0,0,.319.319h1.926Z" transform="translate(-31.722 0)" fill="#131523"/>
        <path id="Path_31" data-name="Path 31" d="M234.268,234.105h3.995a.319.319,0,1,0,0-.637h-3.995a.319.319,0,1,0,0,.637Z" transform="translate(-227.507 -226.031)" fill="#131523"/>
        <path id="Path_32" data-name="Path 32" d="M239.7,283.478h-5.431a.319.319,0,1,0,0,.637H239.7a.319.319,0,1,0,0-.637Z" transform="translate(-227.507 -274.448)" fill="#131523"/>
        <path id="Path_33" data-name="Path 33" d="M239.7,333.487h-5.431a.319.319,0,1,0,0,.637H239.7a.319.319,0,1,0,0-.637Z" transform="translate(-227.507 -322.864)" fill="#131523"/>
        <path id="Path_34" data-name="Path 34" d="M239.7,383.5h-5.431a.319.319,0,1,0,0,.637H239.7a.319.319,0,1,0,0-.637Z" transform="translate(-227.507 -371.281)" fill="#131523"/>
        <path id="Path_35" data-name="Path 35" d="M388.086,234.105h.531a.319.319,0,0,0,0-.637h-.531a.319.319,0,1,0,0,.637Z" transform="translate(-376.425 -226.031)" fill="#131523"/>
      </g>
    </g>
  </g>
</svg>
