<svg xmlns="http://www.w3.org/2000/svg" width="13.518" height="15.075" viewBox="0 0 13.518 15.075">
  <g id="Custom-Constraints-icon" transform="translate(-26.439)">
    <g id="Group_995" data-name="Group 995" transform="translate(26.439 0.778)">
      <path id="Path_289" data-name="Path 289" d="M369.108,167.289a.425.425,0,0,1-.332-.691l.68-.85a.425.425,0,1,1,.664.531l-.68.85A.425.425,0,0,1,369.108,167.289Z" transform="translate(-358.607 -161.492)" fill="#010101"/>
      <path id="Path_290" data-name="Path 290" d="M384.65,242.413h-1.105a.425.425,0,1,1,0-.85h1.105a.425.425,0,0,1,0,.85Z" transform="translate(-372.618 -235.229)" fill="#010101"/>
      <path id="Path_291" data-name="Path 291" d="M369.788,290.357a.424.424,0,0,1-.332-.16l-.68-.85a.425.425,0,1,1,.664-.531l.68.85a.425.425,0,0,1-.332.691Z" transform="translate(-358.606 -280.936)" fill="#010101"/>
      <path id="Path_292" data-name="Path 292" d="M92.446,167.288a.424.424,0,0,1-.332-.16l-.68-.85a.425.425,0,1,1,.664-.531l.68.85a.425.425,0,0,1-.332.691Z" transform="translate(-89.43 -161.49)" fill="#010101"/>
      <path id="Path_293" data-name="Path 293" d="M64,242.413H62.891a.425.425,0,0,1,0-.85H64a.425.425,0,1,1,0,.85Z" transform="translate(-61.405 -235.229)" fill="#010101"/>
      <path id="Path_294" data-name="Path 294" d="M91.765,290.358a.425.425,0,0,1-.332-.691l.68-.85a.425.425,0,0,1,.664.531l-.68.85A.425.425,0,0,1,91.765,290.358Z" transform="translate(-89.43 -280.937)" fill="#010101"/>
      <path id="Path_295" data-name="Path 295" d="M367.695,30.852a.425.425,0,0,1-.425-.425V28.842a1.555,1.555,0,0,0-1.553-1.553h-.735a.425.425,0,0,1,0-.85h.735a2.406,2.406,0,0,1,2.4,2.4v1.585A.425.425,0,0,1,367.695,30.852Z" transform="translate(-354.602 -26.439)" fill="#010101"/>
      <path id="Path_296" data-name="Path 296" d="M26.864,30.852a.425.425,0,0,1-.425-.425V28.842a2.406,2.406,0,0,1,2.4-2.4h.735a.425.425,0,1,1,0,.85h-.735a1.555,1.555,0,0,0-1.553,1.553v1.585A.425.425,0,0,1,26.864,30.852Z" transform="translate(-26.439 -26.439)" fill="#010101"/>
      <path id="Path_297" data-name="Path 297" d="M365.717,340.093h-.735a.425.425,0,0,1,0-.85h.735a1.555,1.555,0,0,0,1.553-1.553v-1.585a.425.425,0,0,1,.85,0v1.585A2.406,2.406,0,0,1,365.717,340.093Z" transform="translate(-354.602 -326.575)" fill="#010101"/>
      <path id="Path_298" data-name="Path 298" d="M29.578,340.093h-.735a2.406,2.406,0,0,1-2.4-2.4v-1.585a.425.425,0,1,1,.85,0v1.585a1.555,1.555,0,0,0,1.553,1.553h.735a.425.425,0,0,1,0,.85Z" transform="translate(-26.44 -326.575)" fill="#010101"/>
    </g>
    <path id="Path_300" data-name="Path 300" d="M168.54,6.564a1.114,1.114,0,0,1-1.113-1.113V2.7a.476.476,0,0,0-.953,0v2.75a1.113,1.113,0,1,1-2.225,0V2.7a2.7,2.7,0,0,1,5.4,0v2.75A1.114,1.114,0,0,1,168.54,6.564Zm-1.589-5.189A1.344,1.344,0,0,1,168.278,2.7v2.75a.262.262,0,0,0,.525,0V2.7a1.851,1.851,0,1,0-3.7,0v2.75a.262.262,0,1,0,.525,0V2.7A1.344,1.344,0,0,1,166.951,1.375Z" transform="translate(-133.753)" fill="#010101"/>
    <path id="Path_302" data-name="Path 302" d="M166.953,295.634a2.7,2.7,0,0,1-2.7-2.7v-2.75a1.113,1.113,0,0,1,2.225,0v2.75a.476.476,0,1,0,.952,0v-2.75a1.113,1.113,0,0,1,2.225,0v2.75A2.7,2.7,0,0,1,166.953,295.634Zm-1.589-5.714a.263.263,0,0,0-.262.262v2.75a1.851,1.851,0,0,0,3.7,0v-2.75a.262.262,0,0,0-.525,0v2.75a1.326,1.326,0,0,1-2.653,0v-2.75A.263.263,0,0,0,165.365,289.92Z" transform="translate(-133.755 -280.559)" fill="#010101"/>
  </g>
</svg>
