<?xml version="1.0" encoding="iso-8859-1"?>
<!-- Generator: Adobe Illustrator 19.0.0, SVG Export Plug-In . SVG Version: 6.00 Build 0)  -->
<svg version="1.1" id="Layer_1" xmlns="http://www.w3.org/2000/svg" xmlns:xlink="http://www.w3.org/1999/xlink" x="0px" y="0px"
	 viewBox="0 0 510.144 510.144" style="enable-background:new 0 0 510.144 510.144;" xml:space="preserve">
<g>
	<g>
		<path fill="#5d5d5d" d="M404.395,318.528c-11.776,0-21.333-9.557-21.333-21.333s9.557-21.333,21.333-21.333h105.6
			c-4.544-54.571-26.155-104.277-59.627-143.808l-44.437,44.459c-4.181,4.181-9.621,6.251-15.083,6.251
			c-5.461,0-10.923-2.069-15.083-6.251c-8.341-8.32-8.341-21.824,0-30.165l44.437-44.459
			c-39.509-33.451-89.237-55.083-143.808-59.605v105.579c0,11.776-9.536,21.333-21.333,21.333c-11.776,0-21.333-9.557-21.333-21.333
			V42.283c-54.549,4.523-104.277,26.155-143.787,59.605l44.437,44.459c8.341,8.341,8.341,21.845,0,30.165
			c-4.16,4.181-9.621,6.251-15.083,6.251c-5.461,0-10.923-2.069-15.083-6.251l-44.437-44.459
			C26.304,171.584,4.693,221.291,0.149,275.861h105.579c11.797,0,21.333,9.557,21.333,21.333s-9.536,21.333-21.333,21.333H0
			c4.352,51.776,24.405,101.397,57.621,141.589c4.032,4.907,10.069,7.744,16.427,7.744h362.048c6.357,0,12.395-2.837,16.427-7.744
			c33.216-40.192,53.269-89.813,57.621-141.589H404.395z M258.731,339.861L198.4,279.531l120.661-60.352L258.731,339.861z"/>
	</g>
</g>
<g>
</g>
<g>
</g>
<g>
</g>
<g>
</g>
<g>
</g>
<g>
</g>
<g>
</g>
<g>
</g>
<g>
</g>
<g>
</g>
<g>
</g>
<g>
</g>
<g>
</g>
<g>
</g>
<g>
</g>
</svg>
