<svg xmlns="http://www.w3.org/2000/svg" width="12.898" height="17.197" viewBox="0 0 12.898 17.197">
  <g id="delete-black-icon" transform="translate(-8)">
    <path id="Path_25" data-name="Path 25" d="M16.33,0H12.568a.538.538,0,0,0-.537.537V2.15H8.537a.537.537,0,0,0,0,1.075h.537V16.66a.538.538,0,0,0,.537.537h9.673a.538.538,0,0,0,.537-.537V3.224h.537a.537.537,0,0,0,0-1.075H16.867V.537A.538.538,0,0,0,16.33,0Zm2.418,3.224v12.9h-8.6V3.224ZM13.105,2.15V1.075h2.687V2.15Z"/>
    <path id="Path_26" data-name="Path 26" d="M24.537,28.211a.538.538,0,0,0,.537-.537V18.537a.537.537,0,0,0-1.075,0v9.136A.538.538,0,0,0,24.537,28.211Z" transform="translate(-11.701 -13.163)"/>
    <path id="Path_27" data-name="Path 27" d="M36.537,28.211a.538.538,0,0,0,.537-.537V18.537a.537.537,0,0,0-1.075,0v9.136A.538.538,0,0,0,36.537,28.211Z" transform="translate(-20.476 -13.163)"/>
  </g>
</svg>
