<svg id="Delete" xmlns="http://www.w3.org/2000/svg" width="9.9" height="13.2" viewBox="0 0 9.9 13.2">
  <g id="Group_47" data-name="Group 47">
    <path id="Path_25" data-name="Path 25" d="M14.394,0H11.506a.413.413,0,0,0-.412.412V1.65H8.412a.412.412,0,0,0,0,.825h.413V12.787a.413.413,0,0,0,.412.413h7.425a.413.413,0,0,0,.412-.413V2.475h.413a.412.412,0,1,0,0-.825H14.806V.412A.413.413,0,0,0,14.394,0ZM16.25,2.475v9.9H9.65v-9.9ZM11.919,1.65V.825h2.062V1.65Z" transform="translate(-8)"/>
    <path id="Path_26" data-name="Path 26" d="M24.412,25.837a.413.413,0,0,0,.413-.412V18.412a.413.413,0,0,0-.825,0v7.013A.413.413,0,0,0,24.412,25.837Z" transform="translate(-20.7 -14.287)"/>
    <path id="Path_27" data-name="Path 27" d="M36.412,25.837a.413.413,0,0,0,.412-.412V18.412a.412.412,0,1,0-.825,0v7.013A.413.413,0,0,0,36.412,25.837Z" transform="translate(-30.225 -14.287)"/>
  </g>
</svg>
