<svg xmlns="http://www.w3.org/2000/svg" width="12" height="13.542" viewBox="0 0 12 13.542">
  <g id="download-svgrepo-com" transform="translate(-27.9)">
    <g id="Group_949" data-name="Group 949" transform="translate(27.9)">
      <g id="Group_948" data-name="Group 948" transform="translate(0)">
        <path id="Path_241" data-name="Path 241" d="M142.586,0a.475.475,0,0,0-.475.475V9.629L140.485,8a.475.475,0,1,0-.672.672l2.435,2.435a.474.474,0,0,0,.669,0l2.435-2.435A.475.475,0,0,0,144.681,8l-1.625,1.625V.473A.467.467,0,0,0,142.586,0Z" transform="translate(-136.586)"/>
        <path id="Path_242" data-name="Path 242" d="M39.9,359.231v-2.755a.475.475,0,0,0-.951,0v2.283h-10.1v-2.283a.474.474,0,1,0-.948,0v2.755a.473.473,0,0,0,.475.473H39.425A.473.473,0,0,0,39.9,359.231Z" transform="translate(-27.9 -346.161)"/>
      </g>
    </g>
  </g>
</svg>
