<svg xmlns="http://www.w3.org/2000/svg" width="20.303" height="23" viewBox="0 0 20.303 23">
  <g id="Group_14" data-name="Group 14" transform="translate(0 0)">
    <g id="Group_71" data-name="Group 71" transform="translate(0 0)">
      <path id="Path_40" data-name="Path 40" d="M3.449,15.191,8.031,19.3l9.718-10.83-4.582-4.11Zm8.569-5.8L6.562,15.469A.389.389,0,0,1,6.3,15.6a.378.378,0,0,1-.278-.1l-.271-.243a.385.385,0,0,1-.029-.544l5.456-6.082a.385.385,0,0,1,.544-.03l.271.243A.387.387,0,0,1,12.018,9.386ZM13.6,6.494l.27.242a.385.385,0,0,1,.03.544l-.474.529a.393.393,0,0,1-.267.128.385.385,0,0,1-.278-.1L12.615,7.6a.4.4,0,0,1-.129-.267.382.382,0,0,1,.1-.278l.474-.529A.386.386,0,0,1,13.6,6.494Zm1.129-3.883L19.315,6.72,18.19,7.975,13.61,3.866Zm6.423.059-2.6-2.33a1.331,1.331,0,0,0-1.881.1L15.149,2.15l4.582,4.109,1.531-1.706a1.334,1.334,0,0,0-.1-1.882ZM19.636,4.547l-2.777-2.49.8-.893,2.776,2.489ZM1.325,21.272a.663.663,0,0,0,.888.8l5.268-2.158L2.9,15.8Zm4.656-1.62-2.07.847L2.7,19.414l.619-2.149Z" transform="translate(-1.299 0)" fill="#fff"/>
      <rect id="Rectangle_464" data-name="Rectangle 464" width="19.167" height="1.278" transform="translate(0 21.722)" fill="#fff"/>
    </g>
  </g>
</svg>
