<svg xmlns="http://www.w3.org/2000/svg" width="18.5" height="20.25" viewBox="0 0 18.5 20.25">
  <g id="exportarrow-export-logout-exit-close-svgrepo-com" transform="translate(0.25 0.25)">
    <path id="exportarrow-export-logout-exit-close-svgrepo-com-2" data-name="exportarrow-export-logout-exit-close-svgrepo-com" d="M49.812,43.09h1.217v6.486a1.976,1.976,0,0,1-1.974,1.974H36.084a1.976,1.976,0,0,1-1.974-1.974V36.6a1.976,1.976,0,0,1,1.974-1.972H42.57v1.217H36.084a.758.758,0,0,0-.757.756V49.576a.758.758,0,0,0,.757.757H49.055a.758.758,0,0,0,.757-.757Zm-2.8-9.59v1.217h3.018L42.846,41.9l.86.86,7.187-7.187v3.018H52.11V33.5Z" transform="translate(-34.11 -33.5)" fill="#5e980a" stroke="#5e980a" stroke-width="0.5"/>
  </g>
</svg>
