<svg xmlns="http://www.w3.org/2000/svg" width="26.707" height="15.393" viewBox="0 0 26.707 15.393">
  <g id="Group_761" data-name="Group 761" transform="translate(-1451.402 -450.538)">
    <path id="Path_10" data-name="Path 10" d="M22.425,16.56a13.406,13.406,0,0,0-18.938,0L0,20.047l3.574,3.574a13.406,13.406,0,0,0,18.938,0L26,20.134ZM21.891,23A12.528,12.528,0,0,1,4.2,23L1.242,20.047l2.867-2.867a12.528,12.528,0,0,1,17.7,0l2.953,2.953Z" transform="translate(1451.756 438.144)" fill="#5e980a" stroke="#5e980a" stroke-width="0.5"/>
    <path id="Path_11" data-name="Path 11" d="M24.646,21.57a3.078,3.078,0,0,0-3.074,3.074.439.439,0,1,0,.878,0,2.2,2.2,0,0,1,2.2-2.2.439.439,0,0,0,0-.878Z" transform="translate(1439.658 433.138)" fill="#5e980a" stroke="#5e980a" stroke-width="0.5"/>
    <path id="Path_12" data-name="Path 12" d="M22.281,16.57a5.709,5.709,0,1,0,5.709,5.709A5.716,5.716,0,0,0,22.281,16.57Zm0,10.54a4.831,4.831,0,1,1,4.831-4.831A4.837,4.837,0,0,1,22.281,27.11Z" transform="translate(1442.462 435.942)" fill="#5e980a" stroke="#5e980a" stroke-width="0.5"/>
  </g>
</svg>
