<svg id="Group_551" data-name="Group 551" xmlns="http://www.w3.org/2000/svg" width="24" height="22.909" viewBox="0 0 24 22.909">
  <path id="Path_80" data-name="Path 80" d="M18.888,30.885a.854.854,0,0,1-.4-.1L12,27.375,5.51,30.787a.855.855,0,0,1-1.24-.9l1.239-7.227L.258,17.54a.855.855,0,0,1,.474-1.458l7.256-1.054,3.245-6.575a.855.855,0,0,1,1.533,0l3.245,6.575,7.256,1.054a.855.855,0,0,1,.474,1.458l-5.251,5.118,1.24,7.227a.855.855,0,0,1-.843,1Zm-16.2-13.36,4.332,4.223a.854.854,0,0,1,.246.757L6.247,28.468,11.6,25.652a.855.855,0,0,1,.8,0l5.355,2.815L16.73,22.5a.855.855,0,0,1,.246-.757l4.332-4.223-5.987-.87a.855.855,0,0,1-.644-.468L12,10.762,9.323,16.188a.855.855,0,0,1-.644.468Z" transform="translate(0 -7.976)" fill="#131523"/>
</svg>
