<svg xmlns="http://www.w3.org/2000/svg" width="24.906" height="28.027" viewBox="0 0 24.906 28.027">
  <path id="filter-svgrepo-com" d="M11.783,6.115A1.557,1.557,0,1,0,13.34,7.671,1.557,1.557,0,0,0,11.783,6.115Zm-4.405,0a4.671,4.671,0,0,1,8.81,0H27.349a1.557,1.557,0,0,1,0,3.113H16.188a4.671,4.671,0,0,1-8.81,0H5.557a1.557,1.557,0,1,1,0-3.113Zm13.745,9.34a1.557,1.557,0,1,0,1.557,1.557A1.557,1.557,0,0,0,21.123,15.454Zm-4.405,0a4.671,4.671,0,0,1,8.81,0h1.821a1.557,1.557,0,0,1,0,3.113H25.528a4.671,4.671,0,0,1-8.81,0H5.557a1.557,1.557,0,1,1,0-3.113Zm-4.934,9.34a1.557,1.557,0,1,0,1.557,1.557A1.557,1.557,0,0,0,11.783,24.794Zm-4.405,0a4.671,4.671,0,0,1,8.81,0H27.349a1.557,1.557,0,0,1,0,3.113H16.188a4.671,4.671,0,0,1-8.81,0H5.557a1.557,1.557,0,0,1,0-3.113Z" transform="translate(-4 -2.998)" fill="#fff"/>
</svg>
