<svg id="font_size" data-name="font size" xmlns="http://www.w3.org/2000/svg" width="26" height="21.997" viewBox="0 0 26 21.997">
  <g id="ic_fluent_text_font_size_24_filled" data-name="ic fluent text font size 24 filled">
    <path id="Path_141" data-name="Path 141" d="M12.361,20.041,18.328,3.849A1.3,1.3,0,0,1,20.7,3.7l.064.146,7.153,19.409a1.3,1.3,0,0,1-2.38,1.03l-.061-.138-1.833-4.974h-8.2l-1.875,5.073h0l-.053.1h0l-.094.141h0l-.1.115h0l-.109.1h0l-.108.078h0l-.065.04h0l-.109.056h0l-.135.053h0l-.136.036h0l-.173.025h0l-.14,0h0l-.091-.006h0l-.134-.021h0l-.195-.058h0l-.09-.038h0l-.13-.071h0l-.146-.1h0l-.118-.111h0l-.083-.1h0l-.081-.116h0l-.07-.132h0l-.968-2.476H5.452l-.94,2.407a1.3,1.3,0,0,1-1.538.783l-.144-.047a1.292,1.292,0,0,1-.788-1.531l.047-.144L6.637,11.592a1.3,1.3,0,0,1,2.354-.15l.069.15,3.3,8.45L18.328,3.849ZM7.849,15.631,6.463,19.177h2.77Zm11.7-7.579L16.4,16.587h6.289Z" transform="translate(-2 -3.001)" fill="#212121"/>
  </g>
</svg>
