<svg id="Component_2_1" data-name="Component 2 – 1" xmlns="http://www.w3.org/2000/svg" width="31.875" height="31.875" viewBox="0 0 31.875 31.875">
  <path id="Path_1" data-name="Path 1" d="M283.046,208.984h-6.688a5.506,5.506,0,0,1-5.5-5.5v-5.75h3v5.75a2.5,2.5,0,0,0,2.5,2.5h6.688Z" transform="translate(-270.858 -177.109)" fill="#5e980a"/>
  <path id="Path_2" data-name="Path 2" d="M297.233,208.984h-7.062v-3h7.062a2.5,2.5,0,0,0,2.5-2.5v-6.5h3v6.5A5.506,5.506,0,0,1,297.233,208.984Z" transform="translate(-270.858 -177.109)" fill="#5e980a"/>
  <path id="Path_3" data-name="Path 3" d="M302.733,189.859h-3v-7.25a2.5,2.5,0,0,0-2.5-2.5h-7.062v-3h7.062a5.506,5.506,0,0,1,5.5,5.5Z" transform="translate(-270.858 -177.109)" fill="#5e980a"/>
  <path id="Path_4" data-name="Path 4" d="M273.858,189.859h-3v-7.25a5.506,5.506,0,0,1,5.5-5.5h6.688v3h-6.688a2.5,2.5,0,0,0-2.5,2.5Z" transform="translate(-270.858 -177.109)" fill="#5e980a"/>
  <rect id="Rectangle_4" data-name="Rectangle 4" width="18" height="18" rx="2" transform="translate(6.844 7.125)" fill="#5e980a"/>
</svg>
