<svg xmlns="http://www.w3.org/2000/svg" width="16.399" height="15.558" viewBox="0 0 16.399 15.558">
  <g id="funding-pools-icon" transform="translate(0 -12.57)">
    <path id="Path_304" data-name="Path 304" d="M104.246,330.441s1.938-1.014,2.908-.529a13.093,13.093,0,0,0,5.234,1.058c1.6-.132,4.167-2.248,4.652-2.953s-.63-.793-1.744-.22-4.7,1.719-6.4,0c0,0,3.925.353,4.07,0s-.436-.926-3.489-1.587a11.35,11.35,0,0,0-5.234,0v4.231h0Z" transform="translate(-100.757 -302.859)" fill="#010101"/>
    <rect id="Rectangle_984" data-name="Rectangle 984" width="2.326" height="4.541" transform="translate(0 23.35)" fill="#010101"/>
    <path id="Path_305" data-name="Path 305" d="M178.309,18.741a1.616,1.616,0,0,1-.28-.664l-1.218.135a2.586,2.586,0,0,0,.644,1.467,2.13,2.13,0,0,0,1.311.621v.875h.676v-.9a2.22,2.22,0,0,0,1.421-.731,2.176,2.176,0,0,0,.511-1.467,1.955,1.955,0,0,0-.406-1.277,2.99,2.99,0,0,0-1.526-.811v-1.88a.976.976,0,0,1,.56.769l1.181-.159a2.029,2.029,0,0,0-.56-1.152,1.975,1.975,0,0,0-1.181-.522V12.57h-.676v.476A1.881,1.881,0,0,0,177,14.989a2.084,2.084,0,0,0,.427,1.325,2.557,2.557,0,0,0,1.342.815v2.015A1.289,1.289,0,0,1,178.309,18.741Zm1.134-1.4a1.173,1.173,0,0,1,.6.358.871.871,0,0,1,.184.556.961.961,0,0,1-.219.628.945.945,0,0,1-.569.334V17.337Zm-1.129-1.931a.825.825,0,0,1-.149-.474.865.865,0,0,1,.163-.51.88.88,0,0,1,.439-.327v1.664A1.038,1.038,0,0,1,178.314,15.405Z" transform="translate(-170.894)" fill="#010101"/>
  </g>
</svg>
