<svg xmlns="http://www.w3.org/2000/svg" width="12.98" height="13.575" viewBox="0 0 12.98 13.575">
  <g id="general-dsahboard-icon" transform="translate(-11)">
    <g id="Group_1007" data-name="Group 1007" transform="translate(11)">
      <g id="Group_1006" data-name="Group 1006" transform="translate(0)">
        <path id="Path_333" data-name="Path 333" d="M71.77,154.541h4.476a.27.27,0,1,0,0-.541H71.77a.27.27,0,1,0,0,.541Z" transform="translate(-69.864 -149.835)" fill="#010101"/>
        <path id="Path_334" data-name="Path 334" d="M77.855,220H71.77a.27.27,0,1,0,0,.541h6.085a.27.27,0,1,0,0-.541Z" transform="translate(-69.864 -214.051)" fill="#010101"/>
        <path id="Path_335" data-name="Path 335" d="M77.855,286H71.77a.27.27,0,1,0,0,.541h6.085a.27.27,0,1,0,0-.541Z" transform="translate(-69.864 -278.266)" fill="#010101"/>
        <path id="Path_336" data-name="Path 336" d="M77.855,352H71.77a.27.27,0,1,0,0,.541h6.085a.27.27,0,1,0,0-.541Z" transform="translate(-69.864 -342.481)" fill="#010101"/>
        <path id="Path_337" data-name="Path 337" d="M275.365,154h-.595a.27.27,0,0,0,0,.541h.595a.27.27,0,0,0,0-.541Z" transform="translate(-267.374 -149.835)" fill="#010101"/>
        <path id="Path_338" data-name="Path 338" d="M23.71,10.26H22.42a.116.116,0,0,1-.116-.116v-.27a.657.657,0,0,0-1.121-.464L20.9,9.7V2.785a.27.27,0,0,0-.079-.191L18.3.079A.27.27,0,0,0,18.112,0H11.27A.27.27,0,0,0,11,.27V13.3a.27.27,0,0,0,.27.27h9.357a.27.27,0,0,0,.27-.27V13.1l.285.285a.657.657,0,0,0,1.121-.464v-.27a.116.116,0,0,1,.116-.116h1.29a.27.27,0,0,0,.27-.27V10.531A.27.27,0,0,0,23.71,10.26ZM18.383.923l1.592,1.592H18.383Zm1.974,12.111H11.541V.541h6.3V2.785a.27.27,0,0,0,.27.27h2.245v7.18l-.969.969a.27.27,0,0,0,0,.382l.969.969Zm3.083-1.043H22.42a.658.658,0,0,0-.657.657v.27a.116.116,0,0,1-.2.082l-1.6-1.6,1.6-1.6a.116.116,0,0,1,.2.082v.27a.658.658,0,0,0,.657.657h1.02Z" transform="translate(-11)" fill="#010101"/>
      </g>
    </g>
  </g>
</svg>
