<svg xmlns="http://www.w3.org/2000/svg" width="21.121" height="19.613" viewBox="0 0 21.121 19.613">
  <g id="Grey-plus-icon" transform="translate(-154.439 -623.693)">
    <path id="Path_21" data-name="Path 21" d="M13.873,23.613l-1.313-.754,3.017-5.28H20.1a1.509,1.509,0,0,0,1.509-1.509V7.017A1.509,1.509,0,0,0,20.1,5.509H5.017A1.509,1.509,0,0,0,3.509,7.017v9.052a1.509,1.509,0,0,0,1.509,1.509h6.789v1.509H5.017A3.017,3.017,0,0,1,2,16.069V7.017A3.017,3.017,0,0,1,5.017,4H20.1a3.017,3.017,0,0,1,3.017,3.017v9.052A3.017,3.017,0,0,1,20.1,19.087H16.453Z" transform="translate(152.439 619.693)" fill="#9a9a9a"/>
    <path id="Path_22" data-name="Path 22" d="M15.526,9H14.017v3.017H11v1.509h3.017v3.017h1.509V13.526h3.017V12.017H15.526Z" transform="translate(150.229 618.466)" fill="#9a9a9a"/>
  </g>
</svg>
