<svg xmlns="http://www.w3.org/2000/svg" width="1387" height="255" viewBox="0 0 1387 255">
  <g id="hier-view" transform="translate(-111 -424)">
    <g id="Rectangle_1023" data-name="Rectangle 1023" transform="translate(690 424)" fill="none" stroke="#010101" stroke-width="1">
      <rect width="220" height="45" rx="5" stroke="none"/>
      <rect x="0.5" y="0.5" width="219" height="44" rx="4.5" fill="none"/>
    </g>
    <g id="Rectangle_1024" data-name="Rectangle 1024" transform="translate(111 529)" fill="none" stroke="#010101" stroke-width="1">
      <rect width="161" height="45" rx="5" stroke="none"/>
      <rect x="0.5" y="0.5" width="160" height="44" rx="4.5" fill="none"/>
    </g>
    <text id="Goal:_Optimize_IT_Portfolio" data-name="Goal: Optimize IT Portfolio" transform="translate(701 452)" fill="#010101" font-size="14" font-family="Roboto-Regular, Roboto"><tspan x="0" y="0">GOAL: OPTIMIZE IT PORTFOLIO</tspan></text>
    <g id="Rectangle_1065" data-name="Rectangle 1065" transform="translate(285 529)" fill="none" stroke="#010101" stroke-width="1">
      <rect width="161" height="45" rx="5" stroke="none"/>
      <rect x="0.5" y="0.5" width="160" height="44" rx="4.5" fill="none"/>
    </g>
    <text id="Single_pw_verbal" data-name="Single pw verbal" transform="translate(129 557)" fill="#0058a3" font-size="14" font-family="Roboto-Regular, Roboto"><tspan x="0" y="0">SINGLE PW VERBAL</tspan></text>
    <text id="Single_pw_Graphical" data-name="Single pw Graphical" transform="translate(291 558)" fill="#0058a3" font-size="14" font-family="Roboto-Regular, Roboto"><tspan x="0" y="0">SINGLE PW GRAPHICAL</tspan></text>
    <g id="Rectangle_1066" data-name="Rectangle 1066" transform="translate(459 529)" fill="none" stroke="#010101" stroke-width="1">
      <rect width="161" height="45" rx="5" stroke="none"/>
      <rect x="0.5" y="0.5" width="160" height="44" rx="4.5" fill="none"/>
    </g>
    <g id="Rectangle_1067" data-name="Rectangle 1067" transform="translate(634 529)" fill="none" stroke="#010101" stroke-width="1">
      <rect width="161" height="45" rx="5" stroke="none"/>
      <rect x="0.5" y="0.5" width="160" height="44" rx="4.5" fill="none"/>
    </g>
    <g id="Rectangle_1068" data-name="Rectangle 1068" transform="translate(807 529)" fill="none" stroke="#010101" stroke-width="1">
      <rect width="161" height="45" rx="5" stroke="none"/>
      <rect x="0.5" y="0.5" width="160" height="44" rx="4.5" fill="none"/>
    </g>
    <g id="Rectangle_1069" data-name="Rectangle 1069" transform="translate(981 529)" fill="none" stroke="#010101" stroke-width="1">
      <rect width="161" height="45" rx="5" stroke="none"/>
      <rect x="0.5" y="0.5" width="160" height="44" rx="4.5" fill="none"/>
    </g>
    <g id="Rectangle_1070" data-name="Rectangle 1070" transform="translate(1155 529)" fill="none" stroke="#010101" stroke-width="1">
      <rect width="161" height="45" rx="5" stroke="none"/>
      <rect x="0.5" y="0.5" width="160" height="44" rx="4.5" fill="none"/>
    </g>
    <g id="Rectangle_1071" data-name="Rectangle 1071" transform="translate(1329 529)" fill="none" stroke="#010101" stroke-width="1">
      <rect width="161" height="45" rx="5" stroke="none"/>
      <rect x="0.5" y="0.5" width="160" height="44" rx="4.5" fill="none"/>
    </g>
    <line id="Line_1008" data-name="Line 1008" y2="30" transform="translate(800.5 469.5)" fill="none" stroke="#010101" stroke-width="1"/>
    <line id="Line_1009" data-name="Line 1009" x2="1217" transform="translate(200.5 499.5)" fill="none" stroke="#010101" stroke-width="1"/>
    <line id="Line_1010" data-name="Line 1010" y2="30" transform="translate(721.5 499.5)" fill="none" stroke="#010101" stroke-width="1"/>
    <g id="minus-circle-icon">
      <circle id="Ellipse_2" data-name="Ellipse 2" cx="5.871" cy="5.871" r="5.871" transform="translate(794.569 478.569)" fill="#0058a3"/>
      <rect id="Rectangle_21" data-name="Rectangle 21" width="5.597" height="1.107" transform="translate(797.679 484.167)" fill="#fff"/>
    </g>
    <line id="Line_1011" data-name="Line 1011" y2="30" transform="translate(547.5 499.5)" fill="none" stroke="#010101" stroke-width="1"/>
    <line id="Line_1012" data-name="Line 1012" y2="30" transform="translate(373.5 499.5)" fill="none" stroke="#010101" stroke-width="1"/>
    <line id="Line_1013" data-name="Line 1013" y2="30" transform="translate(200.5 499.5)" fill="none" stroke="#010101" stroke-width="1"/>
    <line id="Line_1014" data-name="Line 1014" y2="30" transform="translate(895.5 499.5)" fill="none" stroke="#010101" stroke-width="1"/>
    <line id="Line_1015" data-name="Line 1015" y2="30" transform="translate(1069.5 499.5)" fill="none" stroke="#010101" stroke-width="1"/>
    <line id="Line_1016" data-name="Line 1016" y2="30" transform="translate(1243.5 499.5)" fill="none" stroke="#010101" stroke-width="1"/>
    <line id="Line_1017" data-name="Line 1017" y2="30" transform="translate(1417.5 499.5)" fill="none" stroke="#010101" stroke-width="1"/>
    <text id="Multi_pw_verbal" data-name="Multi pw verbal" transform="translate(481 558)" fill="#0058a3" font-size="14" font-family="Roboto-Regular, Roboto"><tspan x="0" y="0">MULTI PW VERBAL</tspan></text>
    <text id="Multi_pw_Graphical" data-name="Multi pw Graphical" transform="translate(643 558)" fill="#0058a3" font-size="14" font-family="Roboto-Regular, Roboto"><tspan x="0" y="0">MULTI PW GRAPHICAL</tspan></text>
    <text id="Rating" transform="translate(863 559)" fill="#0058a3" font-size="14" font-family="Roboto-Regular, Roboto"><tspan x="0" y="0">RATING</tspan></text>
    <text id="Direct_Entry" data-name="Direct Entry" transform="translate(1015 558)" fill="#0058a3" font-size="14" font-family="Roboto-Regular, Roboto"><tspan x="0" y="0">DIRECT ENTRY</tspan></text>
    <text id="Step_Function" data-name="Step Function" transform="translate(1184 558)" fill="#0058a3" font-size="14" font-family="Roboto-Regular, Roboto"><tspan x="0" y="0">STEP FUNCTION</tspan></text>
    <text id="Utility_Curve" data-name="Utility Curve" transform="translate(1362 558)" fill="#0058a3" font-size="14" font-family="Roboto-Regular, Roboto"><tspan x="0" y="0">UTILITY CURVE</tspan></text>
    <g id="Rectangle_1072" data-name="Rectangle 1072" transform="translate(111 634)" fill="none" stroke="#010101" stroke-width="1">
      <rect width="161" height="45" rx="5" stroke="none"/>
      <rect x="0.5" y="0.5" width="160" height="44" rx="4.5" fill="none"/>
    </g>
    <g id="Rectangle_1073" data-name="Rectangle 1073" transform="translate(285 634)" fill="none" stroke="#010101" stroke-width="1">
      <rect width="161" height="45" rx="5" stroke="none"/>
      <rect x="0.5" y="0.5" width="160" height="44" rx="4.5" fill="none"/>
    </g>
    <text id="alternative_1" data-name="alternative 1" transform="translate(143 662)" fill="#010101" font-size="14" font-family="Roboto-Regular, Roboto"><tspan x="0" y="0">ALTERNATIVE 1</tspan></text>
    <g id="Rectangle_1074" data-name="Rectangle 1074" transform="translate(459 634)" fill="none" stroke="#010101" stroke-width="1">
      <rect width="161" height="45" rx="5" stroke="none"/>
      <rect x="0.5" y="0.5" width="160" height="44" rx="4.5" fill="none"/>
    </g>
    <g id="Rectangle_1075" data-name="Rectangle 1075" transform="translate(633 634)" fill="none" stroke="#010101" stroke-width="1">
      <rect width="161" height="45" rx="5" stroke="none"/>
      <rect x="0.5" y="0.5" width="160" height="44" rx="4.5" fill="none"/>
    </g>
    <g id="Rectangle_1076" data-name="Rectangle 1076" transform="translate(807 634)" fill="none" stroke="#010101" stroke-width="1">
      <rect width="161" height="45" rx="5" stroke="none"/>
      <rect x="0.5" y="0.5" width="160" height="44" rx="4.5" fill="none"/>
    </g>
    <g id="Rectangle_1077" data-name="Rectangle 1077" transform="translate(981 634)" fill="none" stroke="#010101" stroke-width="1">
      <rect width="161" height="45" rx="5" stroke="none"/>
      <rect x="0.5" y="0.5" width="160" height="44" rx="4.5" fill="none"/>
    </g>
    <g id="Rectangle_1078" data-name="Rectangle 1078" transform="translate(1155 634)" fill="none" stroke="#010101" stroke-width="1">
      <rect width="161" height="45" rx="5" stroke="none"/>
      <rect x="0.5" y="0.5" width="160" height="44" rx="4.5" fill="none"/>
    </g>
    <g id="Rectangle_1079" data-name="Rectangle 1079" transform="translate(1337 634)" fill="none" stroke="#010101" stroke-width="1">
      <rect width="161" height="45" rx="5" stroke="none"/>
      <rect x="0.5" y="0.5" width="160" height="44" rx="4.5" fill="none"/>
    </g>
    <line id="Line_1018" data-name="Line 1018" y2="30" transform="translate(722.5 574.5)" fill="none" stroke="#010101" stroke-width="1"/>
    <line id="Line_1019" data-name="Line 1019" x2="1217" transform="translate(200.5 604.5)" fill="none" stroke="#010101" stroke-width="1"/>
    <line id="Line_1021" data-name="Line 1021" y2="30" transform="translate(547.5 604.5)" fill="none" stroke="#010101" stroke-width="1"/>
    <line id="Line_1022" data-name="Line 1022" y2="30" transform="translate(373.5 604.5)" fill="none" stroke="#010101" stroke-width="1"/>
    <line id="Line_1023" data-name="Line 1023" y2="30" transform="translate(200.5 604.5)" fill="none" stroke="#010101" stroke-width="1"/>
    <line id="Line_1024" data-name="Line 1024" y2="30" transform="translate(895.5 604.5)" fill="none" stroke="#010101" stroke-width="1"/>
    <line id="Line_1025" data-name="Line 1025" y2="30" transform="translate(1069.5 604.5)" fill="none" stroke="#010101" stroke-width="1"/>
    <line id="Line_1026" data-name="Line 1026" y2="30" transform="translate(1243.5 604.5)" fill="none" stroke="#010101" stroke-width="1"/>
    <line id="Line_1027" data-name="Line 1027" y2="30" transform="translate(1417.5 604.5)" fill="none" stroke="#010101" stroke-width="1"/>
    <text id="alternative_2" data-name="alternative 2" transform="translate(317 662)" fill="#010101" font-size="14" font-family="Roboto-Regular, Roboto"><tspan x="0" y="0">ALTERNATIVE 2</tspan></text>
    <text id="alternative_3" data-name="alternative 3" transform="translate(491 662)" fill="#010101" font-size="14" font-family="Roboto-Regular, Roboto"><tspan x="0" y="0">ALTERNATIVE 3</tspan></text>
    <text id="alternative_4" data-name="alternative 4" transform="translate(665 662)" fill="#010101" font-size="14" font-family="Roboto-Regular, Roboto"><tspan x="0" y="0">ALTERNATIVE 4</tspan></text>
    <text id="alternative_5" data-name="alternative 5" transform="translate(839 662)" fill="#010101" font-size="14" font-family="Roboto-Regular, Roboto"><tspan x="0" y="0">ALTERNATIVE 5</tspan></text>
    <text id="alternative_6" data-name="alternative 6" transform="translate(1013 662)" fill="#010101" font-size="14" font-family="Roboto-Regular, Roboto"><tspan x="0" y="0">ALTERNATIVE 6</tspan></text>
    <text id="alternative_7" data-name="alternative 7" transform="translate(1187 662)" fill="#010101" font-size="14" font-family="Roboto-Regular, Roboto"><tspan x="0" y="0">ALTERNATIVE 7</tspan></text>
    <text id="alternative_8" data-name="alternative 8" transform="translate(1369 662)" fill="#010101" font-size="14" font-family="Roboto-Regular, Roboto"><tspan x="0" y="0">ALTERNATIVE 8</tspan></text>
    <line id="Line_1047" data-name="Line 1047" y2="30" transform="translate(722.5 604.5)" fill="none" stroke="#010101" stroke-width="1"/>
  </g>
</svg>
