<svg xmlns="http://www.w3.org/2000/svg" width="26.5" height="20.472" viewBox="0 0 26.5 20.472">
  <g id="hierarchy-svgrepo-com" transform="translate(0 -11.09)">
    <path id="Path_134" data-name="Path 134" d="M25.956,25.156H24.281V24.068a3.52,3.52,0,0,0-3.516-3.516h-6.51V17.5h1.655a.544.544,0,0,0,.544-.544V11.634a.544.544,0,0,0-.544-.544H10.591a.544.544,0,0,0-.544.544v5.318a.544.544,0,0,0,.544.544h1.654v3.056H5.736a3.52,3.52,0,0,0-3.516,3.516v1.088H.544A.544.544,0,0,0,0,25.7v5.318a.544.544,0,0,0,.544.544H5.862a.544.544,0,0,0,.544-.544V25.7a.544.544,0,0,0-.544-.544H4.228V24.068a1.509,1.509,0,0,1,1.507-1.507h6.51v2.6H10.591a.544.544,0,0,0-.544.544v5.318a.544.544,0,0,0,.544.544h5.318a.544.544,0,0,0,.544-.544V25.7a.544.544,0,0,0-.544-.544H14.254v-2.6h6.51a1.509,1.509,0,0,1,1.507,1.507v1.088H20.638a.544.544,0,0,0-.544.544v5.318a.544.544,0,0,0,.544.544h5.319a.544.544,0,0,0,.544-.544V25.7A.544.544,0,0,0,25.956,25.156Z" fill="#0058a3"/>
  </g>
</svg>
