<svg xmlns="http://www.w3.org/2000/svg" width="28.333" height="27.138" viewBox="0 0 28.333 27.138">
  <g id="home-svgrepo-com_1_" data-name="home-svgrepo-com (1)" transform="translate(0)">
    <path id="home-svgrepo-com_1_2" data-name="home-svgrepo-com (1)" d="M27.836,17.506,24.29,14.616V10a.945.945,0,0,0-.944-.944H21.116a.945.945,0,0,0-.944.944V11.26L15.435,7.4a2.08,2.08,0,0,0-2.537,0L.5,17.505c-.563.459-.53.859-.459,1.056s.3.528,1.02.528h1.7V32.383A1.72,1.72,0,0,0,4.472,34.1H9.834a1.679,1.679,0,0,0,1.673-1.72V26.932a.932.932,0,0,1,.9-.893h3.6a.858.858,0,0,1,.815.893v5.452a1.763,1.763,0,0,0,1.759,1.72h5.276a1.72,1.72,0,0,0,1.716-1.72V19.09h1.7c.724,0,.949-.331,1.02-.528S28.4,17.965,27.836,17.506Z" transform="translate(0 -6.966)" fill="#0058a3"/>
  </g>
</svg>
