<svg id="information-sign-svgrepo-com" xmlns="http://www.w3.org/2000/svg" width="14.291" height="14.291" viewBox="0 0 14.291 14.291">
  <g id="Group_1042" data-name="Group 1042" transform="translate(0 0)">
    <g id="Group_1041" data-name="Group 1041" transform="translate(0 0)">
      <path id="Path_344" data-name="Path 344" d="M7.146,0a7.146,7.146,0,1,0,7.146,7.146A7.154,7.154,0,0,0,7.146,0Zm0,13.4A6.252,6.252,0,1,1,13.4,7.146,6.259,6.259,0,0,1,7.146,13.4Z" transform="translate(0 0)" fill="#010101"/>
    </g>
  </g>
  <g id="Group_1044" data-name="Group 1044" transform="translate(6.406 3.312)">
    <g id="Group_1043" data-name="Group 1043">
      <path id="Path_345" data-name="Path 345" d="M230.943,118.919a.836.836,0,0,0-1.186,0,.812.812,0,0,0-.245.593.837.837,0,0,0,1.674,0A.815.815,0,0,0,230.943,118.919Z" transform="translate(-229.512 -118.672)" fill="#010101"/>
    </g>
  </g>
  <g id="Group_1046" data-name="Group 1046" transform="translate(5.732 5.527)">
    <g id="Group_1045" data-name="Group 1045">
      <path id="Path_346" data-name="Path 346" d="M207.635,201.69V198h-2.259v1.1h.728v2.586h-.728v1.1h2.972v-1.1Z" transform="translate(-205.376 -198)" fill="#010101"/>
    </g>
  </g>
</svg>
