<svg id="infodoc-icon" xmlns="http://www.w3.org/2000/svg" width="18" height="18" viewBox="0 0 18 18">
  <g id="Group_20" data-name="Group 20">
    <path id="Ellipse_1" data-name="Ellipse 1" d="M9,0A9,9,0,1,1,0,9,9,9,0,0,1,9,0Z" fill="#5e980a"/>
    <path id="Path_17" data-name="Path 17" d="M57.23,57.313l-.177.674q-.794.293-1.268.446a3.549,3.549,0,0,1-1.1.154,2.3,2.3,0,0,1-1.5-.438,1.377,1.377,0,0,1-.534-1.112,3.7,3.7,0,0,1,.039-.536,6.189,6.189,0,0,1,.129-.618l.662-2.188q.088-.314.149-.6a2.416,2.416,0,0,0,.06-.513A.758.758,0,0,0,53.51,52a1.1,1.1,0,0,0-.709-.165,1.964,1.964,0,0,0-.526.075c-.18.05-.334.1-.463.142l.177-.674q.651-.247,1.245-.423a3.951,3.951,0,0,1,1.126-.176,2.248,2.248,0,0,1,1.474.431,1.39,1.39,0,0,1,.518,1.12c0,.1-.011.262-.036.5a3.158,3.158,0,0,1-.133.659l-.659,2.179a5.441,5.441,0,0,0-.145.6,2.9,2.9,0,0,0-.065.509.707.707,0,0,0,.208.592,1.239,1.239,0,0,0,.721.157,2.237,2.237,0,0,0,.546-.079A3.238,3.238,0,0,0,57.23,57.313Zm.167-9.147a1.238,1.238,0,0,1-.461.97,1.634,1.634,0,0,1-1.11.4,1.654,1.654,0,0,1-1.117-.4,1.235,1.235,0,0,1-.466-.97,1.249,1.249,0,0,1,.466-.974,1.737,1.737,0,0,1,2.227,0A1.251,1.251,0,0,1,57.4,48.167Z" transform="translate(-45.812 -43.789)" fill="#fff"/>
  </g>
</svg>
