<svg xmlns="http://www.w3.org/2000/svg" width="25" height="25" viewBox="0 0 25 25">
  <g id="license-svgrepo-com" transform="translate(-0.316 -0.316)">
    <rect id="Rectangle_1096" data-name="Rectangle 1096" width="10" height="1" transform="translate(7.316 5.316)" fill="#010101"/>
    <rect id="Rectangle_1097" data-name="Rectangle 1097" width="10" height="1" transform="translate(7.316 7.316)" fill="#010101"/>
    <rect id="Rectangle_1098" data-name="Rectangle 1098" width="5" height="1" transform="translate(7.316 18.316)" fill="#010101"/>
    <rect id="Rectangle_1099" data-name="Rectangle 1099" width="5" height="1" transform="translate(7.316 11.316)" fill="#010101"/>
    <path id="Path_365" data-name="Path 365" d="M19.856,23.553H7.54A1.541,1.541,0,0,1,6,22.014V3.54A1.541,1.541,0,0,1,7.54,2H19.856A1.541,1.541,0,0,1,21.4,3.54V22.014a1.541,1.541,0,0,1-1.54,1.54ZM7.54,3.54V22.014H19.856V3.54Z" transform="translate(-1.606 -0.685)" fill="#010101"/>
    <rect id="_Transparent_Rectangle_" data-name="&lt;Transparent Rectangle&gt;" width="25" height="25" transform="translate(0.316 0.316)" fill="none"/>
  </g>
</svg>
