<svg xmlns="http://www.w3.org/2000/svg" width="17.231" height="14" viewBox="0 0 17.231 14">
  <path id="list-svgrepo-com" d="M2.692,58.769H.538A.538.538,0,0,0,0,59.308v2.154A.538.538,0,0,0,.538,62H2.692a.538.538,0,0,0,.538-.538V59.308A.538.538,0,0,0,2.692,58.769ZM2.692,48H.538A.538.538,0,0,0,0,48.538v2.154a.538.538,0,0,0,.538.538H2.692a.538.538,0,0,0,.538-.538V48.538A.538.538,0,0,0,2.692,48Zm0,5.385H.538A.538.538,0,0,0,0,53.923v2.154a.538.538,0,0,0,.538.538H2.692a.538.538,0,0,0,.538-.538V53.923A.538.538,0,0,0,2.692,53.385Zm14,5.923H5.923a.538.538,0,0,0-.538.538v1.077a.538.538,0,0,0,.538.538H16.692a.538.538,0,0,0,.538-.538V59.846A.538.538,0,0,0,16.692,59.308Zm0-10.769H5.923a.538.538,0,0,0-.538.538v1.077a.538.538,0,0,0,.538.538H16.692a.538.538,0,0,0,.538-.538V49.077A.538.538,0,0,0,16.692,48.538Zm0,5.385H5.923a.538.538,0,0,0-.538.538v1.077a.538.538,0,0,0,.538.538H16.692a.538.538,0,0,0,.538-.538V54.462A.538.538,0,0,0,16.692,53.923Z" transform="translate(0 -48)" fill="#131523"/>
</svg>
