<svg xmlns="http://www.w3.org/2000/svg" width="16" height="13" viewBox="0 0 16 13">
  <path id="list-green-icon" d="M2.5,58H.5a.5.5,0,0,0-.5.5v2a.5.5,0,0,0,.5.5h2a.5.5,0,0,0,.5-.5v-2A.5.5,0,0,0,2.5,58Zm0-10H.5a.5.5,0,0,0-.5.5v2a.5.5,0,0,0,.5.5h2a.5.5,0,0,0,.5-.5v-2A.5.5,0,0,0,2.5,48Zm0,5H.5a.5.5,0,0,0-.5.5v2a.5.5,0,0,0,.5.5h2a.5.5,0,0,0,.5-.5v-2A.5.5,0,0,0,2.5,53Zm13,5.5H5.5A.5.5,0,0,0,5,59v1a.5.5,0,0,0,.5.5h10A.5.5,0,0,0,16,60V59A.5.5,0,0,0,15.5,58.5Zm0-10H5.5A.5.5,0,0,0,5,49v1a.5.5,0,0,0,.5.5h10A.5.5,0,0,0,16,50V49A.5.5,0,0,0,15.5,48.5Zm0,5H5.5A.5.5,0,0,0,5,54v1a.5.5,0,0,0,.5.5h10A.5.5,0,0,0,16,55V54A.5.5,0,0,0,15.5,53.5Z" transform="translate(0 -48)" fill="#92c745"/>
</svg>
