<svg id="Location" xmlns="http://www.w3.org/2000/svg" width="37.078" height="35.615" viewBox="0 0 37.078 35.615">
  <g id="sitemap" transform="translate(-145.401 -154.51)">
    <path id="Path_103" data-name="Path 103" d="M180.59,154.51h-33.3a1.884,1.884,0,0,0-1.885,1.885v25.583a1.882,1.882,0,0,0,1.885,1.885h4.744c-.015-.2-.022-.41-.022-.616v-2.025h-3.965V161.677h31.8v19.544h-2.911v2.025c0,.207-.008.413-.022.616h3.685a1.882,1.882,0,0,0,1.889-1.885V156.395a1.884,1.884,0,0,0-1.889-1.885Zm-23.706,4.825h-8.842v-2.483h8.842Zm14.365,0a1.243,1.243,0,1,1,.878-.363,1.239,1.239,0,0,1-.878.363Zm3.663,0a1.245,1.245,0,1,1,.875-.365,1.241,1.241,0,0,1-.875.365Zm3.663,0h0a1.239,1.239,0,1,1,.879-.362,1.24,1.24,0,0,1-.879.362Z" fill="#5e980a"/>
    <path id="Path_104" data-name="Path 104" d="M224.814,292.918c1.365-1.543,4.485-5.548,4.485-9.939h0a5.113,5.113,0,0,0-5.222-5.112,5.223,5.223,0,0,0-5,5.437c.148,4.261,3.147,8.107,4.479,9.613h0a.837.837,0,0,0,1.255,0Zm-3.459-9.939a2.832,2.832,0,1,1,.829,2A2.831,2.831,0,0,1,221.355,282.98Z" transform="translate(-67.752 -113.44)" fill="#5e980a"/>
    <path id="Path_105" data-name="Path 105" d="M439.75,316.548a1.445,1.445,0,0,0-2.043,0l-1.587,1.587-1.587-1.587a1.445,1.445,0,1,0-2.044,2.044l1.587,1.587-1.587,1.587a1.445,1.445,0,0,0,2.044,2.043l1.587-1.587,1.587,1.587h0a1.445,1.445,0,0,0,2.043-2.044l-1.587-1.587,1.587-1.587h0a1.445,1.445,0,0,0,0-2.043Z" transform="translate(-263.619 -148.621)" fill="#5e980a"/>
    <path id="Path_106" data-name="Path 106" d="M269.207,490.7a1.291,1.291,0,1,0-2.582.066,9.018,9.018,0,0,0,.306,2.139,1.291,1.291,0,1,0,2.492-.679,6.419,6.419,0,0,1-.216-1.526Z" transform="translate(-111.478 -308.002)" fill="#5e980a"/>
    <path id="Path_107" data-name="Path 107" d="M390.523,564.052a4.336,4.336,0,0,1-.849.084h-.746a1.291,1.291,0,1,0,0,2.582h.746a6.945,6.945,0,0,0,1.356-.134,1.291,1.291,0,1,0-.507-2.532Z" transform="translate(-222.759 -376.593)" fill="#5e980a"/>
    <path id="Path_108" data-name="Path 108" d="M467.713,425.04a1.291,1.291,0,0,0-1.291,1.291v1.856a1.291,1.291,0,1,0,2.582,0v-1.856a1.291,1.291,0,0,0-1.291-1.291Z" transform="translate(-295.212 -248.78)" fill="#5e980a"/>
    <path id="Path_109" data-name="Path 109" d="M308.89,558.722a3.993,3.993,0,0,1-1.336-.405,1.291,1.291,0,1,0-1.173,2.3,6.567,6.567,0,0,0,2.2.669,1.255,1.255,0,0,0,.158.01,1.291,1.291,0,0,0,.155-2.573Z" transform="translate(-147.389 -371.212)" fill="#5e980a"/>
    <path id="Path_110" data-name="Path 110" d="M459.76,508.1a1.29,1.29,0,0,0-1.5,1.046,4.252,4.252,0,0,1-.476,1.335,1.291,1.291,0,1,0,2.254,1.259,6.831,6.831,0,0,0,.765-2.144,1.292,1.292,0,0,0-1.046-1.5Z" transform="translate(-287.12 -325.146)" fill="#5e980a"/>
  </g>
</svg>
