<svg xmlns="http://www.w3.org/2000/svg" width="37" height="34" viewBox="0 0 37 34">
  <g id="mailbox-icon-btn" transform="translate(-952 -195)">
    <g id="Dropdown" transform="translate(952 195)">
      <g id="input">
        <rect id="Rounded_Rectangle_9_copy_9" data-name="Rounded Rectangle 9 copy 9" width="37" height="34" rx="5" fill="#e7edf6"/>
      </g>
    </g>
    <g id="mail-svgrepo-com" transform="translate(960 144.7)">
      <path id="Path_237" data-name="Path 237" d="M18.566,59.3H1.549A1.552,1.552,0,0,0,0,60.849V72.833a1.552,1.552,0,0,0,1.549,1.549H18.566a1.552,1.552,0,0,0,1.549-1.549V60.849A1.552,1.552,0,0,0,18.566,59.3Zm-.225,1.146-8.178,6.994L1.986,60.446Zm.628,12.387a.406.406,0,0,1-.4.4H1.549a.406.406,0,0,1-.4-.4v-11.6L9.79,68.628s.013.008.017.013.013.008.017.013a.149.149,0,0,0,.034.021s.008,0,.013.008l.051.025s.008,0,.013,0a.44.44,0,0,0,.042.017s.013,0,.017,0a.124.124,0,0,0,.038.008s.013,0,.017,0,.03,0,.042.008H10.1c.017,0,.038,0,.055,0h0a.242.242,0,0,0,.055,0h.013a.151.151,0,0,0,.042-.008s.013,0,.017,0a.124.124,0,0,1,.038-.008s.013,0,.017,0a.292.292,0,0,0,.042-.017s.008,0,.013,0l.051-.025s.008,0,.013-.008l.034-.021s.013-.008.017-.013.013-.008.017-.013l8.441-7.21Z" transform="translate(0 0)" fill="#354052"/>
    </g>
  </g>
</svg>
