<svg xmlns="http://www.w3.org/2000/svg" width="23.557" height="23.54" viewBox="0 0 23.557 23.54">
  <g id="manage-participants" transform="translate(-1080.994 -251.658)">
    <path id="Path_116" data-name="Path 116" d="M37.677,262.619a2.775,2.775,0,1,0-2.775-2.775A2.778,2.778,0,0,0,37.677,262.619Zm0-3.882a1.107,1.107,0,1,1-1.107,1.107A1.108,1.108,0,0,1,37.677,258.737Z" transform="translate(1048.283 6.515)" stroke="#fff" stroke-width="0.5"/>
    <path id="Path_117" data-name="Path 117" d="M4.716,385.041A4.722,4.722,0,0,0,0,389.757v.834H9.433v-.834A4.722,4.722,0,0,0,4.716,385.041Zm-2.932,3.882a3.048,3.048,0,0,1,5.864,0Z" transform="translate(1081.244 -115.643)" stroke="#fff" stroke-width="0.5"/>
    <path id="Path_118" data-name="Path 118" d="M353.071,262.619a2.775,2.775,0,1,0-2.775-2.775A2.778,2.778,0,0,0,353.071,262.619Zm0-3.882a1.107,1.107,0,1,1-1.107,1.107A1.108,1.108,0,0,1,353.071,258.737Z" transform="translate(746.511 6.515)" stroke="#fff" stroke-width="0.5"/>
    <path id="Path_119" data-name="Path 119" d="M320.11,385.041a4.722,4.722,0,0,0-4.716,4.716v.834h9.433v-.834A4.722,4.722,0,0,0,320.11,385.041Zm-2.932,3.882a3.048,3.048,0,0,1,5.864,0Z" transform="translate(779.474 -115.643)" stroke="#fff" stroke-width="0.5"/>
    <path id="Path_120" data-name="Path 120" d="M195.374,5.707A2.775,2.775,0,1,0,192.6,2.931,2.778,2.778,0,0,0,195.374,5.707Zm0-3.882a1.107,1.107,0,1,1-1.107,1.107A1.108,1.108,0,0,1,195.374,1.824Z" transform="translate(897.397 251.752)" stroke="#fff" stroke-width="0.5"/>
    <path id="Path_121" data-name="Path 121" d="M167.13,132.844a4.716,4.716,0,0,0-9.433,0v.834h9.433v-.834Zm-7.648-.834a3.048,3.048,0,0,1,5.864,0Z" transform="translate(930.358 129.596)" stroke="#fff" stroke-width="0.5"/>
    <path id="Path_122" data-name="Path 122" d="M173.453,266.6v-3.789h-1.668V266.6L168.5,268.5l.834,1.445,3.281-1.894,3.281,1.894.834-1.445Z" transform="translate(920.153 0.815)" stroke="#000" stroke-width="0.5"/>
  </g>
</svg>
