<svg xmlns="http://www.w3.org/2000/svg" width="15.885" height="13.815" viewBox="0 0 15.885 13.815">
  <path id="law-svgrepo-com" d="M8.963,2.518a.518.518,0,0,0-1.036,0V3.727H6.563a1.209,1.209,0,0,0-.68.209l-1.171.8a.173.173,0,0,1-.1.03H1.781a.518.518,0,0,0,0,1.036H2.87L.544,11.1a.526.526,0,0,0,.145.608,2.406,2.406,0,0,0,.213.153,4.2,4.2,0,0,0,.547.3,4.822,4.822,0,0,0,3.973,0,4.2,4.2,0,0,0,.547-.3,2.206,2.206,0,0,0,.214-.154.518.518,0,0,0,.144-.606L4,5.8h.612a1.21,1.21,0,0,0,.68-.209l1.172-.8a.173.173,0,0,1,.1-.03H7.927V14.779h-3.1a.518.518,0,0,0,0,1.036h7.235a.518.518,0,0,0,0-1.036h-3.1V4.763h1.364a.17.17,0,0,1,.1.03l1.172.8a1.21,1.21,0,0,0,.68.209h.612L10.56,11.1a.518.518,0,0,0,.159.619c.008.006,0,0,0,0a2.178,2.178,0,0,0,.214.142,4.286,4.286,0,0,0,.546.276,5.15,5.15,0,0,0,3.945,0,4.349,4.349,0,0,0,.546-.276,2.418,2.418,0,0,0,.214-.142.518.518,0,0,0,.159-.619L14.019,5.8h1.09a.518.518,0,0,0,0-1.036H12.276a.173.173,0,0,1-.1-.03l-1.172-.8a1.209,1.209,0,0,0-.68-.209H8.963Zm-7.292,8.6a3.776,3.776,0,0,0,3.533,0L3.437,7.09ZM11.693,11.1c.057.028.12.057.19.087a4.1,4.1,0,0,0,3.329-.087L13.453,7.089,11.693,11.1Z" transform="translate(-0.502 -2)" fill-rule="evenodd"/>
</svg>
