<svg xmlns="http://www.w3.org/2000/svg" width="13.362" height="13.3" viewBox="0 0 13.362 13.3">
  <path id="mindmap-svgrepo-com" d="M12.168,7.21a1.07,1.07,0,0,0-.877.459L10.5,7.532c0-.03,0-.059,0-.089a2.61,2.61,0,0,0-.195-.99l1.336-.806a1.072,1.072,0,1,0-.407-.668l-1.33.8a2.625,2.625,0,0,0-1.639-.934V3.2a1.236,1.236,0,1,0-.782,0V4.847a2.633,2.633,0,0,0-2,1.523L3.034,5.618a1.524,1.524,0,1,0-.293.728l2.532.778a2.608,2.608,0,0,0,.712,2.135l-1.1,1.174a1.3,1.3,0,1,0,.586.519L6.607,9.739A2.618,2.618,0,0,0,9.1,9.766l1.137,1.729a1.521,1.521,0,1,0,.679-.392L9.729,9.3a2.63,2.63,0,0,0,.629-1l.75.13A1.07,1.07,0,1,0,12.168,7.21Zm-6.132.233A1.843,1.843,0,1,1,7.878,9.285,1.845,1.845,0,0,1,6.035,7.443Z" transform="translate(0 -0.796)" fill="#010101"/>
</svg>
