<svg xmlns="http://www.w3.org/2000/svg" width="25.01" height="23.853" viewBox="0 0 25.01 23.853">
  <g id="Group_972" data-name="Group 972" transform="translate(-17.995 -440.384)">
    <circle id="Ellipse_4" data-name="Ellipse 4" cx="0.364" cy="0.364" r="0.364" transform="translate(38.521 451.288)" stroke="#131523" stroke-width="0.5"/>
    <circle id="Ellipse_5" data-name="Ellipse 5" cx="0.364" cy="0.364" r="0.364" transform="translate(21.419 451.288)" stroke="#131523" stroke-width="0.5"/>
    <circle id="Ellipse_6" data-name="Ellipse 6" cx="0.364" cy="0.364" r="0.364" transform="translate(23.343 452.606)" stroke="#131523" stroke-width="0.5"/>
    <circle id="Ellipse_8" data-name="Ellipse 8" cx="0.364" cy="0.364" r="0.364" transform="translate(24.662 453.925)" stroke="#131523" stroke-width="0.5"/>
    <circle id="Ellipse_9" data-name="Ellipse 9" cx="0.364" cy="0.364" r="0.364" transform="translate(27.299 453.925)" stroke="#131523" stroke-width="0.5"/>
    <circle id="Ellipse_10" data-name="Ellipse 10" cx="0.364" cy="0.364" r="0.364" transform="translate(28.617 455.244)" stroke="#131523" stroke-width="0.5"/>
    <circle id="Ellipse_11" data-name="Ellipse 11" cx="0.364" cy="0.364" r="0.364" transform="translate(31.254 455.244)" stroke="#131523" stroke-width="0.5"/>
    <circle id="Ellipse_13" data-name="Ellipse 13" cx="0.364" cy="0.364" r="0.364" transform="translate(29.936 456.562)" stroke="#131523" stroke-width="0.5"/>
    <circle id="Ellipse_14" data-name="Ellipse 14" cx="0.364" cy="0.364" r="0.364" transform="translate(33.891 452.606)" stroke="#131523" stroke-width="0.5"/>
    <circle id="Ellipse_15" data-name="Ellipse 15" cx="0.364" cy="0.364" r="0.364" transform="translate(36.528 452.606)" stroke="#131523" stroke-width="0.5"/>
    <path id="Path_81" data-name="Path 81" d="M19.9,14.788,24,12.444,19.783,10.05,24,7.64,12,.826,0,7.64,4.217,10.05,0,12.444l4.217,2.409L0,17.248,12,24.1l12-6.856-4.217-2.395.031-.018A.412.412,0,0,0,19.9,14.788ZM12,1.83,22.235,7.642,18.9,9.548h0L12,13.49,1.765,7.642ZM4.86,10.689a.431.431,0,0,0,.692.124l.988.564A.435.435,0,1,0,7,11.81a.425.425,0,0,0-.058-.2l4.511,2.578a.425.425,0,0,0-.086.248.437.437,0,1,0,.873,0,.377.377,0,0,0-.013-.062l4.39-2.508a.432.432,0,0,0,.427.387.437.437,0,0,0,.437-.437.428.428,0,0,0-.177-.342l.962-.549a.408.408,0,0,0,.089.018.432.432,0,0,0,.41-.3l.14-.08,3.334,1.893-.866.495a.436.436,0,0,0-.833.179.426.426,0,0,0,.087.248l-1.723.984h0l-2.79,1.594a.425.425,0,0,0,.059-.206.437.437,0,1,0-.456.433l-.988.565a.435.435,0,0,0-.74.313.417.417,0,0,0,.02.1l-2,1.145L9.591,16.917a.432.432,0,0,0-.41-.3.411.411,0,0,0-.09.018l-.961-.549a.429.429,0,0,0,.178-.342.437.437,0,0,0-.437-.437.432.432,0,0,0-.427.387L3.053,13.183a.393.393,0,0,0-.424-.5.428.428,0,0,0-.271.1l-.594-.339ZM22.235,17.25,12,23.1,1.765,17.25,5.1,15.357,12,19.3l6.9-3.943Z" transform="translate(18.5 439.846)" stroke="#131523" stroke-width="0.5"/>
  </g>
</svg>
