<svg xmlns="http://www.w3.org/2000/svg" width="12.209" height="16.614" viewBox="0 0 12.209 16.614">
  <g id="file-svgrepo-com_3_" data-name="file-svgrepo-com (3)" transform="translate(-64.95)">
    <g id="Group_996" data-name="Group 996" transform="translate(64.95)">
      <path id="Path_310" data-name="Path 310" d="M73.613,0H64.95V16.614H77.159V3.8ZM71.372,14.518H67.154a.342.342,0,0,1,0-.685h4.218a.342.342,0,1,1,0,.685Zm3.587-2.163H67.154a.342.342,0,0,1,0-.685h7.805a.342.342,0,0,1,0,.685Zm0-2.15H67.154a.342.342,0,0,1,0-.685h7.805a.342.342,0,0,1,0,.685Zm0-2.15H67.154a.341.341,0,0,1-.342-.342.333.333,0,0,1,.342-.342h7.805a.342.342,0,0,1,0,.685Zm0-2.163H67.154a.342.342,0,0,1,0-.685h7.805a.341.341,0,0,1,.342.342A.337.337,0,0,1,74.959,5.893ZM72.928,4.469V.671l3.547,3.8Z" transform="translate(-64.95)" fill="#fff"/>
    </g>
  </g>
</svg>
