<svg xmlns="http://www.w3.org/2000/svg" width="24.203" height="21.734" viewBox="0 0 24.203 21.734">
  <path id="package-svgrepo-com" d="M23.537,29.558l-11.39-4.265a.5.5,0,0,0-.35,0L.327,29.588a.5.5,0,0,0-.265.7V42.332A.5.5,0,0,0,.4,42.8l11.287,3.9a.593.593,0,0,0,.508.063L23.663,42.8A.5.5,0,0,0,24,42.332V30.055C24,29.816,23.723,29.624,23.537,29.558Zm-1.517.5L12,33.806,9,32.68l9.542-3.93Zm-4.855-1.818L7.138,32.366l-.247,2.4-1.867-.752V31.787l10.4-4.2Zm-5.193-1.945,2.071.776L4.4,30.961l-2.451-.918ZM1.06,30.8l2.968,1.111v2.779l3.721,1.5.286-2.778,3.5,1.31V45.591L1.06,41.977V30.8ZM23,41.977,12.529,45.591V34.7L23,30.774Z" transform="translate(0.103 -25.16)" stroke="#131523" stroke-width="0.2"/>
</svg>
