<svg xmlns="http://www.w3.org/2000/svg" width="11" height="13.821" viewBox="0 0 11 13.821">
  <g id="document-svgrepo-com" transform="translate(-50)">
    <g id="XMLID_25_" transform="translate(50)">
      <g id="Group_946" data-name="Group 946" transform="translate(0.282 0.282)">
        <path id="Path_238" data-name="Path 238" d="M342.538,12.538H340V10Z" transform="translate(-332.103 -10)" fill="#afb6bb"/>
        <path id="Path_239" data-name="Path 239" d="M70.436,12.538V23.256H60V10h7.9v2.538Z" transform="translate(-60 -10)" fill="#fff"/>
      </g>
      <g id="Group_947" data-name="Group 947" transform="translate(0)">
        <path id="Path_240" data-name="Path 240" d="M61,2.821a.281.281,0,0,0-.082-.2L58.379.083a.281.281,0,0,0-.2-.082h-7.9A.282.282,0,0,0,50,.282V13.538a.282.282,0,0,0,.282.282H60.718A.282.282,0,0,0,61,13.538V2.821ZM58.462.963l1.575,1.575H58.462Zm-7.9,12.293V.564H57.9V2.821a.282.282,0,0,0,.282.282h2.256V13.256Z" transform="translate(-50)" fill="#231f20"/>
        <rect id="Rectangle_952" data-name="Rectangle 952" width="7.765" transform="translate(1.941 4.762)" fill="#231f20"/>
        <rect id="Rectangle_953" data-name="Rectangle 953" width="8.412" height="0.647" transform="translate(1.294 6.056)" fill="#231f20"/>
        <rect id="Rectangle_954" data-name="Rectangle 954" width="8.412" height="0.647" transform="translate(1.294 7.997)" fill="#231f20"/>
        <rect id="Rectangle_955" data-name="Rectangle 955" width="8.412" height="0.647" transform="translate(1.294 9.291)" fill="#231f20"/>
        <rect id="Rectangle_956" data-name="Rectangle 956" width="6.471" height="0.647" transform="translate(1.294 11.232)" fill="#231f20"/>
        <rect id="Rectangle_957" data-name="Rectangle 957" width="1.294" height="0.647" transform="translate(8.412 11.232)" fill="#231f20"/>
        <rect id="Rectangle_958" data-name="Rectangle 958" width="1.941" transform="translate(1.294 1.526)" fill="#231f20"/>
        <rect id="Rectangle_959" data-name="Rectangle 959" width="3.235" height="0.647" transform="translate(1.294 2.173)" fill="#231f20"/>
      </g>
    </g>
  </g>
</svg>
