<svg xmlns="http://www.w3.org/2000/svg" width="24.5" height="22.118" viewBox="0 0 24.5 22.118">
  <path id="binoculars-svgrepo-com" d="M23.339,16.4,20.718,5.652a3.836,3.836,0,0,0-3.482-2.968,3.73,3.73,0,0,0-3.9,3.726V8.3H10.667V6.41a3.73,3.73,0,0,0-3.9-3.726A3.835,3.835,0,0,0,3.282,5.652L.66,16.4a5.33,5.33,0,1,0,9.993,2.827.405.405,0,0,0,.013-.065v-4.2h2.667v4.2a.412.412,0,0,0,.013.062A5.33,5.33,0,1,0,23.339,16.4ZM5.333,23.409a4.435,4.435,0,0,1-3.577-7.071c.024-.032.047-.064.071-.1a4.477,4.477,0,0,1,.76-.766l.077-.058a4.438,4.438,0,0,1,.387-.261l.072-.044a4.451,4.451,0,0,1,1-.423c.036-.01.072-.019.108-.028.14-.036.281-.064.424-.087.044-.007.088-.015.133-.02a4.4,4.4,0,0,1,.543-.036,4.449,4.449,0,0,1,4.444,4.444c0,.036,0,.069-.005.1l0,.073v0A4.446,4.446,0,0,1,5.333,23.409Zm4.079-7.874c-.035-.041-.072-.079-.108-.119-.1-.108-.2-.212-.3-.311-.049-.047-.1-.092-.15-.136q-.153-.135-.317-.258c-.051-.038-.1-.078-.152-.114q-.214-.15-.443-.279c-.02-.011-.039-.025-.059-.036a5.384,5.384,0,0,0-.537-.253c-.054-.022-.11-.04-.165-.06-.134-.05-.27-.1-.409-.134-.067-.019-.134-.036-.2-.052-.139-.033-.279-.06-.422-.081-.063-.01-.126-.022-.19-.029a5.364,5.364,0,0,0-.624-.04c-.169,0-.337.009-.5.025-.068.006-.135.018-.2.027-.095.013-.189.025-.282.043s-.166.036-.248.055-.146.036-.219.056q-.135.038-.267.084c-.062.021-.123.044-.184.067-.092.035-.182.072-.272.112-.055.024-.108.052-.162.078-.09.044-.181.088-.268.138-.049.028-.1.059-.144.088-.088.053-.177.106-.262.164-.022.015-.043.033-.065.048-.1.072-.2.145-.3.224L4.145,5.863A2.943,2.943,0,0,1,6.8,3.573,2.842,2.842,0,0,1,9.778,6.41v9.609L9.767,16A5.3,5.3,0,0,0,9.412,15.535Zm1.255-1.46V9.187h2.667v4.889Zm3.556,1.944V6.41a2.841,2.841,0,0,1,2.84-2.841c.044,0,.088,0,.133,0a2.943,2.943,0,0,1,2.659,2.29l2.19,8.978a5.322,5.322,0,0,0-.637-.443c-.044-.027-.088-.055-.132-.08-.089-.051-.182-.1-.274-.141-.052-.025-.1-.052-.156-.075-.09-.04-.182-.077-.275-.113-.06-.023-.12-.045-.18-.066-.088-.03-.178-.059-.268-.084-.072-.02-.144-.039-.217-.056s-.165-.04-.249-.055-.187-.03-.282-.043c-.068-.009-.135-.02-.2-.027-.166-.016-.334-.026-.5-.026a5.263,5.263,0,0,0-.624.04c-.064.008-.126.019-.19.029-.143.022-.283.048-.422.081-.068.016-.136.033-.2.052-.139.039-.275.084-.409.134-.055.02-.111.038-.165.06a5.338,5.338,0,0,0-.537.253c-.02.011-.039.024-.059.036q-.229.129-.443.279c-.052.036-.1.076-.152.114q-.163.123-.317.258c-.051.045-.1.09-.15.136-.1.1-.2.2-.3.311-.036.04-.074.078-.108.119a5.3,5.3,0,0,0-.355.469A.157.157,0,0,1,14.222,16.019Zm4.444,7.39a4.446,4.446,0,0,1-4.435-4.264v0l0-.073c0-.035-.005-.069-.005-.1a4.449,4.449,0,0,1,4.444-4.444,4.319,4.319,0,0,1,.543.037c.045.005.089.013.133.02.144.022.285.051.425.087.036.009.072.017.107.028a4.447,4.447,0,0,1,1,.423l.07.042a4.424,4.424,0,0,1,.391.264c.024.019.05.036.074.055a4.445,4.445,0,0,1,.763.769l.068.091a4.43,4.43,0,0,1,.869,2.628A4.449,4.449,0,0,1,18.667,23.409Z" transform="translate(0.25 -2.43)" stroke="#131523" stroke-width="0.5"/>
</svg>
