<svg xmlns="http://www.w3.org/2000/svg" width="40" height="40" viewBox="0 0 40 40">
  <g id="Group_974" data-name="Group 974" transform="translate(-88 -294)">
    <rect id="Rounded_Rectangle_9" data-name="Rounded Rectangle 9" width="40" height="40" rx="5" transform="translate(88 294)" fill="#f5f6fa"/>
    <path id="users-more-svgrepo-com" d="M18,19V18a4,4,0,0,0-4-4H10a4,4,0,0,0-4,4v1m17,0V18a4,4,0,0,0-4-4h-.5M1,19V18a4,4,0,0,1,4-4h.5M17,11a3,3,0,0,0,0-6M7,11A3,3,0,0,1,7,5m8,3a3,3,0,1,1-3-3A3,3,0,0,1,15,8Z" transform="translate(96.5 302.5)" fill="none" stroke="#000" stroke-linecap="round" stroke-linejoin="round" stroke-width="1.5"/>
  </g>
</svg>
