<svg xmlns="http://www.w3.org/2000/svg" width="34" height="34" viewBox="0 0 34 34">
  <g id="Group_1064" data-name="Group 1064" transform="translate(-777 -285)">
    <g id="Rectangle_667" data-name="Rectangle 667" transform="translate(777 285)" fill="#013b6a" stroke="#013b6a" stroke-width="1">
      <rect width="34" height="34" rx="4" stroke="none"/>
      <rect x="0.5" y="0.5" width="33" height="33" rx="3.5" fill="none"/>
    </g>
    <g id="users-svgrepo-com_2_" data-name="users-svgrepo-com (2)" transform="translate(786.303 292.756)">
      <path id="Path_158" data-name="Path 158" d="M50.071,7.366a2.959,2.959,0,1,1,2.959,2.959A2.959,2.959,0,0,1,50.071,7.366Zm4.215,3.161H51.775a3.793,3.793,0,0,0-3.789,3.788v3.071l.008.048.212.066a17.251,17.251,0,0,0,5.151.83,10.583,10.583,0,0,0,4.5-.844l.2-.1h.021V14.315A3.793,3.793,0,0,0,54.286,10.526Zm3.788-4.608a2.959,2.959,0,1,0-2.959-2.959A2.959,2.959,0,0,0,58.074,5.918Zm1.255.2H56.818c-.06,0-.118.006-.177.009a3.64,3.64,0,0,1-.773,4.211,4.509,4.509,0,0,1,3.155,3.569,10.14,10.14,0,0,0,3.876-.83l.2-.1h.021V9.908A3.792,3.792,0,0,0,59.329,6.12Z" transform="translate(-47.986)" fill="#fff"/>
    </g>
    <g id="user-multiple-users-svgrepo-com_1_" data-name="user-multiple-users-svgrepo-com (1)" transform="translate(794 303.037)">
      <path id="Path_157" data-name="Path 157" d="M178.984,236.27v-1.42l-1.051-.105a3.745,3.745,0,0,0-.5-1.211l.67-.818-1-1-.818.669a3.754,3.754,0,0,0-1.212-.5l-.105-1.049h-1.426l-.105,1.049a3.752,3.752,0,0,0-1.212.5l-.817-.669-1,1,.669.818a3.751,3.751,0,0,0-.5,1.212l-1.051.105v1.42l1.051.105a3.75,3.75,0,0,0,.5,1.212l-.669.818,1,1,.817-.669a3.739,3.739,0,0,0,1.213.5l.105,1.049h1.426l.105-1.049a3.742,3.742,0,0,0,1.212-.5l.817.669,1-1-.67-.819a3.731,3.731,0,0,0,.5-1.21Zm-4.735,1.587a2.3,2.3,0,1,1,2.3-2.3h0A2.3,2.3,0,0,1,174.248,237.857Z" transform="translate(-169.512 -229.828)" fill="#fff" stroke="#013b6a" stroke-width="1"/>
      <path id="Path_156" data-name="Path 156" d="M216.33,275.276a2.3,2.3,0,1,0,2.3,2.3h0A2.3,2.3,0,0,0,216.33,275.276Zm0,3.686a1.387,1.387,0,1,1,1.387-1.387h0a1.387,1.387,0,0,1-1.387,1.387Z" transform="translate(-211.594 -271.842)" fill="#fff"/>
    </g>
  </g>
</svg>
