<svg xmlns="http://www.w3.org/2000/svg" width="34" height="34" viewBox="0 0 34 34">
  <g id="Group_1063" data-name="Group 1063" transform="translate(-721 -285)">
    <rect id="Rectangle_668" data-name="Rectangle 668" width="34" height="34" rx="4" transform="translate(721 285)" fill="#013b6a"/>
    <g id="users-svgrepo-com_2_" data-name="users-svgrepo-com (2)" transform="translate(730.236 292.756)">
      <path id="Path_158" data-name="Path 158" d="M50.071,7.366a2.959,2.959,0,1,1,2.959,2.959A2.959,2.959,0,0,1,50.071,7.366Zm4.215,3.161H51.775a3.793,3.793,0,0,0-3.789,3.788v3.071l.008.048.212.066a17.251,17.251,0,0,0,5.151.83,10.583,10.583,0,0,0,4.5-.844l.2-.1h.021V14.315A3.793,3.793,0,0,0,54.286,10.526Zm3.788-4.608a2.959,2.959,0,1,0-2.959-2.959A2.959,2.959,0,0,0,58.074,5.918Zm1.255.2H56.818c-.06,0-.118.006-.177.009a3.64,3.64,0,0,1-.773,4.211,4.509,4.509,0,0,1,3.155,3.569,10.14,10.14,0,0,0,3.876-.83l.2-.1h.021V9.908A3.792,3.792,0,0,0,59.329,6.12Z" transform="translate(-47.986)" fill="#fff"/>
    </g>
  </g>
</svg>
