<svg xmlns="http://www.w3.org/2000/svg" width="14.787" height="15.566" viewBox="0 0 14.787 15.566">
  <path id="lan-svgrepo-com" d="M7.67,3.167V6.281a.389.389,0,0,0,.389.389h4.67a.389.389,0,0,0,.389-.389V3.167a.389.389,0,0,0-.389-.389H8.059A.389.389,0,0,0,7.67,3.167Zm3.113,6.615h2.733a1.167,1.167,0,0,1,1.167,1.167v.389H16.62a1.167,1.167,0,0,1,1.167,1.167V15.62a1.167,1.167,0,0,1-1.167,1.167h-.778a.389.389,0,0,1,0,.778H12.728a.389.389,0,1,1,0-.778H11.95a1.167,1.167,0,0,1-1.167-1.167V12.507a1.167,1.167,0,0,1,1.167-1.167H13.9V10.95a.389.389,0,0,0-.389-.389H7.281a.389.389,0,0,0-.389.389v.389H8.837A1.167,1.167,0,0,1,10,12.507V15.62a1.167,1.167,0,0,1-1.167,1.167H8.059a.389.389,0,1,1,0,.778H4.946a.389.389,0,1,1,0-.778H4.167A1.167,1.167,0,0,1,3,15.62V12.507a1.167,1.167,0,0,1,1.167-1.167H6.113V10.95A1.167,1.167,0,0,1,7.281,9.783H10V8.226H8.837a.389.389,0,0,1,0-.778H8.059A1.167,1.167,0,0,1,6.891,6.281V3.167A1.167,1.167,0,0,1,8.059,2h4.67A1.167,1.167,0,0,1,13.9,3.167V6.281a1.167,1.167,0,0,1-1.167,1.167H11.95a.389.389,0,0,1,0,.778H10.783Zm3.5,2.335H11.95a.389.389,0,0,0-.389.389V15.62a.389.389,0,0,0,.389.389h4.67a.389.389,0,0,0,.389-.389V12.507a.389.389,0,0,0-.389-.389H14.288Zm-10.509.389V15.62a.389.389,0,0,0,.389.389h4.67a.389.389,0,0,0,.389-.389V12.507a.389.389,0,0,0-.389-.389H4.167A.389.389,0,0,0,3.778,12.507Z" transform="translate(-3 -2)"/>
</svg>
