<svg xmlns="http://www.w3.org/2000/svg" width="15.199" height="15.196" viewBox="0 0 15.199 15.196">
  <g id="objective-pie-chart-icon" transform="translate(0 -0.05)">
    <g id="Group_1005" data-name="Group 1005" transform="translate(0 0.05)">
      <path id="Path_328" data-name="Path 328" d="M273.879,6.752h5.94a.382.382,0,0,0,.382-.382A6.325,6.325,0,0,0,273.882.05a.381.381,0,0,0-.382.379v5.94A.377.377,0,0,0,273.879,6.752Zm.382-5.925a5.563,5.563,0,0,1,5.164,5.164h-5.164Z" transform="translate(-265.003 -0.05)" fill="#010101"/>
      <path id="Path_329" data-name="Path 329" d="M6.91,58.363a6.914,6.914,0,0,0,6.907-6.907.382.382,0,0,0-.382-.382H7.289V44.932a.382.382,0,0,0-.382-.382,6.907,6.907,0,1,0,0,13.813Zm-.382-13.04v6.133a.382.382,0,0,0,.382.382h6.133a6.145,6.145,0,1,1-6.515-6.515Z" transform="translate(0 -43.167)" fill="#010101"/>
    </g>
  </g>
</svg>
