<svg xmlns="http://www.w3.org/2000/svg" width="18.121" height="18.121" viewBox="0 0 18.121 18.121">
  <g id="objective-priorities-icon" transform="translate(-2 -0.996)">
    <path id="Path_306" data-name="Path 306" d="M24.934,3.872a.546.546,0,0,0-.562-.375H22.5V1.623a.546.546,0,0,0-.375-.562.57.57,0,0,0-.687.125l-2.5,2.5a.567.567,0,0,0-.187.437V6.372L15.187,9.933a.6.6,0,0,0,0,.875.6.6,0,0,0,.875,0l3.561-3.561h2.249a.567.567,0,0,0,.437-.187l2.5-2.5A.57.57,0,0,0,24.934,3.872Z" transform="translate(-4.878 0)" fill="#fff"/>
    <path id="Path_307" data-name="Path 307" d="M15.436,15.436a1.812,1.812,0,0,1-2.624,0,1.812,1.812,0,0,1,0-2.624l1.749-1.749A1.063,1.063,0,0,0,14.124,11a3.124,3.124,0,1,0,3.124,3.124,1.063,1.063,0,0,0-.062-.437Z" transform="translate(-3.377 -3.754)" fill="#fff"/>
    <path id="Path_308" data-name="Path 308" d="M18.307,8.31a1.7,1.7,0,0,1-1.312.562H15.245l-.437.437a3.666,3.666,0,0,1,.25,1.437,4.373,4.373,0,1,1-4.373-4.373,5.322,5.322,0,0,1,1.437.25l.5-.375V4.5a1.7,1.7,0,0,1,.562-1.312l.625-.625A8.57,8.57,0,0,0,10.747,2a8.747,8.747,0,1,0,8.747,8.747,8.57,8.57,0,0,0-.562-3.061Z" transform="translate(0 -0.377)" fill="#fff"/>
  </g>
</svg>
