<svg xmlns="http://www.w3.org/2000/svg" width="18.731" height="18.83" viewBox="0 0 18.731 18.83">
  <g id="Online-participants" transform="translate(-2 -1.83)">
    <path id="Path_378" data-name="Path 378" d="M16.081,11.583a3.336,3.336,0,1,1,3.372-3.336A3.336,3.336,0,0,1,16.081,11.583Zm0-5.5a2.166,2.166,0,1,0,2.2,2.166A2.189,2.189,0,0,0,16.081,6.081Z" transform="translate(-4.47 -1.277)"/>
    <path id="Path_379" data-name="Path 379" d="M16.081,11.583a3.336,3.336,0,1,1,3.372-3.336A3.336,3.336,0,0,1,16.081,11.583Zm0-5.5a2.166,2.166,0,1,0,2.2,2.166A2.189,2.189,0,0,0,16.081,6.081Z" transform="translate(-4.47 -1.277)"/>
    <path id="Path_380" data-name="Path 380" d="M16.142,17.524a12.058,12.058,0,0,0-7.609,1.171A1.036,1.036,0,0,0,8,19.631v2.084a.585.585,0,0,0,1.171,0V19.707a11.075,11.075,0,0,1,7.024-.983Z" transform="translate(-2.488 -6.434)"/>
    <path id="Path_381" data-name="Path 381" d="M25.951,20.972H22.029v-.866a.585.585,0,1,0-1.171,0v.866H16.585a.585.585,0,0,0-.585.585V27.41a.585.585,0,0,0,.585.585h9.365a.585.585,0,0,0,.585-.585V21.557A.585.585,0,0,0,25.951,20.972Zm-.585,5.853H17.171V22.142h3.688v.24a.585.585,0,0,0,1.171,0v-.24h3.336Z" transform="translate(-5.805 -7.335)"/>
    <rect id="Rectangle_1100" data-name="Rectangle 1100" width="3.489" height="0.819" transform="translate(13.595 16.809)"/>
    <path id="Path_382" data-name="Path 382" d="M7.174,12.24a10.536,10.536,0,0,0-4.653,1.171.978.978,0,0,0-.521.86v1.815a.585.585,0,0,0,1.171,0v-1.7a9.365,9.365,0,0,1,4.437-.978A4.261,4.261,0,0,1,7.174,12.24Z" transform="translate(0 -4.317)"/>
    <path id="Path_383" data-name="Path 383" d="M29.855,13.4a10.419,10.419,0,0,0-4.168-1.171A4.367,4.367,0,0,1,25.26,13.4a9.3,9.3,0,0,1,3.945.983v1.7a.585.585,0,0,0,1.171,0V14.267a.978.978,0,0,0-.521-.866Z" transform="translate(-9.645 -4.313)"/>
    <path id="Path_384" data-name="Path 384" d="M8.769,6.988V6.6A1.8,1.8,0,0,1,9.085,3.02a1.844,1.844,0,0,1,1.288.521,4.776,4.776,0,0,1,1-.632A3,3,0,0,0,6.1,4.823,2.985,2.985,0,0,0,8.851,7.749a4.343,4.343,0,0,1-.082-.761Z" transform="translate(-1.7 -0.019)"/>
    <path id="Path_385" data-name="Path 385" d="M23.24,1.83a3.026,3.026,0,0,0-2.159.907,4.607,4.607,0,0,1,1.112.586A1.838,1.838,0,0,1,25.078,4.8,1.809,1.809,0,0,1,24.03,6.419a4.179,4.179,0,0,1,.035.544,4.612,4.612,0,0,1-.059.7A2.985,2.985,0,0,0,26.249,4.8,3,3,0,0,0,23.24,1.83Z" transform="translate(-7.912 0)"/>
  </g>
</svg>
