<svg id="view-svgrepo-com_1_" data-name="view-svgrepo-com (1)" xmlns="http://www.w3.org/2000/svg" width="17" height="9.738" viewBox="0 0 17 9.738">
  <path id="Path_10" data-name="Path 10" d="M14.663,15.2a8.765,8.765,0,0,0-12.383,0L0,17.485l2.337,2.337a8.766,8.766,0,0,0,12.383,0L17,17.541Zm-.349,4.211a8.191,8.191,0,0,1-11.57,0L.812,17.485l1.874-1.874a8.191,8.191,0,0,1,11.57,0l1.931,1.931Z" transform="translate(0 -12.644)" fill="#010101"/>
  <path id="Path_11" data-name="Path 11" d="M23.582,21.57a2.012,2.012,0,0,0-2.01,2.01.287.287,0,0,0,.574,0,1.437,1.437,0,0,1,1.436-1.436.287.287,0,1,0,0-.574Z" transform="translate(-15.378 -19.007)" fill="#010101"/>
  <path id="Path_12" data-name="Path 12" d="M20.305,16.57A3.733,3.733,0,1,0,24.038,20.3,3.737,3.737,0,0,0,20.305,16.57Zm0,6.892A3.159,3.159,0,1,1,23.464,20.3,3.162,3.162,0,0,1,20.305,23.462Z" transform="translate(-11.813 -15.443)" fill="#010101"/>
</svg>
