<svg xmlns="http://www.w3.org/2000/svg" width="34" height="34" viewBox="0 0 34 34">
  <g id="paint-btn" transform="translate(-1314.887 -398)">
    <path id="brush-for-painting-svgrepo-com" d="M19.4.408h0C18.35-.638,15.619.4,13.3,2.721h0A12.855,12.855,0,0,0,12.253,3.9c-.388,2.219-1.36,3.793-2.5,3.793h0A1.524,1.524,0,0,1,8.72,7.23h0l-.842-.842a1.219,1.219,0,0,0-1.724,0L2.883,9.657l-.173.173L.36,12.18a1.219,1.219,0,0,0,0,1.724L5.9,19.443a1.219,1.219,0,0,0,1.724,0l2.351-2.351.173-.172,3.268-3.268a1.219,1.219,0,0,0,0-1.724l-.842-.842v0a1.524,1.524,0,0,1-.461-1.036h0c0-1.138,1.574-2.109,3.793-2.5a12.864,12.864,0,0,0,1.177-1.043h0C19.405,4.184,20.441,1.453,19.4.408ZM10.042,15.784h0L7.771,18.056h0l-.594.594a.621.621,0,0,1-.878,0L1.154,13.5a.621.621,0,0,1,0-.878l.594-.594h0L3.985,9.795h0c.545-.545,1.254-.719,1.585-.388S5.733,10.453,5.188,11h0c-.545.545-.712,1.261-.382,1.591s1.043.159,1.621-.419h0c.54-.518,1.227-.679,1.551-.355s.17,1.017-.348,1.557l0,0c-.578.578-.746,1.295-.415,1.625s1.043.159,1.587-.385l.034-.034h0c.54-.518,1.227-.679,1.551-.355S10.56,15.244,10.042,15.784Zm2.247-3.124a.621.621,0,0,1,0,.878l-.7.7L5.568,8.211l.7-.7a.621.621,0,0,1,.878,0Zm4.277-9.422a.974.974,0,1,1,1.377,0A.974.974,0,0,1,16.566,3.238Z" transform="translate(1321.809 406.166)" fill="#354052"/>
    <g id="cta-1" transform="translate(1314.887 398)">
      <rect id="Rectangle_9_copy_7" data-name="Rectangle 9 copy 7" width="34" height="34" rx="5" fill="#e7edf6" style="mix-blend-mode: multiply;isolation: isolate"/>
    </g>
  </g>
</svg>
