<svg xmlns="http://www.w3.org/2000/svg" width="18.173" height="18.16" viewBox="0 0 18.173 18.16">
  <g id="Group_953" data-name="Group 953" transform="translate(-1080.994 -251.658)">
    <path id="Path_116" data-name="Path 116" d="M37.029,261.323A2.127,2.127,0,1,0,34.9,259.2,2.13,2.13,0,0,0,37.029,261.323Zm0-2.976a.848.848,0,1,1-.848.848A.849.849,0,0,1,37.029,258.347Z" transform="translate(1047.83 3.789)" stroke="#fff" stroke-width="0.5"/>
    <path id="Path_117" data-name="Path 117" d="M3.615,385.041A3.619,3.619,0,0,0,0,388.656v.639H7.23v-.639A3.619,3.619,0,0,0,3.615,385.041Zm-2.247,2.976a2.336,2.336,0,0,1,4.494,0Z" transform="translate(1081.244 -119.727)" stroke="#fff" stroke-width="0.5"/>
    <path id="Path_118" data-name="Path 118" d="M352.423,261.323A2.127,2.127,0,1,0,350.3,259.2,2.13,2.13,0,0,0,352.423,261.323Zm0-2.976a.848.848,0,1,1-.848.848A.849.849,0,0,1,352.423,258.347Z" transform="translate(742.877 3.789)" stroke="#fff" stroke-width="0.5"/>
    <path id="Path_119" data-name="Path 119" d="M319.009,385.041a3.619,3.619,0,0,0-3.615,3.615v.639h7.23v-.639A3.619,3.619,0,0,0,319.009,385.041Zm-2.247,2.976a2.336,2.336,0,0,1,4.494,0Z" transform="translate(776.293 -119.727)" stroke="#fff" stroke-width="0.5"/>
    <path id="Path_120" data-name="Path 120" d="M194.726,4.41A2.127,2.127,0,1,0,192.6,2.283,2.13,2.13,0,0,0,194.726,4.41Zm0-2.976a.848.848,0,1,1-.848.848A.849.849,0,0,1,194.726,1.435Z" transform="translate(895.354 251.752)" stroke="#fff" stroke-width="0.5"/>
    <path id="Path_121" data-name="Path 121" d="M164.927,131.743a3.615,3.615,0,0,0-7.23,0v.639h7.23v-.639Zm-5.862-.639a2.336,2.336,0,0,1,4.494,0Z" transform="translate(928.768 128.238)" stroke="#fff" stroke-width="0.5"/>
    <path id="Path_122" data-name="Path 122" d="M172.3,265.72v-2.9h-1.279v2.9l-2.515,1.452.639,1.108,2.515-1.452,2.515,1.452.639-1.108Z" transform="translate(918.422 -1.922)" stroke="#000" stroke-width="0.5"/>
  </g>
</svg>
