<svg xmlns="http://www.w3.org/2000/svg" width="34" height="34" viewBox="0 0 34 34">
  <g id="pause-icon-btn" transform="translate(-1131 -290)">
    <g id="Group_907" data-name="Group 907" transform="translate(9.113 -108)">
      <g id="Group_878" data-name="Group 878">
        <g id="Group_614" data-name="Group 614" transform="translate(1121.887 398)">
          <rect id="Rectangle_9_copy_7" data-name="Rectangle 9 copy 7" width="34" height="34" rx="5" fill="#e7edf6" style="mix-blend-mode: multiply;isolation: isolate"/>
        </g>
      </g>
    </g>
    <g id="pause-svgrepo-com" transform="translate(1136.271 298)">
      <path id="Path_231" data-name="Path 231" d="M9.648,15.2a2.46,2.46,0,0,1-2.46,2.46h0a2.46,2.46,0,0,1-2.46-2.46V2.46A2.46,2.46,0,0,1,7.189,0h0a2.46,2.46,0,0,1,2.46,2.46Z" transform="translate(0 0)" fill="#0058a3"/>
      <path id="Path_232" data-name="Path 232" d="M34.534,15.2a2.46,2.46,0,0,1-2.46,2.46h0a2.46,2.46,0,0,1-2.46-2.46V2.46A2.46,2.46,0,0,1,32.075,0h0a2.46,2.46,0,0,1,2.46,2.46Z" transform="translate(-15.655 0)" fill="#0058a3"/>
    </g>
  </g>
</svg>
