<svg xmlns="http://www.w3.org/2000/svg" width="13.944" height="13.967" viewBox="0 0 13.944 13.967">
  <g id="bar-chart-svgrepo-com_1_" data-name="bar-chart-svgrepo-com (1)" transform="translate(-0.4 0)">
    <g id="Group_987" data-name="Group 987" transform="translate(0.4 0)">
      <path id="Path_273" data-name="Path 273" d="M.993,246.4a.6.6,0,0,0-.593.593v5.755a.6.6,0,0,0,.593.593.637.637,0,0,0,.593-.593V247A.6.6,0,0,0,.993,246.4Z" transform="translate(-0.4 -239.377)" fill="#010101"/>
      <path id="Path_274" data-name="Path 274" d="M149.893,211.1a.6.6,0,0,0-.593.593v6.764a.593.593,0,0,0,1.186,0v-6.764A.594.594,0,0,0,149.893,211.1Z" transform="translate(-145.056 -205.083)" fill="#010101"/>
      <path id="Path_275" data-name="Path 275" d="M299.693,173.6a.6.6,0,0,0-.593.593v7.833a.6.6,0,0,0,.593.593.611.611,0,0,0,.593-.564v-7.861A.592.592,0,0,0,299.693,173.6Z" transform="translate(-290.586 -168.652)" fill="#010101"/>
      <path id="Path_276" data-name="Path 276" d="M448.593,103.8a.6.6,0,0,0-.593.593v9.819a.593.593,0,0,0,1.186.028V104.4A.6.6,0,0,0,448.593,103.8Z" transform="translate(-435.242 -100.841)" fill="#010101"/>
      <path id="Path_277" data-name="Path 277" d="M11.468.7,9.333.022a.6.6,0,0,0-.741.385.6.6,0,0,0,.385.741l.886.285A24.413,24.413,0,0,1,1.825,3.907a.618.618,0,0,0-.5.653.566.566,0,0,0,.624.5,26.046,26.046,0,0,0,8.317-2.517l-.188.59a.572.572,0,0,0,.356.741.619.619,0,0,0,.741-.356l.681-2.078A.573.573,0,0,0,11.468.7Z" transform="translate(-1.292 0)" fill="#010101"/>
    </g>
  </g>
</svg>
