<?xml version="1.0" encoding="iso-8859-1"?>
<!-- Generator: Adobe Illustrator 19.0.0, SVG Export Plug-In . SVG Version: 6.00 Build 0)  -->
<svg version="1.1" id="Layer_1" xmlns="http://www.w3.org/2000/svg" xmlns:xlink="http://www.w3.org/1999/xlink" x="0px" y="0px"
	 viewBox="0 0 512 512" style="enable-background:new 0 0 512 512;" xml:space="preserve">
<g>
	<g>
		<path fill="#5d5d5d" d="M272.02,0.01v239.96h236.698c1.123,0,2.22,0.115,3.282,0.325C504.293,111.396,400.876,7.88,272.02,0.01z"/>
	</g>
</g>
<g>
	<g>
		<path fill="#5d5d5d" d="M508.718,273.784H287.5l123.912,184.119c0.241,0.361,0.453,0.73,0.663,1.102c56.607-43.503,94.596-110.071,99.778-185.524
			C510.837,273.671,509.791,273.784,508.718,273.784z"/>
	</g>
</g>
<g>
	<g>
		<path fill="#5d5d5d" d="M383.36,476.783L241.087,265.38c-1.878-2.791-2.881-6.078-2.881-9.441V0.152C105.299,9.44,0,120.521,0,255.75
			C0,397.04,114.95,511.99,256.24,511.99c46.533,0,90.207-12.473,127.86-34.245C383.852,477.427,383.588,477.123,383.36,476.783z"/>
	</g>
</g>
<g>
</g>
<g>
</g>
<g>
</g>
<g>
</g>
<g>
</g>
<g>
</g>
<g>
</g>
<g>
</g>
<g>
</g>
<g>
</g>
<g>
</g>
<g>
</g>
<g>
</g>
<g>
</g>
<g>
</g>
</svg>
