<svg id="pin" xmlns="http://www.w3.org/2000/svg" width="33.941" height="38.972" viewBox="0 0 33.941 38.972">
  <path id="pin-svgrepo-com" d="M38.522,22.87,37.479,26l1.044,1.044-5.941,5.941a12.674,12.674,0,0,0-2.668-.952,9.045,9.045,0,0,0-2.1-.246,4.216,4.216,0,0,0-2.161.513L37.439,44.088a6.013,6.013,0,0,0,.268-4.261,12.678,12.678,0,0,0-.952-2.668L42.7,31.218l1.044,1.044,3.13-1.044L38.522,22.87ZM29.888,37.847,22.87,46.87l9.023-7.018Z" transform="translate(-32.343 16.971) rotate(-45)" fill="#0058a3"/>
  <ellipse id="Ellipse_86" data-name="Ellipse 86" cx="8" cy="2.5" rx="8" ry="2.5" transform="translate(9.221 33.972)" fill="#0058a3"/>
</svg>
