<svg xmlns="http://www.w3.org/2000/svg" width="34" height="34" viewBox="0 0 34 34">
  <g id="play-icon-btn" transform="translate(-1087 -290)">
    <g id="Group_906" data-name="Group 906" transform="translate(-34.887 -108)">
      <g id="Group_878" data-name="Group 878">
        <g id="Group_614" data-name="Group 614" transform="translate(1121.887 398)">
          <rect id="Rectangle_9_copy_7" data-name="Rectangle 9 copy 7" width="34" height="34" rx="5" fill="#e7edf6" style="mix-blend-mode: multiply;isolation: isolate"/>
        </g>
      </g>
    </g>
    <path id="play-svgrepo-com" d="M97.939,90.908a1.818,1.818,0,0,1-.9-.24,2.021,2.021,0,0,1-1-1.764V74a2.018,2.018,0,0,1,1-1.764,1.805,1.805,0,0,1,1.838.023l12.736,7.624a1.85,1.85,0,0,1,0,3.135L98.876,90.645A1.824,1.824,0,0,1,97.939,90.908Z" transform="translate(999.96 226.002)" fill="#5e980a"/>
  </g>
</svg>
