<svg xmlns="http://www.w3.org/2000/svg" width="16.747" height="13.553" viewBox="0 0 16.747 13.553">
  <g id="PORTFOLIO-ASSESSMENT-icon" transform="translate(1 -6.051)">
    <g id="Group_1002" data-name="Group 1002" transform="translate(-1 6.051)">
      <path id="Path_318" data-name="Path 318" d="M0,18.4v4.215A1.285,1.285,0,0,0,1.285,23.9H15.462a1.285,1.285,0,0,0,1.285-1.284V18.358L8.376,19.537Z" transform="translate(0 -10.344)" fill="#fff"/>
      <path id="Path_319" data-name="Path 319" d="M11.911,5.424V4.337a1.286,1.286,0,0,0-1.285-1.286H5.849A1.285,1.285,0,0,0,4.564,4.337V5.424H1.285A1.286,1.286,0,0,0,0,6.71V9.852l8.372,1.14,8.375-1.181V6.71a1.286,1.286,0,0,0-1.285-1.286ZM10.268,7.888V9.439H6.526V7.569h3.742Zm.41-2.473v.009H5.8V4.955a.67.67,0,0,1,.671-.671h3.542a.67.67,0,0,1,.671.671v.46Z" transform="translate(0 -3.051)" fill="#fff"/>
    </g>
  </g>
</svg>
