<svg xmlns="http://www.w3.org/2000/svg" width="19.212" height="9.915" viewBox="0 0 19.212 9.915">
  <g id="Portfolio-View-icon" transform="translate(-21.067 -139.717)">
    <path id="Path_288" data-name="Path 288" d="M21.258,143.137l2.537-2.537a3.359,3.359,0,0,1,2.132-.883H32.58a1.633,1.633,0,0,1,1.631,1.631v.2a1.633,1.633,0,0,1-1.631,1.631H30.828l.347.347a1.571,1.571,0,0,0,1.107.369l5.6-.8a2.639,2.639,0,0,1,2.06.584,1.1,1.1,0,0,1,.319,1,1.407,1.407,0,0,1-.885.989l-5.736,2.458a4.023,4.023,0,0,1-2.264.181l-2.407-.6a14.171,14.171,0,0,1-1.95-.671l-.636-.282a.816.816,0,0,0-.809.169l-2.3,2.507a.652.652,0,1,1-.962-.881l2.3-2.507a2.12,2.12,0,0,1,2.3-.48l.636.282a13.061,13.061,0,0,0,1.737.6l2.407.6a2.766,2.766,0,0,0,1.433-.115l5.688-2.438a1.586,1.586,0,0,0-.749-.1l-5.6.8a2.852,2.852,0,0,1-2.214-.738l-.769-.769a1,1,0,0,1,.748-1.805H32.58a.331.331,0,0,0,.326-.326v-.2a.331.331,0,0,0-.326-.326H25.927a2.1,2.1,0,0,0-1.209.5l-2.537,2.537a.652.652,0,0,1-.923-.922Z" transform="translate(0)" fill="#010101"/>
  </g>
</svg>
