<svg xmlns="http://www.w3.org/2000/svg" width="12.825" height="10.3" viewBox="0 0 12.825 10.3">
  <path id="portfolio-bag-view-icon" d="M12.823,51.038l-.393-5.889a1.707,1.707,0,0,0-1.7-1.59H9.1v-.648a1.12,1.12,0,0,0-1.119-1.119H4.843a1.12,1.12,0,0,0-1.119,1.119v.648H2.095a1.708,1.708,0,0,0-1.7,1.59L0,51.038a.989.989,0,0,0,.987,1.055H11.836a.989.989,0,0,0,.987-1.055Zm-7.98-8.671H7.982a.544.544,0,0,1,.418.2H4.425A.544.544,0,0,1,4.843,42.367Zm-.545.77H8.527v.423H4.3ZM.968,45.188a1.132,1.132,0,0,1,1.127-1.054H10.73a1.132,1.132,0,0,1,1.127,1.054l.151,2.253L7.748,49.565l.008-.031a.287.287,0,0,0-.278-.356H5.348a.287.287,0,0,0-.278.356l.008.031L.818,47.441ZM7.11,49.752l-.24.967H5.955l-.24-.967Zm5.029,1.636a.411.411,0,0,1-.3.132H.989a.415.415,0,0,1-.414-.443l.2-3.015L5.259,50.3l.193.777a.287.287,0,0,0,.278.218H7.094a.287.287,0,0,0,.278-.218l.193-.777,4.483-2.236.2,3.015A.411.411,0,0,1,12.139,51.388Z" transform="translate(0 -41.793)" fill="#010101"/>
</svg>
