<svg xmlns="http://www.w3.org/2000/svg" width="13.377" height="16.028" viewBox="0 0 13.377 16.028">
  <g id="file-svgrepo-com_2_" data-name="file-svgrepo-com (2)" transform="translate(-22.038)">
    <g id="Group_982" data-name="Group 982" transform="translate(22.038)">
      <g id="Group_981" data-name="Group 981" transform="translate(0)">
        <path id="Path_269" data-name="Path 269" d="M32.564,9.444V3.631L29.316,0H23.8a1.763,1.763,0,0,0-1.761,1.761v9.611A1.763,1.763,0,0,0,23.8,13.133h5.026a3.308,3.308,0,1,0,3.74-3.689Zm-3-7.788,1.514,1.693H29.569Zm-.733,10.562H23.8a.847.847,0,0,1-.846-.846V1.761A.847.847,0,0,1,23.8.915h4.855V4.263h3v5.18a3.281,3.281,0,0,0-1.072.344V9.77H24.026v.915H29.5A3.293,3.293,0,0,0,28.836,12.218Zm3.271,2.9A2.393,2.393,0,1,1,34.5,12.72,2.4,2.4,0,0,1,32.107,15.113Z" transform="translate(-22.038)" fill="#010101"/>
        <path id="Path_270" data-name="Path 270" d="M163.017,188.383l-1.48,1.51-.766-.738-.635.659,1.42,1.366,2.115-2.157Z" transform="translate(-151.83 -177.053)" fill="#010101"/>
        <rect id="Rectangle_982" data-name="Rectangle 982" width="6.551" height="0.915" transform="translate(1.988 7.584)" fill="#010101"/>
        <rect id="Rectangle_983" data-name="Rectangle 983" width="6.551" height="0.915" transform="translate(1.988 5.388)" fill="#010101"/>
      </g>
    </g>
  </g>
</svg>
