<svg xmlns="http://www.w3.org/2000/svg" width="19.711" height="19.711" viewBox="0 0 19.711 19.711">
  <g id="help-web-button-svgrepo-com" transform="translate(-0.008)">
    <path id="Path_316" data-name="Path 316" d="M9.864,0a9.856,9.856,0,1,0,9.855,9.85A9.853,9.853,0,0,0,9.864,0Zm.7,15.334a1.16,1.16,0,0,1-.795.306,1.2,1.2,0,0,1-.814-.3,1.058,1.058,0,0,1-.348-.844,1.088,1.088,0,0,1,.337-.81,1.135,1.135,0,0,1,.825-.328,1.122,1.122,0,0,1,1.139,1.138A1.068,1.068,0,0,1,10.566,15.334ZM13.42,8.258a3.484,3.484,0,0,1-.627.844q-.362.356-1.3,1.2a5.393,5.393,0,0,0-.416.416,1.7,1.7,0,0,0-.233.329,1.584,1.584,0,0,0-.118.3q-.042.149-.127.523a.85.85,0,0,1-.909.795.931.931,0,0,1-.669-.26,1.021,1.021,0,0,1-.271-.772,2.844,2.844,0,0,1,.2-1.112,2.81,2.81,0,0,1,.527-.826,12.083,12.083,0,0,1,.887-.844q.489-.428.707-.646a2.185,2.185,0,0,0,.367-.485,1.168,1.168,0,0,0,.149-.581A1.348,1.348,0,0,0,11.127,6.1a1.66,1.66,0,0,0-1.173-.42,1.623,1.623,0,0,0-1.238.424,3.384,3.384,0,0,0-.672,1.249q-.26.864-.986.864a.97.97,0,0,1-.722-.3.923.923,0,0,1-.294-.653,2.765,2.765,0,0,1,.466-1.471A3.587,3.587,0,0,1,7.868,4.56a4.278,4.278,0,0,1,2.086-.489,4.45,4.45,0,0,1,1.956.409,3.171,3.171,0,0,1,1.311,1.112,2.728,2.728,0,0,1,.462,1.528A2.353,2.353,0,0,1,13.42,8.258Z" transform="translate(0)" fill="#fff"/>
  </g>
</svg>
