<svg id="radar-icon" xmlns="http://www.w3.org/2000/svg" width="14.55" height="14.55" viewBox="0 0 14.55 14.55">
  <g id="Group_989" data-name="Group 989" transform="translate(0 0)">
    <g id="Group_988" data-name="Group 988">
      <path id="Path_285" data-name="Path 285" d="M12.419,2.131A7.275,7.275,0,1,0,2.131,12.419,7.275,7.275,0,0,0,12.419,2.131Zm-.611,9.677A6.411,6.411,0,1,1,2.742,2.742a6.41,6.41,0,0,1,8.75-.3L10.321,3.618a4.759,4.759,0,1,0,1.713,3.657H11.17A3.894,3.894,0,1,1,9.707,4.232l-1.18,1.18a2.244,2.244,0,1,0,.992,1.863H8.654A1.378,1.378,0,1,1,7.9,6.043l-.926.926.611.611L12.1,3.058a6.411,6.411,0,0,1-.3,8.75Z" transform="translate(0 0)" fill="#010101"/>
    </g>
  </g>
  <g id="Group_991" data-name="Group 991" transform="translate(10.578 5.014)">
    <g id="Group_990" data-name="Group 990">
      <circle id="Ellipse_136" data-name="Ellipse 136" cx="0.631" cy="0.631" r="0.631" fill="#010101"/>
    </g>
  </g>
</svg>
