<svg xmlns="http://www.w3.org/2000/svg" width="44" height="41" viewBox="0 0 44 41">
  <g id="refersh-btn" transform="translate(-1235 -298)">
    <rect id="Rectangle_9_copy_7" data-name="Rectangle 9 copy 7" width="44" height="41" rx="3" transform="translate(1235 298)" fill="#f5f6fa"/>
    <g id="refresh-svgrepo-com" transform="translate(1244.919 309)">
      <path id="Path_233" data-name="Path 233" d="M5.214,4.8a7.942,7.942,0,0,1,6.43-3.283,7.763,7.763,0,0,1,7.84,7.665h1.549A9.3,9.3,0,0,0,11.644,0,9.512,9.512,0,0,0,6.565,1.458,9.335,9.335,0,0,0,4.1,3.714L2.081,1.748V7.47h5.88Z"/>
      <path id="Path_234" data-name="Path 234" d="M33.482,203.584H27.6l2.747,2.673a7.942,7.942,0,0,1-6.43,3.283,7.763,7.763,0,0,1-7.84-7.665H14.531a9.3,9.3,0,0,0,9.388,9.179A9.512,9.512,0,0,0,29,209.6a9.336,9.336,0,0,0,2.464-2.256l2.02,1.966v-5.722Z" transform="translate(-11.822 -191.26)"/>
    </g>
  </g>
</svg>
