<svg xmlns="http://www.w3.org/2000/svg" width="19.3" height="19.253" viewBox="0 0 19.3 19.253">
  <g id="refresh-svgrepo-com_1_" data-name="refresh-svgrepo-com (1)" transform="translate(0 -0.596)">
    <g id="Group_997" data-name="Group 997" transform="translate(0 0.596)">
      <path id="Path_311" data-name="Path 311" d="M4.814,15.226a6.714,6.714,0,0,1-1.727-2.471,6.782,6.782,0,0,1,1.4-7.283L6.267,7.25a.182.182,0,0,0,.3-.117L7.535.777A.158.158,0,0,0,7.355.6L1,1.568a.182.182,0,0,0-.117.3L2.66,3.648a9.348,9.348,0,0,0,6.892,15.89l.4-2.612A6.784,6.784,0,0,1,4.814,15.226Z" transform="translate(0 -0.596)" fill="#fff"/>
      <path id="Path_312" data-name="Path 312" d="M246.032,24.383a9.348,9.348,0,0,0-6.892-15.89l-.4,2.612a6.789,6.789,0,0,1,5.137,1.7,6.714,6.714,0,0,1,1.727,2.471,6.782,6.782,0,0,1-1.4,7.283l-1.778-1.778a.182.182,0,0,0-.3.117l-.971,6.355a.158.158,0,0,0,.18.18l6.359-.971a.183.183,0,0,0,.117-.3Z" transform="translate(-229.393 -8.181)" fill="#fff"/>
    </g>
  </g>
</svg>
