<svg xmlns="http://www.w3.org/2000/svg" width="13.256" height="18.558" viewBox="0 0 13.256 18.558">
  <g id="report-mega-menu-icon" transform="translate(-6 -2)">
    <path id="Path_326" data-name="Path 326" d="M20,2.6V6.179h3.579Z" transform="translate(-4.721 -0.202)" fill="#fff"/>
    <path id="Path_327" data-name="Path 327" d="M17.6,7.3H14.616a.626.626,0,0,1-.663-.663V2H6.663A.626.626,0,0,0,6,2.663V19.9a.626.626,0,0,0,.663.663h11.93a.626.626,0,0,0,.663-.663V8.959A1.641,1.641,0,0,0,17.6,7.3ZM12.628,18.569a5.289,5.289,0,0,1-.663-10.538v5.236a.626.626,0,0,0,.663.663h5.236A5.3,5.3,0,0,1,12.628,18.569Zm.663-5.965V8.031A5.276,5.276,0,0,1,17.864,12.6Z" fill="#fff"/>
  </g>
</svg>
