<svg id="Save" xmlns="http://www.w3.org/2000/svg" width="12" height="12" viewBox="0 0 12 12">
  <path id="save-svgrepo-com" d="M10,0H1.059A1.06,1.06,0,0,0,0,1.059v9.882A1.06,1.06,0,0,0,1.059,12h9.882A1.06,1.06,0,0,0,12,10.941V1.96ZM5.647.706V3.529H7.765V.706h.706V4.235H2.824V.706ZM2.118,11.294V7.059H9.882v4.235Zm9.176-.353a.354.354,0,0,1-.353.353h-.353V6.353H1.412v4.941H1.059a.354.354,0,0,1-.353-.353V1.059A.354.354,0,0,1,1.059.706H2.118V4.941H9.176V.706H9.71l1.584,1.55Z" fill="#010101"/>
</svg>
