<svg id="Group_982" data-name="Group 982" xmlns="http://www.w3.org/2000/svg" width="19" height="18.586" viewBox="0 0 19 18.586">
  <path id="Path_46" data-name="Path 46" d="M19,5.685a.345.345,0,0,0-.05-.128c0-.008-.008-.021-.012-.029s-.012-.012-.021-.021a.383.383,0,0,0-.058-.058l-.05-.037c-.008,0-.012-.012-.021-.017s-.029-.012-.045-.017a.362.362,0,0,0-.062-.021.453.453,0,0,0-.074-.008h-.062a.485.485,0,0,0-.083.021c-.012,0-.029,0-.041.008L.249,13.234a.413.413,0,0,0-.215.545.419.419,0,0,0,.2.21l6.786,3.19v6.344a.414.414,0,0,0,.413.413.407.407,0,0,0,.351-.2l2.869-4.664,4.433,2.336a.411.411,0,0,0,.557-.173.515.515,0,0,0,.037-.1L18.992,5.85V5.826C19,5.8,19,5.78,19,5.76A.456.456,0,0,0,19,5.685ZM7.353,16.417l-5.927-2.79,15.338-6.62Zm.5,5.642V17.6l2.076,1.094Zm7.145-1.634-3.9-2.051-.7-.433-.029.05L8.129,16.813l9.753-9.761Z" transform="translate(0 -5.351)" fill="#010101"/>
</svg>
