<svg xmlns="http://www.w3.org/2000/svg" width="26.47" height="12" viewBox="0 0 26.47 12">
  <g id="send-mail-svgrepo-com" transform="translate(0 -139.942)">
    <g id="Group_572" data-name="Group 572" transform="translate(2.776 139.942)">
      <g id="Group_571" data-name="Group 571">
        <path id="Path_112" data-name="Path 112" d="M76.87,139.942H59.784a.527.527,0,0,0-.527.527v.994H54.231a.527.527,0,0,0,0,1.055h5.026v6.848h-3a.527.527,0,0,0,0,1.055h3v.994a.527.527,0,0,0,.527.527H76.87a.527.527,0,0,0,.527-.527V140.469A.527.527,0,0,0,76.87,139.942ZM75.569,141l-7.241,5.945L61.119,141Zm.773,9.891H60.311V141.7l7.68,6.334a.527.527,0,0,0,.67,0l7.681-6.305Z" transform="translate(-53.704 -139.942)" fill="#131523"/>
      </g>
    </g>
    <g id="Group_574" data-name="Group 574" transform="translate(0 145.361)">
      <g id="Group_573" data-name="Group 573">
        <path id="Path_113" data-name="Path 113" d="M6.187,244.768H.527a.527.527,0,1,0,0,1.055h5.66a.527.527,0,1,0,0-1.055Z" transform="translate(0 -244.768)" fill="#131523"/>
      </g>
    </g>
    <g id="Group_576" data-name="Group 576" transform="translate(2.776 149.366)">
      <g id="Group_575" data-name="Group 575">
        <path id="Path_114" data-name="Path 114" d="M54.514,322.227h-.282a.527.527,0,1,0,0,1.055h.282a.527.527,0,1,0,0-1.055Z" transform="translate(-53.705 -322.227)" fill="#131523"/>
      </g>
    </g>
  </g>
</svg>
