<svg xmlns="http://www.w3.org/2000/svg" width="20.071" height="20.071" viewBox="0 0 20.071 20.071">
  <g id="gauge-svgrepo-com" transform="translate(0.01 0.01)">
    <rect id="icon-bound" width="20" height="20" transform="translate(0.025 0.025)" fill="none"/>
    <path id="Path_313" data-name="Path 313" d="M10.035,0A10.035,10.035,0,1,0,20.071,10.035,10.034,10.034,0,0,0,10.035,0Zm0,17.562a7.527,7.527,0,1,1,7.527-7.527A7.529,7.529,0,0,1,10.035,17.562Zm.282-7.506-2.575-3.3.721,4.123a1.882,1.882,0,1,0,1.854-.825Zm-.282-6.292A6.274,6.274,0,0,0,3.889,8.781H5.32a4.882,4.882,0,0,1,8.165-2.2,4.826,4.826,0,0,1,1.266,2.2h1.431A6.274,6.274,0,0,0,10.035,3.763Z" transform="translate(-0.01 -0.01)" fill="#fff"/>
  </g>
</svg>
