<svg id="Settings" xmlns="http://www.w3.org/2000/svg" xmlns:xlink="http://www.w3.org/1999/xlink" width="14" height="14" viewBox="0 0 14 14">
  <defs>
    <clipPath id="clip-path">
      <rect id="Rectangle_29" data-name="Rectangle 29" width="14" height="14" fill="#fff"/>
    </clipPath>
  </defs>
  <g id="setting-2-svgrepo-com" clip-path="url(#clip-path)">
    <path id="Path_30" data-name="Path 30" d="M14.562,5.644c-.153,0-.3,0-.426,0h-.081L13.29,4.21l.141-.163c.142-.163.289-.331.425-.512a.5.5,0,0,0-.037-.689l-.012-.013c-.485-.493-.987-1-1.5-1.48a.569.569,0,0,0-.405-.19.641.641,0,0,0-.426.258c-.111.123-.219.246-.333.376l-.113.129a2.419,2.419,0,0,0-1.365-.66c0-.035,0-.069,0-.1,0-.11,0-.214,0-.32-.031-.612-.2-.779-.8-.779h0c-.376,0-.758.013-1.128.026L7.2.108a.44.44,0,0,0-.466.419C6.712.7,6.7.87,6.687,1.022c0,.048-.007.095-.011.138L5.32,1.928l-.085-.105c-.094-.116-.191-.236-.3-.352A.653.653,0,0,0,4.5,1.213a.625.625,0,0,0-.444.2C3.611,1.83,3.19,2.241,2.8,2.64a.649.649,0,0,0-.054.982c.1.135.211.263.3.366l.072.084L2.513,5.7l-.191.016c-.177.014-.359.029-.541.054a.449.449,0,0,0-.46.519c0,.634.007,1.162.02,1.662a.537.537,0,0,0,.155.408.545.545,0,0,0,.439.1c.109-.012.219-.026.328-.041l.029,0a.06.06,0,0,0,0,.018l.684,1.493-.265.2-.289.221a.494.494,0,0,0-.156.735c.292.444.636.956,1.016,1.424.337.414.61.444,1.083.118.2-.136.393-.273.59-.411l.231-.162a2.424,2.424,0,0,0,1.6.588l-.015.139c-.015.132-.027.246-.035.363a.785.785,0,0,0,.133.614.755.755,0,0,0,.579.169h.019c.393,0,.793-.01,1.18-.016l.479-.008a.54.54,0,0,0,.6-.667c-.012-.153-.026-.305-.039-.443l-.011-.124,1.188-.5.025.034.133.183.065.093c.039.056.079.114.122.169a.56.56,0,0,0,.76.187,1.265,1.265,0,0,0,.288-.169l.3-.253c.414-.344.843-.7,1.25-1.065a.669.669,0,0,0,.276-.453.712.712,0,0,0-.257-.5c-.134-.141-.269-.281-.394-.409l-.125-.129.785-1.5.1-.01c.124-.011.278-.026.43-.044.324-.038.439-.144.514-.472a3.948,3.948,0,0,0-.086-1.813A.465.465,0,0,0,14.562,5.644Zm-1.346,2.32a3.177,3.177,0,0,1-.757,1.512.438.438,0,0,0,.015.587c.14.2.287.394.442.6l.168.224-1.339,1.066-.11-.132c-.105-.127-.2-.246-.31-.364-.279-.313-.426-.3-.785-.094a4.83,4.83,0,0,1-.895.383c-.712.238-.766.556-.769,1.051,0,.063,0,.128-.009.2l0,.053H7.542l-.007-.159c-.007-.148-.013-.29-.02-.433-.02-.4-.1-.543-.536-.559a2.781,2.781,0,0,1-1.664-.58.505.505,0,0,0-.636.035c-.185.122-.367.248-.56.382l-.218.15-.844-1.134.155-.131c.146-.124.284-.242.43-.354.24-.185.26-.293.1-.552a3.531,3.531,0,0,1-.606-1.7c-.008-.231-.143-.353-.4-.361-.152,0-.306,0-.469,0H2.085L2.027,6.536l.243-.027c.21-.024.408-.046.6-.055A.409.409,0,0,0,3.3,6.069a4.064,4.064,0,0,1,.633-1.736.386.386,0,0,0,0-.472q-.178-.259-.358-.516l-.11-.158,1.081-1.1.128.125c.125.122.253.248.382.37.253.24.325.207.589.03a7.1,7.1,0,0,1,1.065-.622c.321-.142.609-.306.6-.758A1.208,1.208,0,0,1,7.345.946C7.353.91,7.36.873,7.368.835H8.874c0,.031,0,.062,0,.094,0,.113,0,.229,0,.344-.032.444.116.633.529.673a2.048,2.048,0,0,1,1.237.63c.223.209.346.249.592.053.164-.131.317-.268.478-.415l.167-.151L12.955,3.2l-.081.085c-.111.116-.237.247-.361.384-.333.367-.335.505-.014.869a3,3,0,0,1,.7,1.325.5.5,0,0,0,.515.437l.43.022.179.01.064,1.193H13.8C13.448,7.53,13.3,7.645,13.216,7.964Z" transform="translate(-1.275 -0.059)"/>
    <path id="Path_31" data-name="Path 31" d="M45.187,38.11a3.593,3.593,0,0,0-3.849,4.28A3.226,3.226,0,0,0,43.478,45a3.133,3.133,0,0,0,1.059.172,5.066,5.066,0,0,0,.893-.087,3.446,3.446,0,0,0,2.952-3.771h0a3.288,3.288,0,0,0-.625-1.816A3.509,3.509,0,0,0,45.187,38.11Zm2.29,4.087A2.414,2.414,0,0,1,45.3,44.21a3.113,3.113,0,0,1-1.443-.022,2.3,2.3,0,0,1-1.641-1.925,4.391,4.391,0,0,1-.064-.546c-.006-.085-.013-.17-.022-.254a2.532,2.532,0,0,1,.767-1.827,2.787,2.787,0,0,1,2.051-.737,2.633,2.633,0,0,1,2.036.926A2.68,2.68,0,0,1,47.478,42.2Z" transform="translate(-37.726 -34.761)"/>
  </g>
</svg>
