<svg xmlns="http://www.w3.org/2000/svg" width="14.601" height="13.514" viewBox="0 0 14.601 13.514">
  <path id="share-svgrepo-com_1_" data-name="share-svgrepo-com (1)" d="M19.216,9.091a2.75,2.75,0,0,0-2.119,1l-3.29-1.868a2.749,2.749,0,0,0,0-1.84L17.1,4.512a2.751,2.751,0,1,0-.477-.838L13.33,5.543a2.755,2.755,0,1,0,0,3.515l3.29,1.868a2.754,2.754,0,1,0,2.6-1.835Zm0-8.127a1.791,1.791,0,1,1-1.791,1.791A1.793,1.793,0,0,1,19.216.964Zm-8,8.127A1.791,1.791,0,1,1,13,7.3,1.793,1.793,0,0,1,11.211,9.091Zm8,4.546a1.791,1.791,0,1,1,1.79-1.791A1.793,1.793,0,0,1,19.216,13.637Z" transform="translate(14.601 -8.456) rotate(90)" fill="#010101"/>
</svg>
