<svg xmlns="http://www.w3.org/2000/svg" width="34" height="34" viewBox="0 0 34 34">
  <g id="sort" transform="translate(-1464 -325)">
    <g id="Group_1096" data-name="Group 1096" transform="translate(342.113 -73)">
      <g id="Group_878" data-name="Group 878">
        <g id="Group_614" data-name="Group 614" transform="translate(1121.887 398)">
          <rect id="Rectangle_9_copy_7" data-name="Rectangle 9 copy 7" width="34" height="34" rx="5" fill="#e7edf6" style="mix-blend-mode: multiply;isolation: isolate"/>
        </g>
      </g>
    </g>
    <g id="sort-svgrepo-com" transform="translate(1472.468 334)">
      <g id="Group_1097" data-name="Group 1097" transform="translate(0.533 0)">
        <path id="Path_347" data-name="Path 347" d="M9.375,56.757a.715.715,0,0,0-.987.071L5.777,59.771V48.007a.705.705,0,0,0-1.411,0V59.771L1.756,56.828a.717.717,0,0,0-.987-.071.717.717,0,0,0-.071.987l3.846,4.3a.654.654,0,0,0,1.024,0l3.879-4.3A.712.712,0,0,0,9.375,56.757Z" transform="translate(-0.533 -45.698)" fill="#354052" stroke="#354052" stroke-width="0.5"/>
        <path id="Path_348" data-name="Path 348" d="M230.047,4.568l-3.812-4.3a.661.661,0,0,0-1.058,0l-3.879,4.3a.715.715,0,0,0,.071.987.68.68,0,0,0,.987-.071l2.611-2.944V14.27a.709.709,0,0,0,.705.705.679.679,0,0,0,.705-.671V2.544l2.611,2.944a.7.7,0,1,0,1.058-.919Z" transform="translate(-213.652 0)" fill="#354052" stroke="#354052" stroke-width="0.5"/>
      </g>
    </g>
  </g>
</svg>
