<svg xmlns="http://www.w3.org/2000/svg" width="44" height="41" viewBox="0 0 44 41">
  <g id="Sort-lg-btn" transform="translate(-241 -325)">
    <rect id="Rectangle_9_copy_7" data-name="Rectangle 9 copy 7" width="44" height="41" rx="3" transform="translate(241 325)" fill="#f5f6fa"/>
    <g id="sort-svgrepo-com" transform="translate(254.468 337)">
      <g id="Group_1097" data-name="Group 1097" transform="translate(0.533 0)">
        <path id="Path_347" data-name="Path 347" d="M9.376,56.757a.715.715,0,0,0-.987.071L5.778,59.772V48.007a.705.705,0,1,0-1.411,0V59.772L1.756,56.828a.717.717,0,0,0-.987-.071.717.717,0,0,0-.071.987l3.846,4.3a.654.654,0,0,0,1.024,0l3.88-4.3A.712.712,0,0,0,9.376,56.757Z" transform="translate(-0.533 -45.698)" fill="#354052" stroke="#354052" stroke-width="0.5"/>
        <path id="Path_348" data-name="Path 348" d="M230.047,4.569l-3.812-4.3a.661.661,0,0,0-1.058,0l-3.88,4.3a.715.715,0,0,0,.071.987.68.68,0,0,0,.987-.071l2.611-2.944V14.271a.709.709,0,0,0,.705.705.679.679,0,0,0,.705-.671V2.544l2.611,2.944a.7.7,0,1,0,1.058-.919Z" transform="translate(-213.651 0)" fill="#354052" stroke="#354052" stroke-width="0.5"/>
      </g>
    </g>
  </g>
</svg>
