<svg xmlns="http://www.w3.org/2000/svg" width="19.09" height="20" viewBox="0 0 19.09 20">
  <path id="star-yellow-icon" d="M19.073,8.93a.353.353,0,0,0-.276-.256l-6.181-.988L9.851,1.528a.328.328,0,0,0-.612,0L6.474,7.687.293,8.674a.353.353,0,0,0-.276.256A.4.4,0,0,0,.1,9.315l4.473,4.794L3.52,20.878a.4.4,0,0,0,.136.367.314.314,0,0,0,.36.029l5.529-3.2,5.529,3.2a.317.317,0,0,0,.159.043.321.321,0,0,0,.2-.072.393.393,0,0,0,.136-.367l-1.056-6.769,4.473-4.794A.4.4,0,0,0,19.073,8.93Z" transform="translate(0 -1.318)" fill="#fea304"/>
</svg>
