<svg id="Layer_8_46_" xmlns="http://www.w3.org/2000/svg" width="14.5" height="16.314" viewBox="0 0 14.5 16.314">
  <path id="Path_115" data-name="Path 115" d="M39.117,4.439l.48-.479A.36.36,0,0,0,40,3.888l.085-.085a.362.362,0,0,0,0-.512l-.614-.614a.362.362,0,0,0-.512,0l-.085.085a.362.362,0,0,0,0,.512l.019.019-.444.444A7.215,7.215,0,0,0,34.2,1.846V1.4h.064a.6.6,0,0,0,.6-.6V.6a.6.6,0,0,0-.6-.6H32.817a.6.6,0,0,0-.6.6V.8a.6.6,0,0,0,.6.6h.064v.441A7.25,7.25,0,0,0,33.14,16.3c.136.008.271.011.405.011A7.245,7.245,0,0,0,39.117,4.439Zm.7,4.971A6.283,6.283,0,1,1,33.534,2.78c.117,0,.234,0,.352.01A6.291,6.291,0,0,1,39.813,9.41Zm-5.122-.346a1.151,1.151,0,1,1-1.48-1.1V4.5a.329.329,0,1,1,.658,0V7.961A1.151,1.151,0,0,1,34.691,9.064Z" transform="translate(-26.289)"/>
</svg>
