<svg xmlns="http://www.w3.org/2000/svg" width="14.162" height="14.162" viewBox="0 0 14.162 14.162">
  <g id="Strategic-Buckets-icon" transform="translate(0 -0.003)">
    <path id="Path_303" data-name="Path 303" d="M10.783,4.864l-.612.612A3.7,3.7,0,1,1,8.689,3.994L9.3,3.382a4.546,4.546,0,1,0,1.482,1.482Zm-1.7,1.7L8.347,7.3A1.431,1.431,0,1,1,6.865,5.818L7.6,5.085a2.231,2.231,0,0,0-.683-.107,2.27,2.27,0,1,0,2.27,2.27A2.218,2.218,0,0,0,9.083,6.567Zm3.765-2.876-.612.612A6.078,6.078,0,1,1,9.863,1.93l.612-.612a6.924,6.924,0,1,0,2.373,2.373Zm-.908.018-.8-.089L7.2,7.562A.419.419,0,1,1,6.6,6.969l3.943-3.943-.089-.8L12.68,0l.3,1.186,1.186.3Z" fill="#010101"/>
  </g>
</svg>
