<svg xmlns="http://www.w3.org/2000/svg" width="20.171" height="21.451" viewBox="0 0 20.171 21.451">
  <g id="tags-label" transform="translate(-15.65 0.25)">
    <g id="Group_1189" data-name="Group 1189" transform="translate(15.993)">
      <g id="Group_1188" data-name="Group 1188" transform="translate(0)">
        <path id="Path_366" data-name="Path 366" d="M315.142,64.892a1.74,1.74,0,1,0,2.462,0A1.785,1.785,0,0,0,315.142,64.892Zm1.87,1.827-.022.022a.888.888,0,0,1-1.231,0,.878.878,0,1,1,1.253-.022Z" transform="translate(-302.454 -61.773)" fill="#010101"/>
        <path id="Path_367" data-name="Path 367" d="M35.545,5.694,33.827.626V.435A.436.436,0,0,0,33.392,0h-5.7a.449.449,0,0,0-.309.126L16.414,11.1a1.516,1.516,0,0,0,0,2.1l4.246,4.22a1.458,1.458,0,0,0,.566.344.423.423,0,0,0,.226.313l5.372,2.658a1.428,1.428,0,0,0,1.91-.648s0-.009.009-.017l.022-.044,4.628.422A1.37,1.37,0,0,0,34.7,19.184V7.83c0-.022-.009-.044-.013-.07l.84-1.74A.425.425,0,0,0,35.545,5.694ZM21.273,16.8l-4.246-4.22a.641.641,0,0,1,0-.861L27.867.87h5.09V6.025L22.095,16.8A.591.591,0,0,1,21.273,16.8Zm12.554,2.384a.526.526,0,0,1-.4.392l-4.267-.387,4.663-9.653Zm-5.868.5a.553.553,0,0,1-.326.291.547.547,0,0,1-.422-.026L22.473,17.6a1.257,1.257,0,0,0,.235-.191L33.7,6.512a.435.435,0,0,0,.13-.309V3.336L34.662,5.8Z" transform="translate(-15.993)" fill="#010101" stroke="#010101" stroke-width="0.5"/>
      </g>
    </g>
  </g>
</svg>
