<svg xmlns="http://www.w3.org/2000/svg" width="21.3" height="24.5" viewBox="0 0 21.3 24.5">
  <g id="Group_528" data-name="Group 528" transform="translate(0.25 0.25)">
    <g id="Group_527" data-name="Group 527" transform="translate(0)">
      <path id="Path_52" data-name="Path 52" d="M188.086,341.333a.352.352,0,0,0,0,.7h1.408a.352.352,0,0,0,0-.7Z" transform="translate(-180.421 -325.267)" fill="#131523" stroke="#131523" stroke-width="0.5"/>
      <path id="Path_53" data-name="Path 53" d="M190.2,187.733h-2.111a.352.352,0,1,0,0,.7H190.2a.352.352,0,1,0,0-.7Z" transform="translate(-180.377 -178.897)" fill="#131523" stroke="#131523" stroke-width="0.5"/>
      <path id="Path_54" data-name="Path 54" d="M256.352,239.638h.7a.352.352,0,0,0,0-.7h-.7a.352.352,0,0,0,0,.7Z" transform="translate(-245.496 -227.688)" fill="#131523" stroke="#131523" stroke-width="0.5"/>
      <path id="Path_55" data-name="Path 55" d="M48.563,102.226H35.894a1.057,1.057,0,0,1-1.056-1.056V85.686a.352.352,0,1,0-.7,0V101.17a1.762,1.762,0,0,0,1.76,1.76H48.563a.352.352,0,0,0,0-.7Z" transform="translate(-34.134 -78.93)" fill="#131523" stroke="#131523" stroke-width="0.5"/>
      <path id="Path_56" data-name="Path 56" d="M117.532,4.889h-2.815a1.15,1.15,0,0,1-1.056-1.222V2.444a.356.356,0,1,0-.7,0V3.667a1.916,1.916,0,0,0,1.76,2.037h2.463V19.148a1.15,1.15,0,0,1-1.056,1.222H104.16a1.15,1.15,0,0,1-1.056-1.222V2.037A1.15,1.15,0,0,1,104.16.815h9l2.712,3.14a.319.319,0,0,0,.5,0,.454.454,0,0,0,0-.576L113.558.119A.328.328,0,0,0,113.309,0h-9.15a1.916,1.916,0,0,0-1.76,2.037V19.148a1.916,1.916,0,0,0,1.76,2.037h11.965a1.916,1.916,0,0,0,1.76-2.037V5.3A.383.383,0,0,0,117.532,4.889Z" transform="translate(-97.084)" fill="#131523" stroke="#131523" stroke-width="0.5"/>
      <path id="Path_57" data-name="Path 57" d="M85.136,70.862H70.324a1.233,1.233,0,0,1-1.234-1.229V51.61a.411.411,0,0,0-.823,0V69.633a2.055,2.055,0,0,0,2.057,2.048H85.136a.41.41,0,1,0,0-.819Z" transform="translate(-66.859 -49.089)" fill="#131523" stroke="#131523" stroke-width="0.5"/>
      <path id="Path_58" data-name="Path 58" d="M192.661,290.486a.352.352,0,0,0-.352-.352h-4.223a.352.352,0,0,0,0,.7h4.223A.352.352,0,0,0,192.661,290.486Z" transform="translate(-180.215 -276.478)" fill="#131523" stroke="#131523" stroke-width="0.5"/>
      <path id="Path_59" data-name="Path 59" d="M188.086,239.638h1.408a.352.352,0,0,0,0-.7h-1.408a.352.352,0,0,0,0,.7Z" transform="translate(-180.421 -227.688)" fill="#131523" stroke="#131523" stroke-width="0.5"/>
      <path id="Path_60" data-name="Path 60" d="M192.309,119.467h-4.223a.352.352,0,0,0,0,.7h4.223a.352.352,0,0,0,0-.7Z" transform="translate(-180.215 -113.844)" fill="#131523" stroke="#131523" stroke-width="0.5"/>
      <path id="Path_61" data-name="Path 61" d="M310.367,238.933h-2.815a.352.352,0,1,0,0,.7h2.815a.352.352,0,1,0,0-.7Z" transform="translate(-294.034 -227.687)" fill="#131523" stroke="#131523" stroke-width="0.5"/>
      <path id="Path_62" data-name="Path 62" d="M276.938,187.733h-3.519a.352.352,0,0,0,0,.7h3.519a.352.352,0,1,0,0-.7Z" transform="translate(-261.463 -178.897)" fill="#131523" stroke="#131523" stroke-width="0.5"/>
      <path id="Path_63" data-name="Path 63" d="M256.352,342.038h4.927a.352.352,0,0,0,0-.7h-4.927a.352.352,0,1,0,0,.7Z" transform="translate(-245.044 -325.268)" fill="#131523" stroke="#131523" stroke-width="0.5"/>
      <path id="Path_64" data-name="Path 64" d="M326.027,290.838a.352.352,0,0,0,0-.7h-1.408a.352.352,0,1,0,0,.7Z" transform="translate(-310.454 -276.478)" fill="#131523" stroke="#131523" stroke-width="0.5"/>
    </g>
  </g>
</svg>
