<svg xmlns="http://www.w3.org/2000/svg" width="13.915" height="15.679" viewBox="0 0 13.915 15.679">
  <g id="time-period-icon" transform="translate(-28.799)">
    <g id="Group_1004" data-name="Group 1004" transform="translate(28.799)">
      <g id="Group_1003" data-name="Group 1003" transform="translate(0)">
        <path id="Path_320" data-name="Path 320" d="M36.375,1.792V1.237h.446a.618.618,0,0,0,0-1.237h-2.13a.618.618,0,1,0,0,1.237h.446v.555a6.958,6.958,0,1,0,1.237,0Zm0,12.617v-.616a.618.618,0,1,0-1.237,0v.616A5.731,5.731,0,0,1,30.069,9.34h.616a.618.618,0,1,0,0-1.237h-.616a5.731,5.731,0,0,1,5.069-5.069V3.65a.618.618,0,0,0,1.237,0V3.034A5.731,5.731,0,0,1,41.443,8.1h-.616a.618.618,0,1,0,0,1.237h.616A5.731,5.731,0,0,1,36.375,14.408Z" transform="translate(-28.799)" fill="#010101"/>
        <path id="Path_321" data-name="Path 321" d="M227.068,189.256l-1.782,1.782c-.031,0-.062,0-.094,0a.973.973,0,1,0,.973.973c0-.032,0-.063,0-.094l1.782-1.782a.618.618,0,1,0-.874-.875Z" transform="translate(-218.235 -183.285)" fill="#010101"/>
      </g>
    </g>
  </g>
</svg>
