<svg xmlns="http://www.w3.org/2000/svg" width="16.694" height="14.715" viewBox="0 0 16.694 14.715">
  <g id="unlock-svgrepo-com_2_" data-name="unlock-svgrepo-com (2)" transform="translate(103.962 199.364)">
    <g id="Group_1252" data-name="Group 1252" transform="translate(-103.962 -199.364)">
      <path id="Path_389" data-name="Path 389" d="M369.013,218.268Z" transform="translate(-352.319 -210.691)" fill="#fff"/>
      <g id="unlock" transform="translate(0 0)">
        <g id="Group_1253" data-name="Group 1253">
          <path id="Path_390" data-name="Path 390" d="M36.218,4.565a.474.474,0,0,1,.319-.589l7.3-2.161a.474.474,0,0,1,.589.319L45.308,4.1c.576-.169,1.156-.341,1.732-.514L46.16,1.62h0A2.291,2.291,0,0,0,43.322.085l-7.3,2.161a2.279,2.279,0,0,0-1.538,2.832l1.068,3.608c.576-.169,1.153-.341,1.732-.511Z" transform="translate(-33.315 0.009)" fill="#fff"/>
          <path id="Path_391" data-name="Path 391" d="M13.713,210.044v0q-.9,0-1.8,0v0H3.351V210c-.6,0-1.2,0-1.8,0v.044H0v8.094H15.257v-8.094Zm-5.284,4.279a1.569,1.569,0,0,1-.2.119v2.089H7.026v-2.089a1.268,1.268,0,0,1-.2-.119,1.392,1.392,0,1,1,1.6,0Z" transform="translate(0 -203.422)" fill="#fff"/>
        </g>
      </g>
    </g>
  </g>
</svg>
