<svg id="user-gray-icon" xmlns="http://www.w3.org/2000/svg" width="20.02" height="20.02" viewBox="0 0 20.02 20.02">
  <path id="Union" d="M19.251,20.02H.771A.771.771,0,0,1,0,19.251v-3.5A1.486,1.486,0,0,1,.827,14.4a21.282,21.282,0,0,1,18.366,0,1.485,1.485,0,0,1,.826,1.343v3.5A.77.77,0,0,1,19.251,20.02ZM10.01,13.86a19.6,19.6,0,0,0-8.47,1.91v2.71H18.48V15.77A19.6,19.6,0,0,0,10.01,13.86Zm0-3.08A5.39,5.39,0,1,1,15.4,5.39,5.4,5.4,0,0,1,10.01,10.781Zm0-9.241a3.85,3.85,0,1,0,3.85,3.85A3.855,3.855,0,0,0,10.01,1.54Z" transform="translate(0)" fill="#354052"/>
</svg>
