<svg xmlns="http://www.w3.org/2000/svg" width="19.752" height="19.851" viewBox="0 0 19.752 19.851">
  <g id="view-logs" transform="translate(-0.49 0.25)">
    <g id="Group_1191" data-name="Group 1191" transform="translate(0.74)">
      <g id="Group_1190" data-name="Group 1190" transform="translate(0)">
        <path id="Path_368" data-name="Path 368" d="M18.989,1.436H16.815V.334A.334.334,0,0,0,16.481,0H13.609a.334.334,0,0,0-.334.334v1.1H7.457V.334A.334.334,0,0,0,7.122,0H4.251a.334.334,0,0,0-.334.334v1.1H1.743a1,1,0,0,0-1,1V18.348a1,1,0,0,0,1,1H18.989a1,1,0,0,0,1-1V2.439A1,1,0,0,0,18.989,1.436Zm-5.046.334V.668h2.2v2.2h-2.2V1.77Zm-9.358,0V.668h2.2v2.2h-2.2ZM19.323,18.348a.335.335,0,0,1-.334.334H1.743a.335.335,0,0,1-.334-.334V6.583H19.323Zm0-12.433H1.408V2.439A.335.335,0,0,1,1.743,2.1H3.917v1.1a.334.334,0,0,0,.334.334H7.122a.334.334,0,0,0,.334-.334V2.1h5.818v1.1a.334.334,0,0,0,.334.334h2.872a.334.334,0,0,0,.334-.334V2.1h2.174a.335.335,0,0,1,.334.334V5.915Z" transform="translate(-0.74)" fill="#010101" stroke="#010101" stroke-width="0.5"/>
        <path id="Path_369" data-name="Path 369" d="M34.365,138.839h1.9a.334.334,0,0,0,.334-.334v-1.9a.334.334,0,0,0-.334-.334h-1.9a.334.334,0,0,0-.334.334v1.9A.334.334,0,0,0,34.365,138.839Z" transform="translate(-31.806 -127.162)" fill="#010101"/>
        <path id="Path_370" data-name="Path 370" d="M95.365,138.839h1.9a.334.334,0,0,0,.334-.334v-1.9a.334.334,0,0,0-.334-.334h-1.9a.334.334,0,0,0-.334.334v1.9A.334.334,0,0,0,95.365,138.839Z" transform="translate(-88.728 -127.162)" fill="#010101"/>
        <path id="Path_371" data-name="Path 371" d="M156.365,138.839h1.9a.334.334,0,0,0,.334-.334v-1.9a.334.334,0,0,0-.334-.334h-1.9a.334.334,0,0,0-.334.334v1.9A.334.334,0,0,0,156.365,138.839Z" transform="translate(-145.65 -127.162)" fill="#010101"/>
        <path id="Path_372" data-name="Path 372" d="M217.365,138.839h1.9a.334.334,0,0,0,.334-.334v-1.9a.334.334,0,0,0-.334-.334h-1.9a.334.334,0,0,0-.334.334v1.9A.334.334,0,0,0,217.365,138.839Z" transform="translate(-202.573 -127.162)" fill="#010101"/>
        <path id="Path_373" data-name="Path 373" d="M34.365,199.506h1.9a.334.334,0,0,0,.334-.334v-1.9a.334.334,0,0,0-.334-.334h-1.9a.334.334,0,0,0-.334.334v1.9A.334.334,0,0,0,34.365,199.506Z" transform="translate(-31.806 -183.774)" fill="#010101"/>
        <path id="Path_374" data-name="Path 374" d="M95.365,199.506h1.9a.334.334,0,0,0,.334-.334v-1.9a.334.334,0,0,0-.334-.334h-1.9a.334.334,0,0,0-.334.334v1.9A.334.334,0,0,0,95.365,199.506Z" transform="translate(-88.728 -183.774)" fill="#010101"/>
        <path id="Path_375" data-name="Path 375" d="M156.365,199.506h1.9a.334.334,0,0,0,.334-.334v-1.9a.334.334,0,0,0-.334-.334h-1.9a.334.334,0,0,0-.334.334v1.9A.334.334,0,0,0,156.365,199.506Z" transform="translate(-145.65 -183.774)" fill="#010101"/>
        <path id="Path_376" data-name="Path 376" d="M217.365,199.506h1.9a.334.334,0,0,0,.334-.334v-1.9a.334.334,0,0,0-.334-.334h-1.9a.334.334,0,0,0-.334.334v1.9A.334.334,0,0,0,217.365,199.506Z" transform="translate(-202.573 -183.774)" fill="#010101"/>
      </g>
    </g>
  </g>
</svg>
