<svg xmlns="http://www.w3.org/2000/svg" width="34" height="34" viewBox="0 0 34 34">
  <g id="view-btn" transform="translate(-1357.887 -398)">
    <g id="Group_880" data-name="Group 880" transform="translate(1357.887 398)">
      <rect id="Rectangle_9_copy_7" data-name="Rectangle 9 copy 7" width="34" height="34" rx="5" fill="#e7edf6" style="mix-blend-mode: multiply;isolation: isolate"/>
    </g>
    <g id="view-svgrepo-com_1_" data-name="view-svgrepo-com (1)" transform="translate(1363.635 409.576)">
      <path id="Path_10" data-name="Path 10" d="M19.409,16.034a11.6,11.6,0,0,0-16.39,0L0,19.052l3.093,3.093a11.6,11.6,0,0,0,16.391,0L22.5,19.126Zm-.463,5.574a10.843,10.843,0,0,1-15.316,0L1.075,19.052l2.481-2.481a10.843,10.843,0,0,1,15.316,0l2.556,2.556Z" transform="translate(0 -12.644)" fill="#354052" stroke="#354052" stroke-width="0.5"/>
      <path id="Path_11" data-name="Path 11" d="M24.233,21.57a2.664,2.664,0,0,0-2.661,2.661.38.38,0,0,0,.76,0,1.9,1.9,0,0,1,1.9-1.9.38.38,0,0,0,0-.76Z" transform="translate(-13.373 -18.177)" fill="#354052" stroke="#354052" stroke-width="0.5"/>
      <path id="Path_12" data-name="Path 12" d="M21.513,16.57a4.941,4.941,0,1,0,4.941,4.941A4.947,4.947,0,0,0,21.513,16.57Zm0,9.123a4.181,4.181,0,1,1,4.181-4.181A4.186,4.186,0,0,1,21.513,25.693Z" transform="translate(-10.273 -15.078)" fill="#354052" stroke="#354052" stroke-width="0.5"/>
    </g>
  </g>
</svg>
