<svg xmlns="http://www.w3.org/2000/svg" width="21.243" height="20.246" viewBox="0 0 21.243 20.246">
  <g id="workgroup-statistics" transform="translate(0 -12.019)">
    <g id="Group_1192" data-name="Group 1192" transform="translate(0 12.019)">
      <path id="Path_377" data-name="Path 377" d="M19.753,24.506A9.253,9.253,0,0,0,14.247,14.5,3.891,3.891,0,0,0,7,14.5,9.253,9.253,0,0,0,1.49,24.506a3.891,3.891,0,0,0,4.353,6.429,9.256,9.256,0,0,0,9.559,0,3.891,3.891,0,0,0,4.353-6.429ZM10.621,13.369A2.542,2.542,0,1,1,8.08,15.911,2.547,2.547,0,0,1,10.621,13.369ZM3.892,30.109a2.542,2.542,0,1,1,2.542-2.542A2.545,2.545,0,0,1,3.892,30.109ZM14.313,30A7.912,7.912,0,0,1,6.93,30a3.9,3.9,0,0,0-4.168-6.158,7.9,7.9,0,0,1,3.974-7.716,3.891,3.891,0,0,0,7.771,0,7.9,7.9,0,0,1,3.974,7.716A3.9,3.9,0,0,0,14.313,30Zm3.038.108a2.542,2.542,0,1,1,2.542-2.542A2.541,2.541,0,0,1,17.351,30.109Z" transform="translate(0 -12.019)" fill="#010101"/>
    </g>
  </g>
</svg>
