<svg xmlns="http://www.w3.org/2000/svg" width="21" height="20" viewBox="0 0 21 20">
  <path id="comment-svgrepo-com" d="M3.25,4A.25.25,0,0,0,3,4.25v12.5a.25.25,0,0,0,.25.25h2.5a.75.75,0,0,1,.75.75v3.19l3.72-3.72a.75.75,0,0,1,.53-.22h10a.25.25,0,0,0,.25-.25V4.25A.25.25,0,0,0,20.75,4ZM1.5,4.25A1.751,1.751,0,0,1,3.25,2.5h17.5A1.751,1.751,0,0,1,22.5,4.25v12.5a1.75,1.75,0,0,1-1.75,1.75H11.06L7.487,22.073A1.457,1.457,0,0,1,5,21.043V18.5H3.25A1.75,1.75,0,0,1,1.5,16.75Z" transform="translate(-1.5 -2.5)" fill="#5e980a" fill-rule="evenodd"/>
</svg>
