<svg id="Group_14" data-name="Group 14" xmlns="http://www.w3.org/2000/svg" width="18.537" height="21" viewBox="0 0 18.537 21">
  <g id="Group_71" data-name="Group 71" transform="translate(0 0)">
    <path id="Path_40" data-name="Path 40" d="M3.262,13.87,7.445,17.62l8.873-9.889L12.134,3.979Zm7.824-5.3L6.1,14.123a.355.355,0,0,1-.243.117.345.345,0,0,1-.254-.09l-.247-.222a.352.352,0,0,1-.027-.5l4.982-5.553a.351.351,0,0,1,.5-.027l.247.222A.354.354,0,0,1,11.086,8.57Zm1.449-2.64.247.221a.351.351,0,0,1,.027.5l-.433.483a.359.359,0,0,1-.243.117.351.351,0,0,1-.254-.089l-.247-.222a.361.361,0,0,1-.118-.243.348.348,0,0,1,.091-.254l.433-.483A.353.353,0,0,1,12.535,5.93Zm1.031-3.546,4.182,3.752L16.721,7.281,12.539,3.53Zm5.865.054L17.06.311A1.215,1.215,0,0,0,15.343.4l-1.4,1.559,4.183,3.751,1.4-1.557a1.218,1.218,0,0,0-.1-1.718ZM18.042,4.151,15.506,1.878l.732-.815,2.535,2.273ZM1.323,19.423a.606.606,0,0,0,.811.729l4.81-1.97L2.761,14.429Zm4.251-1.479-1.89.774-1.105-.991.565-1.962Z" transform="translate(-1.299 0)" fill="#5e980a"/>
    <rect id="Rectangle_464" data-name="Rectangle 464" width="17.5" height="1.167" transform="translate(0 19.833)" fill="#5e980a"/>
  </g>
</svg>
