<svg xmlns="http://www.w3.org/2000/svg" width="48" height="24" viewBox="0 0 48 24">
  <g id="Group_659" data-name="Group 659" transform="translate(-811 -155)">
    <rect id="Rounded_Rectangle_603" data-name="Rounded Rectangle 603" width="48" height="22" rx="11" transform="translate(811 156)" fill="#92c745"/>
    <g id="Add" transform="translate(840.646 155)">
      <text id="_" data-name="+" transform="translate(0 19)" fill="#fff" font-size="20" font-family="Roboto-Thin, Roboto" font-weight="200"><tspan x="0" y="0">+</tspan></text>
    </g>
    <g id="infodoc_-_off" data-name="infodoc - off" transform="translate(811 156)">
      <path id="Ellipse_1" data-name="Ellipse 1" d="M11,0A11,11,0,1,1,0,11,11,11,0,0,1,11,0Z" fill="#9a9a9a"/>
      <path id="Path_18" data-name="Path 18" d="M58.434,59.652l-.216.824q-.971.358-1.55.545a4.338,4.338,0,0,1-1.344.188,2.808,2.808,0,0,1-1.828-.536,1.683,1.683,0,0,1-.652-1.359,4.515,4.515,0,0,1,.048-.655,7.563,7.563,0,0,1,.158-.755l.809-2.674q.108-.383.182-.728a2.952,2.952,0,0,0,.074-.626.927.927,0,0,0-.227-.715,1.349,1.349,0,0,0-.866-.2,2.4,2.4,0,0,0-.643.092c-.221.061-.409.119-.566.174l.216-.824q.8-.3,1.522-.517a4.829,4.829,0,0,1,1.376-.215,2.747,2.747,0,0,1,1.8.526,1.7,1.7,0,0,1,.633,1.369c0,.116-.014.32-.044.614a3.859,3.859,0,0,1-.162.806l-.805,2.663a6.65,6.65,0,0,0-.178.734,3.547,3.547,0,0,0-.079.622.864.864,0,0,0,.254.723,1.514,1.514,0,0,0,.882.192,2.735,2.735,0,0,0,.667-.1A3.957,3.957,0,0,0,58.434,59.652Zm.2-11.179a1.513,1.513,0,0,1-.564,1.186,2,2,0,0,1-1.357.49,2.021,2.021,0,0,1-1.365-.49,1.51,1.51,0,0,1-.569-1.186,1.526,1.526,0,0,1,.569-1.19,2.123,2.123,0,0,1,2.722,0A1.529,1.529,0,0,1,58.638,48.473Z" transform="translate(-44.479 -43.122)" fill="#fff"/>
    </g>
  </g>
</svg>
