<svg xmlns="http://www.w3.org/2000/svg" width="28.111" height="28" viewBox="0 0 28.111 28">
  <g id="Group_660" data-name="Group 660" transform="translate(-810 -489)">
    <g id="Group_22" data-name="Group 22" transform="translate(811.411 489)">
      <g id="Group_21" data-name="Group 21" transform="translate(0 0)">
        <path id="Path_19" data-name="Path 19" d="M51.484,8.308,44.992,1.816a2.753,2.753,0,0,0-3.9,0L26.508,16.4a2.758,2.758,0,0,0,0,3.9l3.358,3.358a2.736,2.736,0,0,0,1.948.807h6.269a2.737,2.737,0,0,0,1.948-.807l1.41-1.41h0L51.484,12.2A2.757,2.757,0,0,0,51.484,8.308ZM38.731,22.359a.912.912,0,0,1-.649.269H31.813a.912.912,0,0,1-.649-.269L27.806,19a.919.919,0,0,1,0-1.3l3.9-3.9L39.492,21.6ZM40.79,20.3,33,12.509l6.333-6.333,7.791,7.791Zm9.395-9.395-1.763,1.763L40.632,4.877l1.763-1.763a.919.919,0,0,1,1.3,0l6.492,6.492A.919.919,0,0,1,50.185,10.905Z" transform="translate(-25.702 -1.009)" fill="#f0142f"/>
      </g>
    </g>
    <g id="Group_24" data-name="Group 24" transform="translate(810 515.164)">
      <g id="Group_23" data-name="Group 23">
        <path id="Path_20" data-name="Path 20" d="M27.193,477.546H.918a.918.918,0,0,0,0,1.836H27.193a.918.918,0,0,0,0-1.836Z" transform="translate(0 -477.546)" fill="#f0142f"/>
      </g>
    </g>
  </g>
</svg>
