<svg id="list-svgrepo-com" xmlns="http://www.w3.org/2000/svg" width="18" height="14.625" viewBox="0 0 18 14.625">
  <path id="list-svgrepo-com-2" data-name="list-svgrepo-com" d="M2.813,59.25H.563A.563.563,0,0,0,0,59.812v2.25a.563.563,0,0,0,.562.563h2.25a.563.563,0,0,0,.562-.563v-2.25A.563.563,0,0,0,2.813,59.25Zm0-11.25H.563A.562.562,0,0,0,0,48.562v2.25a.562.562,0,0,0,.562.563h2.25a.562.562,0,0,0,.562-.562v-2.25A.562.562,0,0,0,2.813,48Zm0,5.625H.563A.562.562,0,0,0,0,54.187v2.25A.563.563,0,0,0,.562,57h2.25a.563.563,0,0,0,.562-.562v-2.25A.562.562,0,0,0,2.813,53.625Zm14.625,6.188H6.187a.563.563,0,0,0-.562.563V61.5a.562.562,0,0,0,.562.562h11.25A.562.562,0,0,0,18,61.5V60.375A.563.563,0,0,0,17.438,59.812Zm0-11.25H6.187a.562.562,0,0,0-.562.563V50.25a.563.563,0,0,0,.562.563h11.25A.563.563,0,0,0,18,50.25V49.125A.562.562,0,0,0,17.438,48.562Zm0,5.625H6.187a.563.563,0,0,0-.562.563v1.125a.562.562,0,0,0,.562.563h11.25A.562.562,0,0,0,18,55.875V54.75A.563.563,0,0,0,17.438,54.187Z" transform="translate(0 -48)" fill="#fff"/>
</svg>
