<svg xmlns="http://www.w3.org/2000/svg" width="40" height="40" viewBox="0 0 40 40">
  <g id="Group_1211" data-name="Group 1211" transform="translate(-938 -805)">
    <g id="Group_984" data-name="Group 984" transform="translate(-0.051 0.001)">
      <rect id="Rounded_Rectangle_9_copy_10" data-name="Rounded Rectangle 9 copy 10" width="40" height="40" rx="5" transform="translate(938.051 804.999)" fill="#e6e9f4"/>
    </g>
    <g id="Past" transform="translate(949 815)">
      <g id="paste-svgrepo-com">
        <g id="Group_56" data-name="Group 56">
          <g id="Group_55" data-name="Group 55">
            <path id="Path_30" data-name="Path 30" d="M49.078,7.577,46.27,4.769a.4.4,0,0,0-.282-.117h-.92v-2.7a.4.4,0,0,0-.4-.4H40.089v-.1A1.459,1.459,0,0,0,38.631,0H38.16A1.459,1.459,0,0,0,36.7,1.458v.1H32.12a.4.4,0,0,0-.4.4V17.331a.4.4,0,0,0,.4.4h5.832V19.6a.4.4,0,0,0,.4.4H48.8a.4.4,0,0,0,.4-.4V7.858A.4.4,0,0,0,49.078,7.577ZM46.387,6.013,47.834,7.46H46.387ZM36.224,2.351H38.1a.4.4,0,1,0,0-.8h-.6v-.1A.662.662,0,0,1,38.16.8h.471a.662.662,0,0,1,.661.661v.494a.4.4,0,0,0,.4.4h.876v.8H36.224Zm2.127,2.3a.4.4,0,0,0-.4.4V16.932H32.519V2.351h2.908v1.2a.4.4,0,0,0,.4.4h5.139a.4.4,0,0,0,.4-.4v-1.2h2.908v2.3ZM48.4,19.2H38.749V5.449H45.59V7.858a.4.4,0,0,0,.4.4H48.4Z" transform="translate(-31.722)" fill="#131523"/>
            <path id="Path_31" data-name="Path 31" d="M234.347,234.265h5a.4.4,0,1,0,0-.8h-5a.4.4,0,0,0,0,.8Z" transform="translate(-225.892 -224.166)" fill="#131523"/>
            <path id="Path_32" data-name="Path 32" d="M241.14,283.478h-6.792a.4.4,0,0,0,0,.8h6.792a.4.4,0,0,0,0-.8Z" transform="translate(-225.892 -272.184)" fill="#131523"/>
            <path id="Path_33" data-name="Path 33" d="M241.14,333.487h-6.792a.4.4,0,0,0,0,.8h6.792a.4.4,0,1,0,0-.8Z" transform="translate(-225.892 -320.201)" fill="#131523"/>
            <path id="Path_34" data-name="Path 34" d="M241.14,383.5h-6.792a.4.4,0,0,0,0,.8h6.792a.4.4,0,1,0,0-.8Z" transform="translate(-225.892 -368.218)" fill="#131523"/>
            <path id="Path_35" data-name="Path 35" d="M388.165,234.265h.664a.4.4,0,1,0,0-.8h-.664a.4.4,0,0,0,0,.8Z" transform="translate(-373.582 -224.166)" fill="#131523"/>
          </g>
        </g>
      </g>
    </g>
  </g>
</svg>
