<svg xmlns="http://www.w3.org/2000/svg" width="17.878" height="20.527" viewBox="0 0 17.878 20.527">
  <g id="Group_1160" data-name="Group 1160" transform="translate(-1236.916 -237.028)">
    <g id="pin" transform="translate(1236.916 237.028)">
      <g id="Group_1075" data-name="Group 1075" transform="translate(0 0)">
        <path id="pin-svgrepo-com" d="M8.244,0l-.55,1.649.55.55L5.115,5.328a6.676,6.676,0,0,0-1.405-.5A4.764,4.764,0,0,0,2.6,4.7a2.221,2.221,0,0,0-1.138.27l6.209,6.209a3.167,3.167,0,0,0,.141-2.244,6.678,6.678,0,0,0-.5-1.405L10.443,4.4l.55.55,1.649-.55L8.244,0ZM3.7,7.889,0,12.641l4.752-3.7Z" transform="translate(0 8.939) rotate(-45)" fill="#0058a3"/>
        <ellipse id="Ellipse_86" data-name="Ellipse 86" cx="4.214" cy="1.317" rx="4.214" ry="1.317" transform="translate(4.857 17.894)" fill="#0058a3"/>
      </g>
    </g>
  </g>
</svg>
