<svg xmlns="http://www.w3.org/2000/svg" width="213" height="213" viewBox="0 0 213 213">
  <g id="Group_956" data-name="Group 956" transform="translate(-694 -302)">
    <circle id="Ellipse_18" data-name="Ellipse 18" cx="106.5" cy="106.5" r="106.5" transform="translate(694 302)" fill="#92c745"/>
    <g id="thumb-up-svgrepo-com" transform="translate(735 342.043)">
      <g id="Group_552" data-name="Group 552" transform="translate(0 8.958)">
        <path id="Path_82" data-name="Path 82" d="M127.38,72.458c6.643-6.614,4.591-19.992-6.916-19.992l-30.277.02c1.15-6.412,2.815-17.041,2.749-18.044-.636-9.5-6.694-21.072-6.956-21.545-1.1-2.058-6.684-4.848-12.3-3.652-7.259,1.554-8,6.184-7.971,7.461,0,0,.313,12.667.343,16.047-3.471,7.622-15.437,27.654-19.064,29.2a5.531,5.531,0,0,0-2.875-.807H5.862A5.857,5.857,0,0,0,0,67.005l.005,52.867a5.556,5.556,0,0,0,5.509,5.085H39.872a5.529,5.529,0,0,0,5.524-5.524v-1.755a3.948,3.948,0,0,1,1.857.277c2.209,1.4,4.939,3.168,8.5,3.168h51.273c19.169,0,17.112-17.015,15.361-19.336,3.239-3.526,5.242-9.746,2.508-14.66C126.992,84.9,130.685,78.79,127.38,72.458ZM38.692,119.424H5.5V66.662H38.692ZM118.437,72l-.313,1.306c8.833,2.512,4.132,12.692-2.2,13.353l-.313,1.306c8.47,2.154,4.429,12.637-2.2,13.353l-.313,1.3c6.916,1.135,5.242,12.939-5.237,12.939l-52.151.02c-3.683,0-7.037-4.2-9.746-4.2H43.59V70.773a83.168,83.168,0,0,0,8.581-5.907c3.8-3.244,19.371-28.4,19.371-31.549S71.2,16.549,71.2,16.549s3.052-3.935,9.867-1.064c0,0,5.735,10.755,6.32,19.326,0,0-2.583,17.656-3.97,23.2h36.155C128.455,58.016,126.76,70.7,118.437,72Z" transform="translate(0 -8.958)" fill="#fff"/>
      </g>
    </g>
  </g>
</svg>
