<svg id="User" xmlns="http://www.w3.org/2000/svg" width="32.905" height="32.905" viewBox="0 0 32.905 32.905">
  <path id="Union" d="M31.641,32.905H1.267A1.267,1.267,0,0,1,0,31.641V25.882a2.442,2.442,0,0,1,1.36-2.208,34.98,34.98,0,0,1,30.187,0,2.441,2.441,0,0,1,1.358,2.208v5.759A1.266,1.266,0,0,1,31.641,32.905ZM16.453,22.781A32.218,32.218,0,0,0,2.531,25.92v4.454H30.374V25.92A32.221,32.221,0,0,0,16.453,22.781Zm0-5.062a8.86,8.86,0,1,1,8.86-8.86A8.87,8.87,0,0,1,16.453,17.719Zm0-15.188A6.329,6.329,0,1,0,22.781,8.86,6.336,6.336,0,0,0,16.453,2.531Z" transform="translate(0 0)" fill="#5e980a"/>
</svg>
