<svg xmlns="http://www.w3.org/2000/svg" width="69" height="46" viewBox="0 0 69 46">
  <g id="Group_662" data-name="Group 662" transform="translate(-761 -459.5)">
    <rect id="Rectangle_33" data-name="Rectangle 33" width="69" height="46" rx="13" transform="translate(761 459.5)" fill="#f4f9ec"/>
    <path id="XMLID_1523_" d="M5.058,23.961H19.5a1.477,1.477,0,1,0,0-2.954H5.058l4.32-4.431a1.515,1.515,0,0,0-2.1-2.178L.443,21.266a1.428,1.428,0,0,0,0,2.068L7.311,30.2a1.458,1.458,0,0,0,1.034.443A1.4,1.4,0,0,0,9.378,30.2a1.343,1.343,0,0,0,0-1.994Z" transform="translate(779 456.513)" fill="#0058a3"/>
    <path id="XMLID_1523_2" data-name="XMLID_1523_" d="M5.058,9.974H19.5a1.477,1.477,0,1,0,0-2.954H5.058l4.32-4.431A1.515,1.515,0,0,0,7.274.411L.443,7.279a1.428,1.428,0,0,0,0,2.068l6.868,6.868a1.458,1.458,0,0,0,1.034.443,1.4,1.4,0,0,0,1.034-.443,1.343,1.343,0,0,0,0-1.994Z" transform="translate(812.896 494.5) rotate(180)" fill="#5e980a"/>
  </g>
</svg>
